<?xml version="1.0" encoding="UTF-8"?>
<svg id="Layer_1" xmlns="http://www.w3.org/2000/svg" version="1.1" viewBox="0 0 422.81 441.19">
  <!-- Generator: Adobe Illustrator 29.3.1, SVG Export Plug-In . SVG Version: 2.1.0 Build 151)  -->
  <defs>
    <style>
      .st0 {
        fill: #864c4e;
      }

      .st1 {
        fill: #783234;
      }

      .st2 {
        fill: none;
      }

      .st3 {
        fill: #874c4e;
      }
    </style>
  </defs>
  <g>
    <path class="st2" d="M213.96,295.31c-4.86,0-9.66-.29-14.38-.83.05-.72,0-1.45-.16-2.19l-24.72-110.85h12.49c2,0,3.92-.79,5.33-2.21l8.05-8.05,24.27,24.27c2.94,2.94,7.72,2.94,10.66,0l14.01-14.01h3.69l-14.23,63.81c-.91,4.06,1.65,8.09,5.72,9,4.07.91,8.09-1.65,9-5.72l16.28-72.99c.5-2.23-.04-4.57-1.48-6.36-1.43-1.78-3.59-2.82-5.88-2.82h-16.22c-2,0-3.92.79-5.33,2.21l-10.89,10.89-24.27-24.27c-1.41-1.41-3.33-2.21-5.33-2.21s-3.92.79-5.33,2.21l-11.17,11.17h-18.78c-2.29,0-4.45,1.04-5.88,2.82-1.43,1.79-1.97,4.12-1.48,6.36l25.88,116.08c-54.22-13.51-94.52-62.62-94.52-120.97,0-68.74,55.92-124.66,124.66-124.66s124.66,55.92,124.66,124.66-55.92,124.66-124.66,124.66h0ZM190.04,366.68c-6.65,0-12.32-4.19-14.56-10.07h31.99c4.16,0,7.54-3.37,7.54-7.54s-3.37-7.54-7.54-7.54h-33.01v-11.69h33.01c4.16,0,7.54-3.38,7.54-7.54s-3.37-7.54-7.54-7.54h-33.01v-10.08c12.53,3.7,25.79,5.69,39.5,5.69,12.54,0,24.69-1.67,36.26-4.78v45.49c0,8.59-6.99,15.59-15.59,15.59h-44.59ZM223.45,383.14c0,6.13-4.99,11.12-11.12,11.12s-11.12-4.99-11.12-11.12v-1.38h22.23v1.38h0ZM353.69,170.65c0-77.05-62.69-139.74-139.74-139.74S74.22,93.6,74.22,170.65c0,57.7,35.15,107.33,85.16,128.63v51.81c0,15.59,11.69,28.48,26.76,30.41v1.64c0,14.44,11.75,26.19,26.19,26.19s26.19-11.75,26.19-26.19v-1.64c15.07-1.92,26.76-14.82,26.76-30.41v-50.48c51.73-20.5,88.4-71.03,88.4-129.97h0Z"/>
    <g>
      <path class="st0" d="M346.91,171.81c.16-1.47-1.02-.94-1.22-1.16.16,2.44,1.52,1.11,1.22,1.16Z"/>
      <polygon class="st0" points="347.03 196.4 346.65 195.88 347.09 199.69 347.03 196.4"/>
      <path class="st0" d="M340.73,218.59c2.6-1.39,2.64-7.97,4.23-11.77l.62-.54-1.04-2.19c-.56,2.42-.96,5.29-1.52,7.93-.7,2.6-1.43,5.01-2.29,6.57Z"/>
      <path class="st0" d="M332.05,228.05c.99-.34-.46,2.65,1.35-2.44-.19.21-.26.26-.38.38-.19.45-.46,1.05-.97,2.06Z"/>
      <path class="st0" d="M333.02,225.99c.91-2.17-1.21,1.13,0,0h0Z"/>
      <path class="st0" d="M328.41,235.88l.88-3.07c-.71.36-2.1,2.72-1.9,1.66-1.17,2.97-.48,2.64,1.03,1.41Z"/>
      <path class="st0" d="M328.16,239.18c.2-.51.44-1,.61-1.53-.29.16-.59.48-.61,1.53Z"/>
      <path class="st0" d="M329.87,234.3l-1.1,3.34c.49-.24,1.07.03.56-1.51.37.54.21-.34.54-1.83Z"/>
      <path class="st0" d="M331.07,232.73c1.21-1.34,2.55-3.24,1.65-.14,1.36-2.71,1.51-4.07,1.09-4.03-.36.07-1.42,1.47-2.73,4.16Z"/>
      <path class="st0" d="M342.23,220.45l1.37-2.1.09-2.22c-.05,1.11-2.09,4.23-1.46,4.31Z"/>
      <path class="st0" d="M316.76,251.34c.21.42,1.51-.14,2.07,0l1-2.14c-.94.78-2.49,2.41-3.07,2.15Z"/>
      <path class="st0" d="M318.84,251.33c-.51,1.06-.97,2.17-1.54,3.21,1.99-2.39,2.01-3.09,1.54-3.21Z"/>
      <path class="st0" d="M329.73,240.79c.67-1.86,1.07-3.86,1.56-5.78-.61,2.27-1.27,4.55-2.14,6.73l.59-.95Z"/>
      <polygon class="st0" points="308.15 261.15 308.81 259.11 307.43 262.56 308.15 261.15"/>
      <path class="st0" d="M302.08,267.33c.54-1.52-2.4.26-1.59-1.09-1.67,1.61-2.72,3.43-3.69,5.09,1.23-1.52,2.83-2.77,5.29-4.01Z"/>
      <path class="st0" d="M295.02,273.98c.68-.7,1.19-1.66,1.78-2.64-.66.8-1.22,1.71-1.78,2.64Z"/>
      <path class="st0" d="M313.25,258.87c-.37.04-1.2-.02-2.67,1.25l1.76-.23c.28-.31.59-.66.91-1.02Z"/>
      <path class="st0" d="M312.39,259.88h-.06c-.98,1.13-1.7,1.86-2.04,2.15.29-.24.94-.87,2.1-2.15Z"/>
      <path class="st0" d="M313.48,258.62c-.08.09-.15.16-.23.26.17-.02.25-.06.23-.26Z"/>
      <path class="st0" d="M323.78,247.94c-.69,2.02-2.74,5.95.6,3.17.24-1.67-1.66-.1-.6-3.17Z"/>
      <path class="st0" d="M315.71,258.3l2.66-2.65c-.29-.14-1.08.07-.67-.9l-1.99,3.54Z"/>
      <polygon class="st0" points="314.79 259.93 315.71 258.3 314.73 259.28 314.79 259.93"/>
      <path class="st0" d="M300.53,270.79c-.87,1.42-2.17,2.6-3.61,3.95,1.75-1.2,3.49-2.53,5.07-3.89-.02-.47.22-1.56-1.46-.06Z"/>
      <path class="st0" d="M306.52,265.74c-.06.09-.14.21-.2.3.22-.08.37-.18.2-.3Z"/>
      <polygon class="st0" points="280.89 285.72 281.27 285.73 281.22 285.52 280.89 285.72"/>
      <path class="st0" d="M302.4,270.79c1.35-.88,1.92-1.68,2.31-2.59-.77.92-1.72,1.76-2.73,2.66.01.21.06.31.42-.07Z"/>
      <path class="st0" d="M291.04,277.61c.8-.29,1.68-.67,2.59-1.1-.88.18-2.53.68-2.59,1.1Z"/>
      <path class="st0" d="M305.71,266.18c.04-.07.08-.13.13-.21-.54.18-.41.23-.13.21Z"/>
      <path class="st0" d="M305.71,266.18c-.46.7-.71,1.36-1,2.01.62-.75,1.17-1.48,1.6-2.15-.2.08-.43.13-.61.14Z"/>
      <path class="st0" d="M279.24,295.22c-.12-.55.66-1.57,1.96-2.54,1.31-.94,3.11-1.88,4.98-2.44,2.73-2.69-1.3-4.42-4.92-4.51.15.47.42.9-2.55,3.18.7-.07,2.74-.64,4.21-1.14,1.48-.46,2.53-.6,1.45.67-3.98,3.08-3.77,1.66-6.14,2.33,2.48.23-4.68,4.75-2.86,6.05l3.62-2.73c.22.24-.98,1.44.25,1.11Z"/>
      <path class="st0" d="M287.22,282.1l1.2-.92c-1.56.76-2.84,1.05-5.19,1.51-1.81,1.78-2.05,2.41-2.01,2.82l6.34-3.83-.35.41Z"/>
      <path class="st0" d="M293.88,277.21c-.22,1.65-2.89,4.25-.32,3.96,3.58-2.75,1.95-2.68,3.78-4.67-5.61,4.51,1.25-1.75-3.33.79,1-1,1.99-1.79,2.9-2.54-1.11.66-2.22,1.24-3.29,1.76.07-.01.12-.02.18-.04l.03-.02v.02c.34-.06.48-.05.15.09-.01.03-.08.08-.1.11.06.16.04.36.01.55-1.81,1.03-.45-.06-.01-.55-.02-.06,0-.14-.04-.19h-.03c-1.79,1.56-3.52,3.22-5.38,4.73,1.37-.67,2.83-1.9,5.46-3.98Z"/>
      <path class="st0" d="M324.07,255.81c-.22.12-.28.06-.36.02-.17.47-.2.68.36-.02Z"/>
      <path class="st0" d="M321.65,257.8c.23-.51.1-1.19,1.25-2.5,1.19-1,.45.36.8.53.39-1.05,1.53-3.47-.9-1.19l-.18.52c-2.02,2.21-5.82,3.95-5.55,3.5,1.38.05,2.46-.03,4.58-.86Z"/>
      <path class="st0" d="M308.29,268.81c-1.26,1.61-2.66,3.09-4.09,4.54l3.06-1.26-.54-.35c2.68-2.23,1.59-2.29,1.57-2.93Z"/>
      <path class="st0" d="M280.01,285.54l.04-1.48c-.66,1.09-1.4,2.1-2.11,3.17l2.07-1.69Z"/>
      <polygon class="st0" points="273.29 289.29 273.05 288.17 271.57 289.72 273.29 289.29"/>
      <path class="st0" d="M67.91,165.34l-.21-1.93c.05.91.12,1.5.21,1.93Z"/>
      <path class="st0" d="M67.89,179.21l.55.31c-.32-.62-.55-.87-.55-.31Z"/>
      <path class="st0" d="M182.34,373.55c-.65-.52-.85-.9-1.26-1.34-.33-.47-.62-.89-.88-1.22-.52-.63-.86-.98-1.07-.38-.02.45-.05.93-.04,1.36.7.21,1.27.46,1.76.75.57.25.83.45,1.48.83Z"/>
      <path class="st0" d="M120.2,274.44c.11.26.23.53.34.79.76.12,1.46.23,2.11.34-.74-.34-1.57-.72-2.45-1.13Z"/>
      <path class="st0" d="M115.41,276.82c-.74-.99-1.47-1.98-2.11-3.06.36.79,1.02,1.8,2.11,3.06Z"/>
      <path class="st0" d="M88.67,93.01l.15-2.59c-1.85,3.04-.51,2.03-.15,2.59Z"/>
      <path class="st0" d="M253.64,365.82c-1.45,1.11-2.58,1.98-3.57,2.74,2.05-.85,4.01-1.67,3.57-2.74Z"/>
      <path class="st0" d="M80.39,170.78c-.19-1.07-.39-1.53-.66-1.5.13,1.11.36,1.73.66,1.5Z"/>
      <path class="st0" d="M245.95,371.5c.32-.06.62-.16.94-.23,1.01-.84,1.96-1.71,3.18-2.7-1.5.69-3.06,1.36-4.12,2.94Z"/>
      <path class="st0" d="M325.3,75.54c.09.18.24.38.31.55.16-.06-.01-.27-.31-.55Z"/>
      <path class="st0" d="M346.57,149.35c-.18-.7-.36-1.87-.55-2.97,0,.55.14,1.45.55,2.97Z"/>
      <path class="st0" d="M257.75,320.95c-.08-1.72-.13-.27,0,0h0Z"/>
      <path class="st0" d="M262.5,312.59c.14.36.31.64.58.69-.29-.14-.47-.38-.58-.69Z"/>
      <path class="st0" d="M238.39,387.01s-.02.09-.03.14c.3-.42.25-.35.03-.14Z"/>
      <path class="st0" d="M258.29,318.36c-.15.64-.27,1.39-.36,2.2.09-.36.21-1.02.36-2.2Z"/>
      <path class="st0" d="M257.73,318.71c.05-.59.08-1.06.12-1.5-.2-.22-.33-.02-.12,1.5Z"/>
      <path class="st0" d="M257.81,323.34c-.02-.98.04-1.9.13-2.78-.08.34-.15.48-.19.39.01.5.03,1.21.06,2.39Z"/>
      <path class="st0" d="M193.49,28.9c.12.02.26.02.39.06,1.69-.76.93-.56-.39-.06Z"/>
      <path class="st0" d="M153.8,344.23c.01.08.04.12.06.2.01-.08.03-.18.04-.25l-.1.06Z"/>
      <path class="st0" d="M152.91,338.06c1.49,2.63,1.31,4.12,1,6.11l3.46-2.04-4.46-4.07Z"/>
      <path class="st0" d="M72.51,132.48l-2.18,4.16c-.35-5.78,1.28-9.6-1.28-5.78,1.73.83.7,5.17-.31,9.52-.68,4.42-1.2,8.87.6,9.43l-1.23,2.86c.17-.85-.03-1.01.13-1.85-2.7,5.59,2,4.6,1.09,11.94-.42,2.57-1.05,4.37-1.41,2.58.23,1.95.39,3.88.69,5.81-.01,1.68-.68,1.28-.67-.4l.63,8.83-.11-.06c.57,1.24,1.75,3.99,2.33,5.31-.28,2.26-.52-1.07-.93-.46l1.46,4.72c-.74,2.1-2.14-1.79-2.38-5.18-1.61,2.45-1.26,3.47-.63,5.09.61,1.64,1.43,3.85,1.36,8.91l-1.34-4.51c-1.5,3.31-.18,6.82-.27,12.35.23-1.44,1.21-11.14,3.1-6.04.04,1.52.15,3.54,1.7,6.1-1.29.35-.24,2.99.76,6.36l-1.76.27c1.46,3.58,2.43,2.95,3.86,4.82,1.24,4.04.25,5.35-.49,6.72,2.27,6.47.23-5.14,3.63,2.18.81,2.71,1.79,4.92,3.02,7.15,1.3,2.19,3.01,4.32,5.02,7.04,1.3,3.77-1.27-.08-1.05,1.41.94.81,1.91,1.6,2.95,2.33.42.74-.1.73-.36.72,2.02,2.21,1.65-.69,4.47,2.92,1.19-.03,1.66,2.42,2.88,5.1,1.16,2.7,2.63,5.99,5.28,7.5.51,1.38-1.28.16-1.55.91,3.1,2.55,4.37,3.65,5.58,4.58,1.19.94,2.34,1.7,5.29,3.26l2.94,4.69c-1.8-3.83,2.71-1.13,6.9.67-.6-1.39-1.08-2.57-1.48-3.28l5.73,3.83c.42.77-.48.78-1.81.59.45.2.87.39,1.22.52,1.41,2.13-.18,2.08-2.17,1.63-.41-.83-.79-1.67-1.15-2.49-1.99-.33-4.03-.55-4.46.45.48.16,1.26.62,2.06,1.19-.54-.09-.93-.09-.89.18.05.3.87.5,2.04.93l-.09,2.56.81-.33c1.99,2.46,4.33,4.54,6.53,6.82,3.21,1.33,6.56,1.99,10.12,3.05,3.5,1.16,7.51,2.22,12.17,4.38-2.91.03-1.6,1.81-2.52,3.26-1.6-3.03-7.59-3.19-11.93-6.69,2.29,1.74,1.33,2.08.55,1.92,3,1.43,6.16,2.54,9.27,3.64-.87,1.12,1.31,1.94,3.29,3.71-.23-1.67,1.62-1.26,4.03-.39.78.24,1.67.61,2.53.92.45.15.88.31,1.29.44.2.07.45.11.61.2.04.16.09.31.14.45-.47.35-.92.46-1.28.23-.75,0-1.53-.16-2.62-.79.33.73.67.95,1.27,1.04.27.05.69,0,.99.05l.6.37c.85.55,1.75,1.59.86,3.67-.02-1.06.12-1.3-.35-1.59.21.48.32.81.36,1.92.04.97.01,1.99-.07,2.88-.16,1.78-.53,3.04-.93,2.27l-.02-1.15c-.33,7.63-.02,23.22,2.33,24.36-.3.08-2.84-1-3.31-1.46l7.92,13.61c-2.02-1.2-6.84,3.4-7.98-2.92-.14.91-.3,1.92-.33,3.19-.02.63,0,1.33.06,2.11.06.75.17,1.63.42,2.81.19-1.58,2.87-3.26,3.05-1.61-1.03,2.49-1.3,3.5-1.38,4.56-.12,1.11-.23,2.3-.27,5.81-.14-2.2,3.45-.66,4.48,2.15-.63-.29-2.8,1.46-3.57.41,2.05,2.28,4.18,4.28,6.56,5.82-1.56-1.32-2.45,1.12-2.01,3.27-.02-.55,1.07.97,2.55,2.67,1.48,1.71,3.47,3.51,4.47,4.09-.81-.94-1.55-1.93-2.28-2.89,3.36,3.46,6.2,3.64,8.6,3.78,2.54-.05,4.88-.07,8.54.87-.68.14-1.76.86-2.25,1.71-.49.83-.62,1.81.29,2.13.37-.18.97-.47,1.74-.74.56-.03,1.2.07,1.98.49.74.4,1.56,1.16,2.55,2.23,1.93,2.28,3.92,4.22,5.61,6.24-.11.5-.13.98-.18,1.49.55.63,1.14,1.2,1.79,1.72.59.56,1.26,1.03,1.92,1.49-1.9-.19-5.25-1.38-8.43-3.96-1.58-1.27-3.05-2.87-4.26-4.59-.34-.49-.57-.76-.78-.98-.22-.23-.43-.45-.63-.67-.42-.44-.68-.65-.94-.86-.32.92-.54,1.12-.66,1.42-.06.14-.1.29-.09.56,0,.14.02.3.05.51.12.46.26,1.01.44,1.69-.15,1.1-.67.43-1.2-.77-.32-.79-.4-.89-.5-1.13-.1-.23-.17-.44-.2-.59l.02.61v.3c.03.14-.02.08.07.46.25,1.14.46,2.3.78,3.42.66,2.25,1.51,4.46,2.61,6.55.68-.73,2.33,1.37,4.29,3.09,1.93,1.77,4.04,3.19,4.39,2.44-3.82-2.66-7.13-6.3-9.48-10.66.76-.61,2.68.93,5.12,3.03,2.44,2.14,5.49,4.72,8.63,7.28,1.3,1.88-3.32,1.69-3.62,2.16.68.12,2.53,1.31,4.45,2.2,1.85,1.01,3.79,1.71,4.06,2.13-1.28-.25-2.64-.46-3.93-.86,2.1,1.62,4.39,1.86,6.61,2.11,2.29.14,4.48.35,7.46,1.4,1.99.41,6.58,2.19,6.85.98-3.98-1.6-4.28-8.4-2.83-9.99.26.03,2.29.36,4.63.32,2.31-.05,4.93-.48,6.02-.57,1.64-.03,1.29,1.36.67,2.84-.64,1.38-1.55,2.85.07,2.87-.09-.5,1.27-1.88,1.77-2.48,1.01-.36,1.04.08,1.28.3.25.22.75.22,2.57-1.32-.23-.94,1.52-2.47,2.5-3.39.93-1.01,1.29-1.04-1.87.76,1.46-1.66,2.22-2.52,3.16-3.38.89-.9,1.91-1.88,3.18-4.17-.94.43-1.24-1.12-1.38-3.11-.03-.99-.17-2.15-.15-3.22-.08-1.14-.07-2.13-.03-3.19.43.34,1.18-.42,1.52-.73.36-1.95.41-3.65.52-5.15,2.46-.32,4.61-.52,6.66-1.17,2.28-.62,4.54-1.67,6.99-3.28.42-.02,1.49-.47,2.36-.75.83-.32,1.49-.44,1.11.43.69-1.04,1.1-2.17,2.74-4,2.16-1.3,1.4-.16.37,1.04-.99,1.2-2.16,2.52-.11,1.88-.3-.55.72-1.91,1.71-3.75,1.08-1.77,2.16-3.99,2.68-5.71-.5.04-1.01.48-1.51,1.16-.56.65-1.11,1.56-1.69,2.55-1.22,1.93-2.62,4.22-3.78,5.62-1.47-1.77,1.47-7.29,3.16-14.07,1.38-5.34,2.26-1.82,2.29-2.82.79-2.6.87-4.58.6-6.08-.14-.76-.3-1.38-.5-1.99-.23-.63-.45-1.22-.65-1.78-.86-2.25-1.56-4.25-.72-9.11,1.49-3.86,2.96-.17,4.03-1.03.56,5.08-.94,7.8-.89,11.25l.7-4.24c.47,1.61.94,5.03.36,6.83,1.5-3.19.3-19.79,1.57-28.82-.5-1.61-1.01-4.38-1.61-3.07l.21,2.86c-1.2,2.63-1.66-5.38-2.22-1.76-.84-3.84-2.17-8.14-1.49-13.54.57-.35,1.13-.66,1.7-1.03-.5.15-1.01,3.54-.49,5.07-.38-1.16.2-3.13.59-5.36.39-2.55.6-4.73-.51-6.87-.39,1.37-.78,2.89-1.18,4.54-.24-1.42-.5-2.94-.77-4.52-.14-.85-.28-1.72-.42-2.6-.23-.56.23-.67.53-.89l.99-.64c1.35-.86,2.88-1.76,4.47-2.58.8-.41,1.63-.81,2.48-1.18.49-.22.7-.3.97-.4l.82-.28c-1.38-.31-1.35-.27-2.09.07-.66.3-1.4.61-4.66.97,1.53,0,1.09.51-.18,1.23-.65.36-1.51.78-2.48,1.23-.49.22-1,.45-1.52.68l-.79.35c-.11.21-.03.56-.06.83-.01,4.65,0,8.72,1.28,5.4-1.14,2.11-1.38,5.42-1.58,6.59-.2,1.64-.36,3.42-1.33,5.71.56-.14,1.07-1.62.79,2.4.16.18.37.61.49.88-.02.12-.03.17-.04.27.02-.08.04-.14.07-.22.08.17.1.19.02-.08.24-.96.54-1.73.85-2.05,1.29,2,1.24,8.39,1.91,10.55-.27,2.39-.64-1-1.24.3l.99,3.23c-1.24.32-2.06,6.34-2.79.72l-.06,5.06c-.7,2.98-.98,7.07-.45,9.6-.27,2.39,1.38,6.03.4,3.95l.3,3.45c.06,1.03.03,2.07-.04,3.12h-.32c-.69,2.92-1.43,6.04-3.12,8.96-1.64,2.88-4.34,5.51-7.93,6.33-.77.69-1.63,1.29-2.71,1.9-.26.17-.57.26-.87.39l-.47.19-.3.12c-.25.1-.43.16-.6.2-1.43.41-3.13.62-4.99.94l-2.24-.69c-1.06.26-2.39.49-3.88.74-.03,1.52-.1,3.15-.2,4.84-.04.85-.09,1.69-.13,2.52-.09.75-.17,1.48-.25,2.18-.07.71-.14,1.38-.2,2.01-.06.47-.13.56-.16.83-.06.45-.03.83.14,1.09-1.78.8-2.84,3.11-4.56,5.44-1.71,2.28-4.12,4.47-6.07,5l.43,1.35c-2.7,1.09-5.37,2.04-9.23,2.37l.14,1.25c-1.78.35-4.11-.21-6.26-1.51-2.19-1.26-4.21-3.07-6.15-4.88.62-.11,1.45.91,2.08,1.67-1.67-2.97-3.94-4.91-5.9-7.61-1.01-1.3-1.76-2.79-2.27-4.32-.18-1.46-.39-2.81-.37-4.36.05-1.59.16-3.22.42-4.92-.09-.52-.15-1.01-.2-1.47-2.31-.26-3.84-.61-5.38-1.2.28.05.54.09.79.09-.31-.07-.76-.17-1.22-.27-1.2-.51-2.46-.87-3.93-1.6,1.22.76,2.27,1.12,3.27,1.47-1.09-.21-2.84-.47-3.99-.88-.79-.17-1.63-.41-2.47-.67l-.05-1.5c-.13-.04-.22-.09-.35-.15-1.13-1.25-1.48-.15-1.19,1.19-.87-.26-1.74-.45-2.43-.6.02-1.28-.98-1.81-2.01-2.52-1.01-.69-2.07-1.57-1.78-3.04-.8-.08-2.39-1.65-3.74-3.45-1.43-1.74-2.62-3.7-3.9-3.84.27-.16.23-.73.58.24-.48-2.1-.53-4.16-1.44-5.97.52-.35,1.09-.7,1.64-1.01-.85-1.31-1.61-3.16-2.36-4.89,1.03-3.17,1.63-4.49,2.94-1.34-2.01-7.61-.76-6.17-2.74-12.64l1.1.32c-.04-2.31-1.51-6.01-.6-7.41,1.04-2.59,1.11-8.99,1.17-16.4.02-2.04.03-4.15.05-6.28l.05-4.2.04-2.12.02-1.06c0-.17.03-.37,0-.52l-.46-.23c-2.47-1.24-4.9-2.48-7.24-3.74l-.88-.47-.59-.34-1.11-.66c-.73-.43-1.42-.89-2.05-1.41.64,4.06-4.47-4.18-6.14-2.24-.27-1.02-1.59-2.26.55-1.82-3.02-1.25-4.8-3.01-6.57-4.27-1.76-1.29-3.37-2.32-5.74-2.89-.13-1.06,1.77-.05,1.51-.82-.5-.18-2.02-.72-2.28-1.49-.24-.76,1.14.07,2.14.42-5.25-3.85-7.28-2.49-9.05-1.15-1.88-3.08-3.22-4.07-6.07-4.66-.2-.66-.54-1.46-.4-1.78.12-.3.68-.09,2.34,1.19-.9-.75-3.21-3.52-5.49-5.91-2.35-2.33-4.44-4.55-5.17-4.07-.14-.86-2.02-2.6-2.58-2.95-.83-1.03-1.46-1.83-2.01-2.51-.49-.72-.89-1.31-1.3-1.9-.81-1.17-1.65-2.31-3.24-4.36l.61,1.33c-1.48-.21-2.22-1.03-2.92-2.19-.62-1.22-1.19-2.79-2.41-4.51h.25c-.95-2.26-1.6-3.57-2.09-4.43-.44-.89-.75-1.3-1.06-1.71-.61-.82-1.21-1.68-2.63-6.25l-.95,1.05c-.74.12-1.28-.34-1.69-1.16-.37-.85-.61-2.08-.86-3.45-.44-2.77-1.14-5.99-2.46-8.43l-.05,2.15c-1.88-2.59.73-9.22.37-12.1.08-.69.63.87,1.07,1.67-.41-7.88-1.93-.45-3.84-5.95.63-1.26,2.67.71,1.83-3.04.07-1-1.1-3.57-2.36-6.62-1.34-3.03-2.18-6.65-1.59-9.38-.59,1.23-1.17,2.5-2.02-.14-.18-1.03-.18-2.26-.13-3.57.09-1.32.37-2.73.52-4.11.35-2.77.34-5.43-.75-7.3.22-.53.42-.72.6-.74-.42-3.16-.45-10.31-1.59-12.38,2.47-1.24,2.69-6.11,2.77-10.75-.04-2.33.22-4.53.68-6.09.43-1.57,1.05-2.49,2.07-2.21l1.1-4.74.55-2.37.78-2.31.32.37c2.41-5.73,2.2-8.14,2.03-10.62.82-1.23.76-.1.93.1,2.35-3.96,3.6-6.11,4.42-8.3.41-1.09.72-2.18,1.03-3.5.38-1.28.81-2.77,1.36-4.67h1.6c.22-1.06,2.33-3.67,4.94-6.9,2.9-3.04,5.98-6.91,8.23-10.84.06.16.14.47-.19,1.12,1.38-2.11,3.27-4.13,5.28-6.04,1.01-.96,2.04-1.89,3.07-2.8,1.07-.86,2.21-1.61,3.25-2.4,4.23-3.05,7.34-6.02,7.38-8.95l4.61-4.99c-7.21,4.91-.24-2.53-3.62-1.03,2.65-2.34,8.06-4.15,4.8-1.39l-.67.19c.17,1.59,2.33-.05,4.91-1.33,2.51-1.38,5.1-2.93,5.45-2.1,14.57-8.8,30.84-12.99,46.23-15.51l-2.15-1.72,5.51-.72c1.51.24,2.13,1.28-1.75,1.79,2.19.83,6.37-1.95,6.46-2.41,3.9.09,3.19.81,1.82,1.34-1.38.48-3.35,1.36-2.2,1.15,1.03-.26,2.09-.33,3.14-.43l-.74-.2c2.5-.95,2.68-1.84,7.43-1.98,3.01.25,1.57,1.17,2.74,1.19,0,.14.39.19,1.79-.04,2.3.09,4.59.33,6.89.48l-2.71-1.74c3.12-.63,6.57.42,3.43-1.55,4.67,2.19,25.79,4.41,28.35,6.4,4.56-.23,8.59,1.44,13.54,3.39-1.12-.76-1.25-2.73,3.05-.92-1.51,1.47.39,2.4,2.73,3.94,2.38,1.45,5.41,3.08,6.45,5.05-.53-.75-.07-.8.89-.52.96.26,2.41.87,3.71,1.61,2.66,1.39,5.2,2.59,3.62.15,3.13,2.25-.51,1.31,1.5,3.56,4.36,1.56,8.12,4.94,12.12,8.32,2.06,1.62,3.87,3.63,5.79,5.57,1.91,1.94,3.95,3.79,6.04,5.62.46-.21-.28-2.12,1.86-.86l2.19,6.04c1.64,1.45,3.49-.35,4.9,3.73-.06-.69-.16-1.72.95-.7,1.42,2.4,2.92,4.73,4.49,7.01l2.4,3.4c.77,1.16,1.43,2.39,2.17,3.57,1.48,2.37,2.97,4.74,4.45,7.12,1.42,2.42,2.59,4.98,3.9,7.47,2.79,4.92,4.47,10.35,6.23,15.69.47,1.32.77,2.7.99,4.1.25,1.39.47,2.78.66,4.17.32,2.79.83,5.53.67,8.36.48-3.13.87-1.19,1.25,1.07,0-1.52,1.19-.19,1.79-.6l-.4,9.5c1.13.72,1.3,3.23,1.42,5.64.14,2.41.27,4.73,1.17,5.19l-.47-2.96c2.27,3.92,4.3-5.88,6.97-5.61-1.22-2.22-1.03-5.29-.75-8.83.19-3.51.35-7.54-2.4-10.84.1-1.77,1.19,1.21,1.56.19-1.6-1.65-2.4-3.83-3.01-8.2l.39.4c-.72-2.99-1.83-5.39-2.53-7.72-.76-2.31-1.41-4.47-2.05-6.68-.57-2.25-1.59-4.36-2.49-6.85-.99-2.46-2-5.24-3.47-8.41-.21.51-.4,1-.65,1.52-1.33-2.65-1.34-3.37-1.77-4.74-1.74-.96-.68.84.37,2.68,1.12,1.8,1.91,3.82.28,2.94.26-2.35-2.52-6.81-5.1-11.18-1.21-2.24-2.82-4.16-3.82-5.95-1.04-1.76-1.66-3.26-1.46-4.26-2.75-3.7-.39,2.01-3.13-1.67l-.09-1.49c-.49-.1-1.04-.15-1.56-.21-1.87-2.32-2.13-4.13-1.69-4.68.43.6,1.55,1.42,2.13,1.97-1.95-3.54-7.66-8.06-8.46-9.14,1.01,1.09,1.79,2.39,2.7,3.57-2.17-2.29-4.75-4.39-7.28-6.66-1.26-1.14-2.54-2.28-3.82-3.44l-1.93-1.73-2.08-1.55c-2.78-2.06-5.57-4.09-8.33-5.97-2.82-1.78-5.79-3.14-8.56-4.38l.46,1.01c-4.22-1.87-5.64-3.04-7.32-4.04-1.64-1.06-3.36-2.26-8.01-4.21l.39.02c-1.04-.15-2.18-.47-3.39-.85-1.24-.3-2.54-.71-3.81-1.22,2.66.21-4-2.97-.57-2.56-4.93-1.16-6.16-1.34-7.04-1.27-.87.07-1.39.37-4.87.7l-1.18-1.36c-2.4.34-2.7.77-7.56-.21,4.15.16-2.76-2.32,1.96-2.31-1.22-.6-2.38-1.09-3.5-1.46-1.13-.28-2.21-.46-3.23-.59-2.04-.26-3.85-.28-5.47-.31-3.25-.02-5.69-.23-8-1.88-2.55,1.29-.28,1.8,2.23,2.05,2.5.49,5.29.76,3.92.85,2.08,1.34-4.14,1.29-7.37,1.06-1.65-.12-2.99-1.09-5.01-2.09-1.01-.5-2.19-1-3.65-1.4-.73-.2-1.53-.38-2.42-.51-.89-.07-1.86-.06-2.92,0,.85-.03.9-.25,1.75-.28-3.23-.57-6.21,1.29-10.2.32-1.03.91-2.29.95-3.36,1.04-1.06.16-1.92.41-2.1,1.54,2.52-.68,5.11-.74,7.68-1.11-2.18.45-4.25,1.18-6.63,2.08-2.38.92-5.08,1.67-8.72,1.6.47-.52,2.5-1.42,3.91-1.96-2.19-.32-3.95,1.04-6.23.72.1-1.12,2.43-1.61,5.28-2.1,1.43-.25,2.98-.49,4.46-.83.74-.17,1.46-.36,2.14-.58.69-.15,1.33-.34,1.91-.58-.59-.19-1.46-.21-2.36-.02-.9.21-1.86.5-2.67.74-1.62.46-2.69.66-1.66-.69-1.51,1.76-3.58,1.98-5.99,2.16-1.2.1-2.49.16-3.79.44-1.28.38-2.6.95-3.86,1.87l.07-1.37c-.85.43-2.54,1.51-4.18,1.89l2.55-2.42c-4.18,2.62-9.25.89-13.27,3.39,4.47-1.7,5.12-1.41,5.13-.86,0,.54-.6,1.36,1.46,1.32-5.26,2.53-7,2.49-9.11,2.13-1.04-.15-2.15-.31-3.75-.12-.8.1-1.73.29-2.84.61-1.08.39-2.31,1-3.77,1.77.77-.47,2.36-1.02,3.47-1.22,1.13-.15,1.79.06.6.81-2.35.83-5.53,1.8-7.22,1.85-7.74,4.04,1.8.63-1.17,2.96-3.38-.13-3.58,2.34-6.48,4.79l-.69-1.14c-8.84,4.42-.82,3.64-8.76,7.48.61-1.29,1.39-2.36,2.1-3.56-1.24.93-2.47,1.85-3.58,2.94l-.1-1.82c-3.41,3.95-4.8,4.63-9.03,7.27,1.54.09.88,2.13-2.2,5.13-2.7,1.38.39-2.07-4.03,2.21.45-1.54.91-3.38,3.71-4.25-.08-.52.48-1.56.42-2.09-2.99,1.47-6.16,5.31-7.81,6.83.68-.55,1.49-1.2,2.02-1.41-1.81,2.47-3.63,4.88-5.1,7.58-1.31.69-.85-.4-.39-1.5-1.12,1.45-1.52,2.79-3.22,4.84-.34-1.24-1.3-1.85.91-5.04l-4.91,7.2c-.82.05-3.76,2.64-3.4,1.49-1.7,1.73-3.07,4.43-4.53,7.24-1.57,2.74-2.86,5.85-4.85,8.34,0,.39-.16,1.06-.73,2.29-3.48,4.81-6.77,9.15-8.52,16.12l-1.76,1.42-1.6,1.52c-1.51,5.37,4.14-4.14,1.66,4.72-1.64,6.27-2.39,1.71-3.69,3.68-.4,3.35.3,9.3-2.74,14.66.13-2,.8-3.43,1.12-5.25ZM71.14,199.58c-.52-1.22-1.87-3.65-1.27-4.73,1.79,1.21,1.28,2.45,1.27,4.73ZM125.9,282.61c-1.01-.25-2.09-1.28-3.03-2.74.97.72,2.05,1.54,3.03,2.74ZM258.83,339.77c.02.05.04.09.06.14-.52,2.8-.31,1.81-.06-.14ZM259.41,333.96c-.19-.58-.37-.54-.56-.3.34.41.36,1.71.27,3.2.35-.41.59-1.16.29-2.9ZM212.34,36.35l-1.09-.29c2.46-.51,1.77-.13,1.09.29Z"/>
      <path class="st0" d="M116,276.58c-.12-.41-.03-.66.08-.9-.53-.17-.72,0-.08.9Z"/>
      <path class="st0" d="M88.64,93.49l.12-.17c0-.14-.05-.23-.1-.31l-.03.48Z"/>
      <path class="st0" d="M228.57,410.25c-1.32.61-2.17.7-2.75.71.05.28.83.4,2.75-.71Z"/>
      <path class="st0" d="M257.14,299.81l.35,6.58c-.07-3.13.23-4.18.44-5.63-.31,0-.76,1.11-.79-.95Z"/>
      <path class="st0" d="M291.62,286.85c.36-.44.98-.61,1.31-1.08l-.47-.42c-1.9,1.29-3.02,2.55-.84,1.5Z"/>
      <path class="st0" d="M262.69,297.72c1.42.6,3.7-.82,6.68-2.36-.18.09-.35.17-.54.24.19-1.8-3.19.26-6.14,2.12Z"/>
      <path class="st0" d="M270.06,295.01c.83-.42,1.45-.73,2.21-1-.03-.68-.86.23-2.21,1Z"/>
      <path class="st0" d="M258.67,326.59c.29-1.24-1.44-.78-.98-1.47-1.43-1.38,1.73,8.24.98,1.47Z"/>
      <path class="st0" d="M268.04,299.4c-.63-.23-1.29-.44-2-.64-.2.49-.35.97-.45,1.42l2.45-.78Z"/>
      <path class="st0" d="M264.26,318.2l.38-4.17c-.23.06-.37-.47-.47-1.12-.05,2.57-.32,5.38.09,5.28Z"/>
      <path class="st0" d="M264.18,312.91c.03-1.34,0-2.61-.23-3.35.01.72.06,2.28.23,3.35Z"/>
      <polygon class="st0" points="265.7 303.47 265.41 304.57 265.31 307.48 265.7 303.47"/>
      <path class="st0" d="M261.8,362.19l-.71,2.08-.89,2.02c.18.65,1.04-.28,1.67-1.85.14-1.14.63-2.69-.07-2.25Z"/>
      <path class="st0" d="M267.79,349.23c-.29,1.23-.59,1.31-1.06,2.01l1.71.16c-.2-.77-.44-1.44-.65-2.17Z"/>
      <path class="st0" d="M265.9,363.29c.34.6-1.87,7.3.79,1.33-.09-.65,1.03-5.57-.79-1.33Z"/>
      <path class="st0" d="M219.53,409.06c.38-.11.77-.19,1.13-.35l-1.02-2.63c0,1.01-.04,1.97-.12,2.98Z"/>
      <path class="st0" d="M172.73,385.05c2.87,1.8,3.48,1.42,3.9,1.17.22-.14.42-.28.89-.21.21-.04.45.08.8.37.43-.23.14-.47-.22-.75-.05-.06-.25-.18-.18-.19-.21-.13-.4-.25-.54-.34-.29-.21-.34-.34.07-.34-3.82-.74-5.48-2.21-4.71.29Z"/>
      <path class="st0" d="M177.44,384.75c.24.03.79.17.73.07.16-.02.33-.03.53-.07-.25.03-.56-.03-.55.06-.31-.04-.53-.05-.7-.06Z"/>
      <polygon class="st0" points="346.45 161.57 346.02 164.89 346.86 162.72 346.45 161.57"/>
      <path class="st0" d="M348.86,167.85l-1.76.81,1.73,1.98c-.12-.76-.35-2.22.03-2.8Z"/>
      <path class="st0" d="M69.98,210.3l.49.16c.3-.68.11-1.52-.27-3.2l-.22,3.05Z"/>
      <polygon class="st0" points="66.38 160.66 66.3 161.51 68.01 160.03 66.38 160.66"/>
      <path class="st0" d="M73.07,119.23c-.66,1.6-1.01,3.63-1.67,5.24,1.01-3.65,3.74-4.98,1.67-5.24Z"/>
    </g>
    <g>
      <path class="st0" d="M230.19,383.07c-.1.08.94.06,1.22.07-2.82-2.83-5.48-5.49-7.96-7.98v-.02s0,0,0,0l8,8h0s0,0,0,0h-.01s-.03-.02-.03-.02l-.08-.02c-.06,0-.13-.02-.21-.03-.15,0-.33-.01-.49-.02-.32,0-.57.02-.42.02Z"/>
      <polygon class="st0" points="223.3 377.65 223.33 377.18 223.11 378.34 223.3 377.65"/>
      <path class="st0" d="M221.94,377.63c.13,1.98.49-.32.74.39l.04.45.11-1.59c-.3.25-.68,1.31-.89.76Z"/>
      <path class="st0" d="M221.21,373.36c.05.77-.16.66.17.24-.01-.09-.02-.13-.03-.2-.03.01-.07.01-.14-.05Z"/>
      <path class="st0" d="M221.35,373.4c.14-.06-.09-.65,0,0h0Z"/>
      <path class="st0" d="M220.68,373.84l.19-.69c-.04-.45-.21-.56-.15-.89-.19.37-.15.83-.04,1.57Z"/>
      <path class="st0" d="M220.51,375.28l.1-.29c-.02-.19-.04-.26-.1.29Z"/>
      <path class="st0" d="M220.81,374.38l-.21.61c.03.32.03.96.1-.22-.02.58.02.02.11-.39Z"/>
      <path class="st0" d="M220.93,374.68c.11.43.24.7.05,1.38.36-.27.31-1.66-.05-1.38Z"/>
      <path class="st0" d="M221.87,379.67l.14.58.12-.66c-.06.33-.27-.54-.26.09Z"/>
      <path class="st0" d="M219.51,372.82c-.01.42.06,1.12.08,1.66l.14-.48c-.07-.29-.21-.55-.22-1.18Z"/>
      <path class="st0" d="M219.58,374.48l-.21.72c.19.08.22-.26.21-.72Z"/>
      <polygon class="st0" points="220.47 377.48 220.82 375.96 220.41 377.5 220.47 377.48"/>
      <polygon class="st0" points="218.71 372.77 218.82 371.79 218.61 373.26 218.71 372.77"/>
      <path class="st0" d="M218.18,372.94c.09-.8-.12-1.36-.03-1.86-.14.14-.27.84-.38,1.46.12-.35.24-.26.4.4Z"/>
      <path class="st0" d="M217.58,373.44c.06-.19.12-.54.19-.91-.06.19-.12.45-.19.91Z"/>
      <path class="st0" d="M219.02,374.99c-.02-.25-.05-.92-.16-1.2l.08,1.18.08.02Z"/>
      <path class="st0" d="M218.94,375.01v-.04c-.09-.03-.15-.05-.18-.07.02.01.08.04.18.1Z"/>
      <path class="st0" d="M219.04,375h-.02c0,.11.01.15.02,0Z"/>
      <path class="st0" d="M219.92,376.41c-.12.66-.38,1.37-.13,2.38.09-.81-.05-1.38.13-2.38Z"/>
      <path class="st0" d="M219.14,376.47l.22.27c0-.31-.04-.77.02-1.1l-.24.82Z"/>
      <polygon class="st0" points="219.03 376.85 219.14 376.47 219.06 376.38 219.03 376.85"/>
      <path class="st0" d="M217.97,374.55c-.1.51-.2.56-.32.64.13.23.26.36.38.36.02-.37.07-1.04-.06-1Z"/>
      <path class="st0" d="M218.44,374.88l-.02.07c.01.1.02.13.02-.07Z"/>
      <path class="st0" d="M216.48,375.18c0,.07.01.15.02.22v-.21s-.02-.01-.02-.01Z"/>
      <path class="st0" d="M218.05,375.77c.1.23.15-.06.21-.43-.07.12-.15.2-.23.21,0,.17,0,.28.02.22Z"/>
      <path class="st0" d="M217.26,373.99c.05.25.11.46.17.65-.05-.38-.15-.96-.17-.65Z"/>
      <path class="st0" d="M218.38,374.62s.01-.05.01-.05c-.03-.25-.03-.13-.01.05Z"/>
      <path class="st0" d="M218.38,374.62c-.05.17-.09.46-.13.72.06-.09.11-.22.16-.39,0-.09-.02-.21-.03-.33Z"/>
      <path class="st0" d="M216.12,382.77c.02-1.1.27-2.11.49-.93.21-.82.07-4.43-.11-6.44,0,.48,0,.92-.23,1.57.08.6.49,1.4.3,2.39-.29.56-.24-.39-.38-.97.12,1.37-.37,1.99-.31,4l.25-.71c0,.31-.09.81-.02,1.1Z"/>
      <path class="st0" d="M216.91,375.51l.09-.14c-.1-.19-.18-.63-.31-1.49-.15.53-.18.94-.19,1.31l.45.15-.03.16Z"/>
      <path class="st0" d="M217.41,375.37c-.07,1.19-.29,1.7-.15,2.99.26-.08.19-1,.34-1.51-.43.3.12-.66-.19-1.34.08-.2.16-.26.23-.31-.08-.14-.15-.32-.22-.54v.07s.01,0,.01,0v.02c.02.15.02.24,0,.15,0,.01,0,.02,0,.02,0,.16-.01.31-.02.45-.12-.25-.02-.31.02-.45v-.18s0-.01,0-.01l-.43.65c.09.16.2.13.41,0Z"/>
      <path class="st0" d="M219.56,381.35c0-.11,0-.19-.01-.28-.03.15-.04.25.01.28Z"/>
      <path class="st0" d="M219.39,380.63c.03-.17.06-.64.16-.52.09.36,0,.57,0,.96.06-.31.21-.86.02-1.43l-.03.16c-.17-.41-.39-1.9-.36-2.06.05,1.07.1,1.84.21,2.89Z"/>
      <path class="st0" d="M218.39,378.3l-.36.59.18,1.03v-.62c.19.24.15-.52.18-1Z"/>
      <polygon class="st0" points="216.44 374.59 216.48 373.33 216.28 375.11 216.44 374.59"/>
      <polygon class="st0" points="215.97 374.74 215.99 373.64 215.87 374.3 215.97 374.74"/>
      <path class="st0" d="M209.54,386.7l.23-.22-.23.22Z"/>
      <path class="st0" d="M209.35,386.45l-.37.39c.21-.21.36-.37.37-.39Z"/>
      <path class="st0" d="M204.57,374.86c-.15-1.02-.32-2.61-.3-1.38l.05,1.2c.11-.21.19-.08.26.18Z"/>
      <path class="st0" d="M201.91,386.09c.11-.04.23-.09.34-.14-.4.07-.78.14-1.13.2.25-.02.51-.04.79-.06Z"/>
      <path class="st0" d="M206.7,384.79l-.71.33c.25-.11.48-.22.71-.33Z"/>
      <path class="st0" d="M211.39,386.27l.38-1.17s-.2.59-.38,1.17Z"/>
      <path class="st0" d="M211.22,375.18c-.13-.47-.24-.67-.33-.72.16.69.29,1.72.33.72Z"/>
      <path class="st0" d="M201.29,396.43c.21-.1.4-.27.57-.48-.21.1-.4.24-.57.48Z"/>
      <path class="st0" d="M210.51,374.46c.03.12.04.18.07.28.1-.2.19-.36.31-.29-.12-.51-.25-.83-.38,0Z"/>
      <path class="st0" d="M216.05,385.2c.05.02.08.03.13.06-.14-.08-.15-.08-.13-.06Z"/>
      <path class="st0" d="M228.6,385.01c.06.07.05.17.05.27.09-.04.09-.12-.05-.27Z"/>
      <path class="st0" d="M214.1,374.21c.1-.08.02-.13,0,0h0Z"/>
      <path class="st0" d="M214.58,378.96c-.02.14-.04.31-.04.59,0-.29.02-.47.04-.59Z"/>
      <path class="st0" d="M209.53,381.94h0c.03.23.02.19,0,0Z"/>
      <path class="st0" d="M214.25,374.76c-.04-.15-.08-.27-.13-.36.02.09.06.21.13.36Z"/>
      <path class="st0" d="M214.23,374.19c.04.05.06.08.09.12.01-.2,0-.33-.09-.12Z"/>
      <path class="st0" d="M213.97,374.28c.06-.02.11.04.16.13-.02-.08-.03-.15-.02-.19-.03.02-.07.04-.14.06Z"/>
      <path class="st0" d="M214.79,390.19s.03.06.05.1c-.11-.49-.11-.41-.05-.1Z"/>
      <path class="st0" d="M202.01,387.33s0-.04.01-.06c0,0-.01-.03-.01-.04v.1Z"/>
      <path class="st0" d="M201.66,388.23c.15-1.49.24-1.31.35-.99l-.12-3.46-.23,4.46Z"/>
      <path class="st0" d="M210.32,386.82l.46-.99c.95-1.49.64-.97,1.35-2.3-1.84,3.27-.27.28-2.34,3.42l.4-.69s.12-.14.11-.1c.96-1.54-1.62,2.17-1.5,1.6.11-.27.42-.72.73-1.05l-.7.64c.01-.09.45-.58.43-.49l-.36.07.08-.08c-.42.42-1.1,1.03-1.41,1.27.32-.44.3-.26.61-.62l-.76.55c.65-.73,1.4-1.32,1.37-1.17,2.54-2.75-.76.6.67-1.1l.4-.26c1.52-1.51.93-1.01,1.9-1.9-.55.42-2.41,2.33-3.17,2.88.18-.22.26-.33-.37.1,1.02-.87.72-.69.62-.71l1.39-1.1c-.45.31-1.16.81-1.81,1.26.08-.19,1.18-1,2.12-1.68.16-.24-1.74,1.33-2.12,1.4.49-.49-.13-.14-1.16.22.47-.39.95-.52,1.37-.8l-1.28.61s.41-.24.6-.34c-.51.19-1.56.84-2.05.91-1.78.79,2.44-1.5.35-.73.45-.23,1.01-.4,1.63-.68-1.44.34-1.06.25-2.95.69l1.03-.55c-1.22.54-2.78.87-4.08.97-.6.25-1.12.48-1.36.61l-1.03-.18c.27-.13.87-.23,1.6-.36-.15.01-.29.02-.43.03.59-.31,1.61-.47,2.58-.65-.33.13-.68.27-1.02.41,1.06-.2,2.22-.47,3.21-.78-.2.04-.38.06-.48.05.29-.06.54-.12.71-.18.18-.06-.2.02-.65.1l1.89-.56-.76.19c.37-.2.75-.38,1.13-.54-1.97.26-4.9.47-5.79-.04,1.45,0,2.35-.21,4.06-.36-1.79.3.82.19.47.39.17-.12.99-.22,1.27-.25-.56,0-1.12-.01-1.68-.06,1.39-.15,1.03-.18,1.61-.3-2.76.31-1.85-.09-2.71-.21.93-.04,1.88-.04,1.67.12,2.08-.23-3.27-.11-1.51-.39.02.06-.12.07.36.09-.84-.08-.18-.51.63-.4l.02.06c.22-.3.15-.81-.66-1.12l-3.82,3.82c.15-.38.26-.92.28-1.67,0,.3-.07,2.84-.08,3.32l.78-7.92c-.07,2.02.2,6.84-.17,7.98.1.29.23.62.45-.09-.07-.29-.18-2.92-.08-3.11.27,2.25.18,1.2.51,3.12-.11-.43.01-3.6.18-3.5-.03.47.01,3.13-.05,3.46l.42-3.11c-.1.56-.02,2.64.08,3.52-.04-.61.36.06.47-.25l-.18-.72c.47.47.47-4.38.94-4.21-.06.64-.14,3.96.1,4.35.11-1.59.48-7.67.9-8.89l.08.91.32-1.04c-.2,2.4-.75,7.45-1.06,9.41.18.72.05,1.07.31.99.09.85-.14,1.29-.22,1.34l.62.55c-.03-1.86.47-1.87.45-3.42l-.67,1.93c-.03-1.86.39-5.28.82-4.95.11.74-.08,3.31-.07,3.93.06-.64.41-1.22.45-.77l-.19.99c.24.7.4-2.47.69-.69.1.12.3,2.4.32,1.3-.16-2.12-.2-8.69-.09-10.29.04.14.53,2.03.65,3.08.17,1.66-.25,3.97-.11,5.4,0-.51.1-1.14.14-1.34.11.43-.04,1.57.19,1.34.04-1.89.47.16.11-1.59.23-.54.24.39.5.31-.08-1.22.24-4.15.46-4.69-.01.48.04,1.1.06,1.39.46.17.71,1.03,1.14,1.04.04.46.25,1.01.16,1.82.06-.33.12-.97.25-1.02.26,1.63-.3.25-.1,2.22.02-1.1.34-1.51.53-2.2-.06-1.69-.44-.32-.63.36,0-2.34.33-4.78.78-5.86.36-.58.15,1.51.22,1.18.67.41.57-4.08,1.13-2.39.22,1.49.01,2.96.06,4.03-.29.56-.45-.94-.64-.88l.24.7c-.09.49-.29.87-.39.44.19,1.34,1.13.26,1.65,1.49.09-.5.25-1.01.18-1.61l-.16.21c-.15-1.2.31-1.66.1-2.22.22-.84.47-2.17.78-1.49l.06,1.7c0-.5-.2-1.01-.29-.49.13-.75.48,2.3.62.07l-.22-1.18c.22-.85.49-2.65.77-2.12-.13-1.68-.06.19-.26-1.77.17,2.44-.7-.1-.43,2.46-.2-2.28-.35-.97-.61-2.91,0,.56.09,1.07-.14.79-.02.16-.04.37-.05.49l-.02-.04v.06c0,.09,0,.1.02.02.06.25.1.54.12.85-.11,1.29-.48,1.24-.6,1.91-.14-.26.06-.64-.02-1.24l-.19,1c-.02-1.24-.36-2.06-.04-2.79l-.29-.05c-.17-.7-.41-.98-.55-.45-.14-.27-.35,1.38-.23.4l-.45.77v-.31c-.45-.16-.93,2.06-1.44-.19-.15.31-.31.7-.56.34l-.05-1.07c-.19.37-.58-1.08-.67.04-.21-2.89-.94-.63-1.28-1.15v1.4c-.25-.08-.47.32-.76.88l.02,1.24c-.25,1.02-.65-.88-1.04-.75.03-.47.13-.35.2-.06-.47-2.8-1,2.04-1.43,0-.11.45-.18.3-.26-.01,0,0,.02-.03.03-.07-.01-.01-.03-.02-.04-.01-.05-.21-.1-.46-.15-.66.05.3.09.55.13.66-.08.03-.21.18-.33.49l-.05-1.33s-.02.01-.03.04c-.12-.49-.1.63-.03,1.63-.06.22-.12.48-.16.8-.1-2.15-.32.73-.46-1.57-.08,1.12-.62.84-.68,3.19,0-.31-.04-.45.03-.47-.14-.27-.27-.54-.4.13l-.06-1.69-.3,2.28c-.18-1.03-.26-1.63-.08-2.94-.44,2.01-.35.76-.73,2.74l.02-1.09c-.06.02-.15.37-.22.63l-3.39,3.39c.27.08.44.16-.03.2-1.04.15-1.11.51-1.17.94-.06.41-.05,1.2-.98,1.81,3.18-.53-1.39.68,1.12.44-.75.16-1.15.38-1.84.28.83.47-1.05,1.15,1.1,1.14-.73.23-1.13.1-1.55.25.17.02.7.06.27.22-.43.16-.65.05-1,.01.29.65,2.59.13,4.73-.38-.95.51-.76.64.67.4-.67.29-1.35.67-1.69.42-.08.2-.6,1.5,1.05.89-.4.21-.03.29.18.26.04.43-.06.52.26.82l.21-.22c2-.77.56.08.94.25l-.2.09c-1.01,1.39.78-.11-.37,1.41l1.11-.73c2.45-1.48-1.12,1.43.07,1.18l.53-.56c.9-.43-2.76,2.8-2.83,3.29-.16.21-.37.17-.57.21-.85,1.66,1.42-.99,2.06-.85-.65.68-1.92,1.43-1.79,1.83-.4.69,2.95-1.25,2.01.32.42-.6.86-1.17,1.41-1.41.39.01-1.09,2.7.63,1.18-.09.18-.2.34-.31.48.59-.28,1.32-.23,2.15-1.15-1.25,1.93-.55,1.75.09,1.43.64-.31,1.23-.72.19,1.12.28.09.57.14.85.19l-.21.38c.38.5.99-.34,1.54-1.2-.01.31-.24.64-.34.84.37,1.07.61.95,1.83-.84l-.36,1.33c.34-.73.54,2.39,1.69.99-.04.15-.1.41-.2.59.59-.72.93.3,1.37.89.43.57.89.69,1.15-1.79.2-.4.39-.8.56-1.21-.63-.42.13-2.16-.11-3,.19-.27.56,1.51.28,1.78l-.05-.25c-.12,2.61.8.89.86,2.66,1.34-.18,3,.95,4.47.61l-.77-1.87.46-.04c.27.4.69,1.43.33,1.47.56,1.02.23-1.11.06-1.51.91.53.6,2.29.8,2.27l.23-.25-.15-.2c-.08-.86-.39-1.66,0-1.73.39.26.63,1.08.76,1.11.06.13.12.18.17-.02l.65-.12-.94-1.32c-.12-.82.51-.16-.55-1.65,1.65,2.32,2.29-.18,2.91.38-.41-1.16-.14-1.31.26-1.48-.3-.18-1.48-1.53-1.11-1.57,2.35,2.87,1.52.8,3.62,2.48-1.43-1.04.45-1.13-1.68-2.52.42-.01,1.03.93,1.84,1.34-.58-1.48,1.84-.75,2.02-1.92-.41-.27-1.11-.54-1.62-1.09.77.3,1.55.58,2.34.83-.1-.31-2.35-1.54-.7-1.02-.39-.15-.96-.39-1.04-.57,1.46-.24,1.44-1.38,1.51-2.31.07-.98.3-1.73,2.64-2.44-.98.14-1.04-.06-1.05-.26-.24.1-1.19-.16-1.85-.22.64-.16,1.29-.35,1.91-.57-1.82-.28-.08-.87-1.82-1l.3.24c-2.05-.33-4.61.18-7.25-.09,1.16.17.3.26-.46.29-.76.05-1.39.04.25.45-.54-.03-.84-.19-1.45-.26,1.11.24,1.33.39.81.44l-.27-.07c.15.46-.95.38-1.79.42l1.24.43c-.2.03-.58-.11-.9-.19,1.81.84.19-.19,2.21.67-2.51-.84-.35.71-3.1-.57-.06.1,1.36.66,1.29.77l-.74-.36.91.54c-.21,0-1.12-.48-1.72-.83.08.03-.14-.14-.19-.18-.88-.42.16.36-.13.23l.48.18c.47.71-.59.33.42,1.68l.48.4c.61,1.03-.65-.28-.52.31l-.09-.12c.37.5.5.8.38.82-.41-.61-1.02-.97-1.46-1.65.56,1.13.52.81,1.72,2.79l-.66-.79c.48.8.76,1.2.73,1.56-.37-.83-.97-1.22-1.5-2.28-1.45-1.73.72,2.21-1.04-.55,1.22,2.58,1.03,1.21,1.26,1.79.56.74.93,1.92.65,1.76-.19.02-1.92-3.12-2.08-2.97.03,0-.06-.2-.04-.19-.37-.63.24.99-.33-.07.58,1.61-.16-.05.59,2.01l.08-.56c.1.57.8,3.04.08,1.99-.11-.43-.21-1.01-.27-1.34-.28-.59,0,.46-.29-.14-.65-2.1.16-.57-.31-2.18-.37-.85.33,1.57-.42-.69.9,2.88-.28-.29.23,1.94l-.34-1.27c.04.2.15.81.09.79l-.37-1.66c.26,1.43-.47-1.19-.35-.4.15-.09.37,1.54.68,2.44,0,1.82-.88-3.34-.95-2.68,0-.19.23.76.27,1.37-.1-.26-.23-.75-.33-1.42-.12.3.17,1.34.19,2.16-.23-1.59-.04.65-.14,1.17l-.09-1.33c-.29-.84.05,2.78-.28,1.77l.08-1.86-.12.49.02-1.52c-.1,1.13-.17.82-.25.39-.02.94-.13,2.42-.29,2.45-.04-.79.15-1.26-.05-1.08.13-.83.23-1.88.21-.65.04-.43.08-.84.12-1.26,0-.92-.13-.2-.18-.2.01.05.02.13.01.32-.12.61-.26,1.2-.44,1.8.03-.5.13-.9.2-1.28-.06.14-.18.74-.27.84.2-1.07.39-2.17.51-2.67-.1.39-.21.78-.34,1.17.07-.46.18-1.28.28-1.67.13-.64-.64,1.99-.55,1.16-.07.2-.14.4-.21.53-.06-.29.38-1.55-.3-.21l.72-1.81c-.26.36-.89,2.3-1.37,2.87-.42.49.66-1.52.86-2.03-.45.87-1.57,2.56-.9,1.1.22-.29.1-.03.2-.13ZM208.59,386.52c.23-.16.9-.71.34-.15-1.14,1.02-.63.49-.34.15ZM204.28,385c.44-.06.24.04-.23.23-.12-.02-.09-.09.23-.23ZM213.03,375.3s0,.04,0,.06c-.16-.52-.1-.31,0-.06ZM213.36,375.88c.03-.19.03-.37.02-.56-.02.34-.1.36-.18.27.02.35.07.59.17.29ZM219.2,398.09l-.23-.28c.03-.44.12-.1.23.28Z"/>
      <path class="st0" d="M206.15,384.94c-.22.07-.45.15-.69.22.22-.05.47-.12.69-.22Z"/>
      <polygon class="st0" points="211.32 386.48 211.32 386.5 211.39 386.27 211.32 386.48"/>
      <path class="st0" d="M208.2,387.2c-.07-.19-.11-.44-.13-.69,0,.33.03.6.13.69Z"/>
      <path class="st0" d="M215.12,373.61l-.21.35c.1-.07.14.23.19.44,0-.31-.05-.76.02-.79Z"/>
      <path class="st0" d="M216.98,381.88c.03-.16.07-.02.1-.18v-.62c-.14.04-.23.54-.1.81Z"/>
      <path class="st0" d="M215.32,378.05c.02,1.12.15.74.3.53,0,0-.02.01-.03,0,.04-1.57-.11-1.05-.27-.53Z"/>
      <path class="st0" d="M215.66,378.54c.05-.05.09-.08.14-.03.02-.63-.06-.13-.14.03Z"/>
      <path class="st0" d="M213.78,375.14c.07.29.04-1.44.08-.98.08-1.43-.47,1.73-.08.98Z"/>
      <polygon class="st0" points="215.44 381.75 215.39 380.36 215.3 381.48 215.44 381.75"/>
      <path class="st0" d="M214.26,380.73l.24.39c0-.23.03-.37.06-.47-.15-.05-.31-.32-.3.09Z"/>
      <path class="st0" d="M214.56,380.64c.08.03.15,0,.19-.23-.04.01-.13.06-.19.23Z"/>
      <polygon class="st0" points="215.12 382.17 215.05 381.88 214.88 381.77 215.12 382.17"/>
      <path class="st0" d="M211.7,380.46l-.26.4c-.03.47.04.76.14.58.06-.33.16-.52.12-.98Z"/>
      <path class="st0" d="M212.48,384.26c-.07-.29-.08-.6-.11-1.06v1.72s.11-.66.11-.66Z"/>
      <path class="st0" d="M211.72,384.66c-.03.48-.38,1.37-.05,1.26.03-.47.29-.87.05-1.26Z"/>
      <polygon class="st0" points="207.8 382.49 207.86 382.47 207.86 379.65 207.8 382.49"/>
      <path class="st0" d="M204.34,389.23c.31.67.07-1.74.35-.9.07-.67-.23-.69-.15-1.26-.19.7-.28.31-.2,2.16Z"/>
      <path class="st0" d="M204.54,387.07c.03-.11.06-.25.1-.43-.05.18-.08.31-.1.43Z"/>
      <polygon class="st0" points="230.19 384.02 230.79 383.72 229.84 383.89 230.19 384.02"/>
      <path class="st0" d="M228.13,383.38l1.8-.05-1.62-.19c.08.06.23.19-.18.24Z"/>
      <path class="st0" d="M211.22,384.04l-.34.27c-.36.3-.38.33-.42.39l.76-.66Z"/>
      <polygon class="st0" points="210.68 385.36 210.69 385.32 209.74 386.64 210.68 385.36"/>
      <path class="st0" d="M212.05,383.78c.03-.06-.14.26-.12.2.14-.26-.75,1.64.12-.2Z"/>
    </g>
    <g>
      <path class="st0" d="M190.52,373.42c-.6-.1-.39,1.05-.48,1.26l-8-8h0l8,8h0s0,0,0,0h.01s.02,0,.02,0h.04s.08-.05.08-.05c.05-.02.1-.05.14-.08.08-.06.14-.13.19-.21.09-.15.12-.33.11-.49-.01-.32-.14-.57-.13-.42Z"/>
      <polygon class="st0" points="200.52 370.79 200.34 371.26 201.81 370.1 200.52 370.79"/>
      <path class="st0" d="M209.87,370.81c-.88-1.98-3.39.32-5.05-.38l-.27-.45-.75,1.59c2.02-.25,4.65-1.31,6.08-.76Z"/>
      <path class="st0" d="M214.85,375.08c-.31-.77,1.08-.66-1.16-.24.11.08.15.13.21.19.2-.01.48,0,.95.05Z"/>
      <path class="st0" d="M213.9,375.04c-.99.06.64.65,0,0h0Z"/>
      <path class="st0" d="M218.45,374.59l-1.3.69c.27.45,1.43.56,1,.89,1.33-.38,1.06-.83.3-1.57Z"/>
      <path class="st0" d="M219.68,373.15l-.67.29c.12.19.3.26.67-.29Z"/>
      <path class="st0" d="M217.58,374.06l1.43-.61c-.19-.32-.21-.96-.65.22.12-.59-.17-.02-.77.39Z"/>
      <path class="st0" d="M216.77,373.76c-.73-.43-1.67-.7-.37-1.38-2.48.27-2.11,1.66.37,1.38Z"/>
      <path class="st0" d="M210.34,368.76l-.97-.58-.84.66c.42-.33,1.87.54,1.81-.08Z"/>
      <path class="st0" d="M226.53,375.62c.08-.42-.44-1.12-.53-1.66l-.96.48c.49.29,1.43.55,1.49,1.18Z"/>
      <path class="st0" d="M225.99,373.96l1.43-.72c-1.28-.09-1.51.26-1.43.72Z"/>
      <polygon class="st0" points="219.91 370.96 217.55 372.48 220.36 370.94 219.91 370.96"/>
      <polygon class="st0" points="232 375.67 231.19 376.64 232.63 375.17 232 375.67"/>
      <path class="st0" d="M236.19,375.43c-.93.86,1.43,1.28.44,1.84,1.65-.29,2.94-1.19,3.95-2.11-1.15.67-2.61.81-4.39.27Z"/>
      <path class="st0" d="M242.24,373.74c-.51.41-1.05.88-1.66,1.42.61-.36,1.2-.76,1.66-1.42Z"/>
      <path class="st0" d="M229.87,373.45c.11.25.32.92,1.13,1.2l-.56-1.18c-.17,0-.37-.01-.56-.02Z"/>
      <path class="st0" d="M230.41,373.43l.02.04c.61.03,1.04.06,1.22.07-.16-.01-.53-.04-1.24-.1Z"/>
      <path class="st0" d="M229.72,373.44c.05,0,.09,0,.14,0-.05-.12-.09-.16-.14,0Z"/>
      <path class="st0" d="M223.66,372.03c.84-.66,2.6-1.37.9-2.38-.6.81.37,1.38-.9,2.38Z"/>
      <path class="st0" d="M229.02,371.96l-1.52-.27c.03.31.3.77-.11,1.1l1.64-.83Z"/>
      <polygon class="st0" points="229.77 371.59 229.02 371.96 229.59 372.06 229.77 371.59"/>
      <path class="st0" d="M238.18,373.59c.87-.62,1.84-.94,2.94-1.32-1.26.12-2.51.28-3.7.43-.11.39-.59,1.14.76.89Z"/>
      <path class="st0" d="M233.84,373.56l.15-.07c-.09-.1-.16-.13-.15.07Z"/>
      <path class="st0" d="M250.68,366.35c-.09,0-.19-.01-.28-.02l.12.17.16-.16Z"/>
      <path class="st0" d="M237.19,372.51c-.92-.11-1.43.16-1.94.56.69-.17,1.4-.23,2.17-.37.05-.18.05-.29-.23-.19Z"/>
      <path class="st0" d="M245.15,371.92c-.57,0-1.17.07-1.79.12.58.16,1.76.23,1.79-.12Z"/>
      <path class="st0" d="M234.2,373.82s-.06.04-.1.05c.21.25.19.13.1-.05Z"/>
      <path class="st0" d="M234.2,373.82c.29-.16.66-.47,1.05-.75-.62.13-.95.24-1.27.42.08.08.16.21.22.33Z"/>
      <path class="st0" d="M246.61,359.36c.89.65.57,2.84-1.39,3.02-.53,1.56,2.39,3.86,5.18,3.94-.32-.38-.56-.69.2-2.61-.42.11-1.43.66-2.22.94-.83.25-1.46.2-1.26-.65,1.17-2.04,1.56-1.1,2.74-1.69-.85-.02-.76-.91-.84-1.86-.09-.97-.28-1.91-1.28-2.2-.09.58-.16,1.22-.32,1.82-.27-.16-.32-.92-.83-.72Z"/>
      <path class="st0" d="M247.29,368.86c-.21.21-.41.42-.64.61.93-.41,1.76-.44,3.37-.7.8-1.43.69-1.93.5-2.26-1.04,1-2.18,1.89-3.38,2.67l.15-.31Z"/>
      <path class="st0" d="M243.2,371.33c.19-1.4,1.62-2.67,0-3.31-1.96,1.04-1.03,1.54-2.18,2.54,3.55-1.62-.86,1.04,2.1.65-.68.47-1.35.79-2,1.06.76-.1,1.5-.19,2.24-.23-.05-.01-.08-.02-.12-.03h-.02s0,0,0,0c-.23-.07-.32-.14-.09-.13,0-.02.05-.04.07-.05-.04-.16-.02-.32,0-.48,1.19-.29.31.21,0,.48,0,.06,0,.12.02.18h.02c1.23-.75,2.37-1.59,3.4-2.53-.83.33-1.72.94-3.45,1.86Z"/>
      <path class="st0" d="M226.13,367.09c.09.11.09.19.09.28.19-.15.26-.25-.09-.28Z"/>
      <path class="st0" d="M227.34,367.81c-.21.17-.39.64-1.09.52-.6-.36,0-.57-.03-.96-.42.32-1.46.86-.15,1.44l.21-.16c1.18.41,2.7,1.9,2.5,2.06-.35-1.07-.65-1.84-1.44-2.89Z"/>
      <path class="st0" d="M234.19,370.13c.8-.21,1.92-.42,2.81-.75-.53-.25-1.04-.59-1.52-.91l.1.62c-1.62-.16-1.17.55-1.39,1.04Z"/>
      <path class="st0" d="M251.38,366.45l.59,1.22c.05-.95.1-1.83.04-2.74-.16.53-.41,1.01-.63,1.52Z"/>
      <path class="st0" d="M254.02,362.67l.85.72c.03-.48.06-.94.06-1.41-.29.25-.61.47-.91.7Z"/>
      <path class="st0" d="M217.09,312c.41.22.79.48,1.17.75-.5-.42-.87-.64-1.17-.75Z"/>
      <path class="st0" d="M208.31,308.16l-.26.53c.45-.28.66-.48.26-.53Z"/>
      <path class="st0" d="M225.82,302.96c-1.09-.92-2.29-2.44-2.08-1.21l.39,1.17c.68-.26,1.21-.18,1.69.04Z"/>
      <polygon class="st0" points="174.73 305.61 175.09 305.3 174.1 304.69 174.55 304.35 174.69 304.23 174.58 304.27 173.9 304.54 174.02 304.69 174.73 305.61"/>
      <path class="st0" d="M179.7,306.35l-.77,1.38c.27-.31.53-.75.77-1.38Z"/>
      <path class="st0" d="M197.07,337.7l-.84,1.22c1.31,0,.73-.62.84-1.22Z"/>
      <path class="st0" d="M256.79,326.92c.47-.9.67-1.62.72-2.25-.69,1.09-1.72,1.97-.72,2.25Z"/>
      <path class="st0" d="M208.09,321.1c.17-.16.34-.33.48-.56-.22.1-.36.29-.48.56Z"/>
      <path class="st0" d="M257.51,322.06c-.12.16-.18.31-.28.48.2.66.36,1.32.29,2.13.51-.8.83-1.72,0-2.61Z"/>
      <path class="st0" d="M195.42,363.47c-.07-.05-.16-.08-.23-.14-.02.16.08.17.23.14Z"/>
      <path class="st0" d="M178.96,368.73c-.37-.16-.93-.49-1.41-.86.18.25.6.54,1.41.86Z"/>
      <path class="st0" d="M257.75,346.69c.08.67.13.11,0,0h0Z"/>
      <path class="st0" d="M253.01,349.96c-.14-.14-.31-.25-.58-.27.29.06.47.15.58.27Z"/>
      <path class="st0" d="M250.03,315.41v-.06c-.23.27-.19.22,0,.06Z"/>
      <path class="st0" d="M257.21,347.7c.15-.25.27-.54.36-.86-.09.14-.21.4-.36.86Z"/>
      <path class="st0" d="M257.78,347.56c-.05.24-.08.42-.12.59.2.09.33.01.12-.59Z"/>
      <path class="st0" d="M257.69,345.75c.02.39-.04.74-.13,1.09.08-.13.15-.19.19-.15-.01-.2-.03-.48-.06-.94Z"/>
      <path class="st0" d="M187.98,337.9s.1.06.14.11c.68-.5.38-.42-.14-.11Z"/>
      <path class="st0" d="M208.7,315.87s.05-.04.08-.06l-.1-.05.02.1Z"/>
      <path class="st0" d="M206.14,316.65c1.15-1.44,1.74-1.23,2.54-.88l-.69-3.5-1.85,4.38Z"/>
      <path class="st0" d="M217.19,333c1.05-.46,2.06-1.08,3.03-1.82-.48,2.27-1.83,3.84-2.43,4.6-.61.76-.47,1,1.5.39-.95-1.63,1.69-4.04,2.98-7.41,1.41-3.33,1.18-7.01-.75-7.05.25-.7.41-1.45.54-2.22.07.63.3.7.35,1.33.62-2.31-.41-3.07-1.49-3.61-1.15-.58-2.32-1.03-3.54-3.04-.83-1.44-1.53-2.63-.29-2.16-1.2-.71-2.48-1.19-3.75-1.48-.97-.54-.49-1.04.54-.46-1.85-.85-3.89-1.28-5.87-1.26l.05-.11c-.55.27-.89.65-1.28,1-.39.35-.79.67-1.06.87-.85-.54.42-.4.21-.87l-1.84.91c-.75-.97.78-1.92,2.05-1.78-1.72-3.75-1.53.95-5.24-1.25l1.74-.48c-1.12-2.13-2.48-1.36-4.44-2.69.47.69,3.94,3.35,1.94,4.29-.56-.28-1.31-.42-2.38.34-.01-1.34-1.06-1.01-2.38-.93l.09-1.77c-1.42.51-1.31,1.41-2.15,2.21-1.59-.17-1.92-1.55-2.29-2.7-2.54-.28,1.76,2.2-1.25,2.53-2.11-.68-3.6.05-6.13,1.11-1.48-.61.26-1.08-.27-1.59l-1.31,1.41c-.32-.03-.22-.47-.16-.69-1.11.55-.09,1.77-1.83,2.25-.46,1.91-3.45-2.67-5.59-.75l4.67,4.67-.12-.12c.5-.53,1.09.26,1.77.09-1.45-2.95-1.06-2.53-3.01-4.95l1.16-2.06c-1.33,1.52-2.9-.42-4.19-2.12-.64.54-1.2,1-1.47,1.31l-.78-2.22-.6-1.7,3.13-.2.51-.03c.23.37-.2.88-.83,1.46.22-.09.43-.18.59-.27.74.89-.01,1.74-.97,2.5l-.24-.48,1.71-1.28-.69.61c1.08.67,2.27,1.29,3.3,1.16-.2-.18-.38-.51-.48-.89.29.17.55.29.73.21.19-.09-.21-.37-.66-.82l.86-.27-5.64,4.22.03,1.17.37-.71,3.22,2.17c3.07-1.26,5.92-3.55,10.02-3.56-1.27,1.23-.68,2.28-1.06,3.95-.74-2-3.3.11-5.33-.75,1.05.44.63,1.18.28,1.39,1.39-.24,2.76-.5,4.12-.78-.37,1.36.59,1.2,1.47,1.96-.22-2.85,3.16-1.27,4.83-1.88-.05.94-.58,1.82-2.42,1.27,1.75,2.43,3.2-2.76,4.95-.71-.46-.04-.69-.22-.94.22,1.19-.66,3.71.34,2.99,1.06l-.46-.04c3.02.78,9.38.97,9.96-1.39.01.31-.58,2.81-.8,3.27,2.02-2.51,3.94-5.07,5.76-7.66-.54,2.01,1.2,6.87-1.41,7.94.73.3,1.65.68,3.22-.01-.51-.29-1.2-2.94-.51-3.11,1.83,2.26,1.27,1.24,3.6,3.14-.76-.43.06-3.6,1.22-3.51-.18.48.15,3.13-.28,3.46l2.87-3.18c-.71.59-.05,2.64.66,3.49-.33-.59,2.58-.05,3.36-.42l-1.3-.65c3.39.27,2.99-4.57,6.2-4.69-.32.67-.6,4.04,1.12,4.26.64-1.67,2.51-7.97,5.02-9.59l.66.82,1.93-1.36c-.86,2.59-3.92,8.15-5.88,10.34,1.33.57.48,1.03,2.35.71.78.76-.86,1.41-1.42,1.53l4.5-.05c-.5-1.8,3.15-2.39,2.54-3.87-1.28.88-2.88,1.78-4.34,2.63-.23-.91.28-2.31,1.2-3.5.85-1.19,2.41-2.23,3.54-2.27.57.65-.21,3.4,0,3.99.05-.65,1.48-1.52,1.56-1.07-.28.39-.53.77-.73,1.15.32.29.66-.4,1.17-.99.47-.58,1.14-1.08,1.21-.21.39.03-.58,2.54.17,1.26,1.15-2.37,4.32-9.71,6.5-12,.24.06,2.22.86,2.4,1.87.01.08.02.16.03.23,0,.09-.1.29-.15.41-.12.27-.23.51-.32.71-.58,1.1-1.23,1.75-1.89,2.34-.66.58-1.3,1.06-2.16,2.01-.67.7-1.17,1.33-1.44,1.82l-.04.06c.23-.27.71-.79.92-.93.25-.18.45-.28.55-.31-.43.97-1.57,1.67-1.35,2.29,1.89-1.82-.16,2.16,1.6-1.17.54.61-.39,1.51-.31,2.63.61-.6,1.65-1.07,2.6-1.01.95.04,1.82.64,2.09,1.41-.48.08-1.1.68-1.39.93-.17,3.16-1.03,4.75-1.04,7.75-.46.27-1.01,1.69-1.82,1.09.33.42.97.81,1.02,1.72-1.63,1.76-.25-2.03-2.21-.69,1.1.11,1.51,2.35,2.2,3.65,1.69-.4.32-2.99-.36-4.29,2.34,0,4.78,2.25,5.86,5.33.58,2.45-1.51,1.06-1.18,1.49-.41,4.6,4.08,3.92,2.39,7.74-1.49,1.51-2.96.07-4.03.4-.56-1.99.94-3.06.89-4.41l-.7,1.66c-.49-.63-.87-1.96-.44-2.69-1.34,1.27-.26,7.77-1.49,11.32.5.63,1.01,1.72,1.61,1.2l-.21-1.12c1.2-1.03,1.66,2.11,2.22.69.83,1.56,2.19,3.08,1.47,5.43l-1.72.41c.25-.01.52-.4.67-.9.13-.45.13-.91-.13-1.21.38.43-.19,1.24-.64,2.21-.4.93-.82,1.75.2,2.53.48-.5.96-1.03,1.43-1.61.67,1.88,1.78,5.01.13,7.22,2.05-.43.09-.55,2.6-1.7-1.43.39-.79-1.22-.45-2.77.33-1.57.47-2.99-.97-1.88,1.29-.76,1.53-1.63,1.78-2.54.23-.86.36-1.4,1.34-2.34-.56.06-1.07.64-.79-.94-.16-.07-.37-.24-.49-.35.02-.05.03-.06.04-.11l-.07.09c-.08-.07-.1-.07-.02.03-.24.38-.54.68-.85.8-1.29-.78-1.24-3.29-1.91-4.14.27-.94.64.39,1.24-.12l-1-1.27c1.24-.13,2.06-2.49,2.79-.28l.05-1.98c.7-1.17.98-2.78.45-3.77.27-.94-1.38-2.36-.4-1.55l-.77-3.11.31-.03c.16-3.07-2.06-6.32.19-9.83-.31-1.08-.7-2-.34-3.94l1.08-.6c-.19-1.13.08-2.86.26-4.49.18-1.63.26-3.12-.3-3.35,1.39-1.83,1.59-4.89,1.48-7.85-.13-2.97-.48-5.83-.43-8.06-.17.03-.33.05-.48.08l-1.55,1.85c-2.61.6-5.64,1.8-9.14,3.26l-.42,1.39c-1.54.91-2.97,1.02-4.76,1.11-1.74.03-3.87.04-5.95.45.2-.51,1.31-.58,2.09-.44-.65-.23-1.33-.34-2.01-.37-.58-.04-.86-.04-1.29.04-.78.15-1.53.56-2.28.97-1.49.83-2.98,1.72-4.5.86-.65.52-1.18.43-1.7.16.06,0,.12-.04.17-.08-.07,0-.18,0-.29.01-.33-.18-.67-.4-1.03-.57.32.27.62.49.88.59-.54.07-1.34.31-2.12.68l-.44-1.3c-.06.02-.11.03-.18.05-.82-.43-.59.68-.09,1.64-.39.25-.75.54-1.02.88-.77-2.11-2.1.86-3.09-1.41-.49,1.15-4.02.98-4.44,3.31-.03-.31-.27-.45.17-.47-.92-.26-1.83-.52-2.65.13l-.37-1.7-2.04,2.24c-1.2-1.06-1.66-1.68-.43-2.95-2.95,1.9-2.35.68-4.93,2.51l.19-1.09c-.88,0-2.41,1.34-2.87.39-1.76-2.19-9.72-1.29-14.3-4.25.32,3.36-1.99-1.88-2.69.52-.13-.8-.71-1.37.22-1.85-2.66.18-3.41-2.03-5.64-.43-.09-.82.81-.94.67-1.45-.24.11-.95.44-1.08-.07-.13-.5.52-.52.99-.74-2.5-.53-3.4,1.63-4.19,3.71-.3-.41-.56-.69-.82-.87l-3.08-2.09-1.8,5.74c-.24.75.14,1.3,1.16,2-.72.48-1.48,1.28-1.74-.41-.11.95-1.06,5.8.71,5.9-.45.3-.13,1.33.07,1.58-.02.49-.05.87-.08,1.01l-.6,3.39,4.27.28c1.3.09,1.78.15,3.4.02l-.58-.29c.83-2.13,1.74-.48,3.43-.73l-.05.22c3.87,1.54,1.67-.74,5.49,1.02l-.21-1.33c.36-2.86,3.38,1.68,5.6.59l-.8-.76c1.21-.98,3.38,3.88,4.6,4.24.26.25-.42.4-.79.58,3.18,1.68.41-1.74,2.78-2.14.44.94-.56,2.39,1.03,2.56.79.76,4.63-3.04,6.8-1.25-.48-.72-.96-1.44.15-1.99.42-.06.92.07,1.45.28.24.11.6.22.75.35.09.14.17.24.24.37.28.49.25.67,1.05-.2-.04.21-.12.38-.21.54.64-.36,1.67.22,2.93.29-2.04,1.11-1.39,1.26-.96,2.24.46.89.23,2.21-1.33.74-.21.36-.53.68-.92.89l-.12-.42c-.41-.01-.43.16-.87.52-.65.34-1.1.85-1.55,1.36-.59-.29-.16-.68-.11-.9-3.71-.85-4.07-.67-7.18,1.43l-.32-1.37c-.84.8-5.36-2.15-8.99-.55.04-.16.11-.42.4-.61-2.22.8-3.86-.15-7.92-.67-3.48-.53-6.83-.63-6.26,1.86-1.01.41-1.93.82-2.73,1.23,2.46.19,2.63.74,2.64,1.33-.01.6-.11,1.25.98,1.66-.56.14-1.74-.21-2.74-.65-.41.15-.89,0-1.07-1.07,0-.02.08-.04.16-.05l.55.25c-.45-.66-1.05-1.05-1.8-1.29-.69,1.16-.09,5.89-1.41,5.31.05,4.7-.14,9.3-.39,14.32,2.91.22,5.8.43,8.65.64,1.52.09,3.03.17,4.53.26,1.28.04,2.55.09,3.81.13l-.74-2.02,2.24.12c.59.47.79,1.58-.81,1.5.84,1.15,2.69-.96,2.73-1.4,3.14.82-1.23,2.36-.26,2.41l1.31-.15-.29-.24c1.06-.83,1.15-1.7,3.08-1.6,1.22.41.63,1.25,1.1,1.33,0,.14.16.21.74.06l2.83.17-1.13-1.6c1.25-.79,2.66.08,1.35-1.73.96,1.4,3.59,1.65,6.14,1.66.64,0,1.27-.02,1.86-.02.28,0,.54,0,.8-.01.12.01.24,0,.34.01.43.04.71.23.73.46,1.12-.81,2.15.01,2.45,1.07.17-.35,1.68-1.56,2.01-.08-1.83.36-2.05.95-2.29,1.44-.22.5-.51,1.12-1.83.8.89.12.91.51.82,1.02-.05.45-.34,1.07.95,1.59-.84.36-1.02-.92-1.91-1.33-.01.46-.3.74-.65.81-.17.04-.36.03-.55-.03-.03-.02-.28-.05-.57-.09l-.8-.12c-2.13-.35-4.38-.82-6.65-.58-.07.49.69,1.23-.28,1.96l-2.4-2.43c-.9.24-.83,2.81-2.47,1.12.23.41.58,1.03-.03,1.18-6.19-1.65-12.56-.07-18.91-.44l-6.19-.37,2.12,6.28c1.15,3.4,2.75,6.61,4.91,10.11-.69-1.84.21-1.11,1.23-.41-.51-.67.74-.94,1.01-1.57.86,1.41,1.94,2.8,3.27,4.01.79-.65,1.99-.21,3.22.08,1.22.3,2.43.45,2.77-.41-.5.06-1,.09-1.51.08,1.16-.83.61-2.1.17-3.44-.47-1.37-.8-2.83-.26-4.06-1.05.89-1.72-.34-2.15-1.47-.49-1.18-.73-2.15-2.7-1.78.06-.71.9-.3,1.17-.91-1.17.45-1.87,0-2.11-1.3l.31-.04c-.56-.69-.82-1.42-1.01-2.07l-4.22,6.13c2.71.25,4.81,1,8.66,1.55l-.39-1.31c1.13.18,1.36.59,1.89.91,1.29-1.99-3.17-.11-1.99-2.3,1.49,2.67,7.95.04,8.96,3.07,1.73.02-.51-1.52,1.22-1.5l.46.82.44-1.06c1.14.17,1.71,1.2,1.75,1.89-.28-.08-.78.19-1.08.25,1.47.97,4.16-.33,4.66-.01l-1.67-.51c2.37-.38,4.99-.31,7.6-.34l.98-.02.49-.02.86-.06c1.14-.1,2.27-.38,3.3-.79,2.07-.84,3.78-2.27,4.79-3.92-.28,0-.56-.03-.84-.05,1.53-2.32,1.95-3.2,2.7-4.15.59-.95,1.56-2.18,1.18-5.26l.16.21c-.66-1.21-1.24-2.63-1.83-4.1.63.53.7-.23.7-1.02.02-.77-.05-1.56.88-.78-2.27-2.59-3.2-2.68-3.78-2.8-.6,0-1.17.07-3.24.19-.07-.42-.17-.84-.29-1.28-1.53.44-1.73.67-4.19.71,1.03-.38.73-.79.34-1.24-.36-.44-.82-.95.65-1.42-.39-.19-.79-.31-1.18-.42-.27-.08-.53-.15-.78-.22-.44-.1-.85-.12-1.24-.09-.78.06-1.45.31-2.06.53-1.22.44-2.17.74-3.09-.9-1.84,2.84,3.48,1.58,2.44,2.19.86.93-1.52,2.12-2.78,1.84-1.28-.06-2.18-3.63-5.41-3.58.32.01.34-.2.66-.19-1.21-.72-2.37.98-3.85-.2-.83,1.72-1.92-.1-2.16,2.09l2.96-.51c-1.68.57-3.25,3.14-6.02,1.89.22-.44,1.04-1.02,1.6-1.35-.81-.65-1.56.43-2.39-.24.24-2.19,3.6-.48,5.4-2.15-.87-.93-3.4,1.59-2.5-.79-1.2,3.02-3.58-.38-4.44,1.92l.31-1.31c-.17.21-.66.83-.98.79.38-.57.7-1.14.95-1.7-.48.73-.79.41-.87,0-.11-.4,0-.88-.5-.49.51-.02.37.38.09.9-.28.52-.81,1.17-.66,1.64-2.93,1.46-.4-1.86-.19-2.68.17-.01.23.19.12.56.09-.18-.1-.27-.4-.11-.3.14-.69.55-1,.88.27-.17.77-.29,1.46-.36-.14.64-.47.59-.88.62-.4,0-.88.19-1.28.32.8-.22.64-.05.21-.03-.43.04-1.12-.05-1.37-.28l1.34.3c.86.52-2.78-1.43-1.75-1.63.62.73,1.23,1.31,1.85,1.74-.15-.09-.29-.22-.44-.39l.03-.04.51.58.94.89c-.06-.04-.11-.07-.15-.1-.3-.95.39-.67,1.28-.26-.78-.94-1.42-2.42-.37-2.47.97.79.21,1.27,1.33,1.08-.07.84.22,1.88-.76.65.16.44.2.84.4,1.27.82.91.97.21,1.29.2-.11-.05-.24-.12-.36-.31.11-.31.27-.62.47-.93.21-.31.38-.62,1.07-.92.53.5.11.9-.31,1.3.68-.14,1.16-.76,2.16-.87-.26,1.09-.2,2.21-1.62,2.72l3.21-1.2c.21.47,1.65,1.3,1.23,1.7,1.78.64,4.37-2.11,6.73-1.26.12-.21.37-.41.87-.57,2.22.25,4.19,1.58,6.82.09l1.49,1.95c1.03-.22.53-.83.19-1.48-.17-.32-.29-.66-.16-.96.07-.15.2-.29.42-.41.11-.06.24-.12.4-.18.13-.05.34-.1.77-.17,2.11-.44,2.54-.26,2.74.3.19.53,0,1.31.93,1.35,1.09-.81,2.35-2.09,3.57-3.43,1.25-1.35,2.49-2.66,4.27-3.99-.46,1.38-1.41,2.07-2.28,3.05ZM200.17,308.72c.49-.28,1.47-1.14,1.83-.36-.56,1.53-.99.8-1.83.36ZM176.42,308.2c-.48.33-.98-.04-1.47-.71.48.02.98.23,1.47.71ZM256.67,339.3s-.04-.04-.06-.05c.52-1.1.31-.71.06.05ZM256.09,341.58c.19.23.37.21.56.12-.34-.16-.36-.67-.27-1.25-.35.16-.59.46-.29,1.14ZM195.18,346.89l-.44-.35c1-.38.72-.04.44.35Z"/>
      <path class="st0" d="M179.12,306.25c-.23.14-.47.18-.73.21.22.19.48.2.73-.21Z"/>
      <path class="st0" d="M197.23,337.47h-.08c-.04.06-.06.15-.08.23l.15-.23Z"/>
      <path class="st0" d="M244.77,312.69c.21-.47.45-.91.55-1.14-.34.42-.4.6-.55,1.14Z"/>
      <path class="st0" d="M258.02,354.98c0-.75.01-1.49-.09-2.23.02,1.06-.39,1.41-.66,1.89.31,0,.83-.35.74.34Z"/>
      <path class="st0" d="M243.26,363.92c-.09.25-.37.25-.47.5l.38.5c.82-.51.98-1.36.09-1Z"/>
      <path class="st0" d="M253.3,355.89c-1.11-.13-1.01.99-1.28,2.22.02-.07.04-.14.08-.21,1.29.94,1.42-.57,1.21-2.01Z"/>
      <path class="st0" d="M251.95,358.4c-.11.36-.26.73-.47,1.04.5.41.33-.37.47-1.04Z"/>
      <path class="st0" d="M256.83,344.47c-.29.49,1.44.3.98.58,1.43.54-1.73-3.24-.98-.58Z"/>
      <polygon class="st0" points="249.5 355.77 250.93 355.81 250 354.93 249.5 355.77"/>
      <path class="st0" d="M251.24,347.76l-.38,1.64c.23-.03.37.18.47.44.05-1.01.32-2.11-.09-2.07Z"/>
      <path class="st0" d="M251.33,349.84c-.03.53,0,1.02.23,1.32,0-.29-.06-.9-.23-1.32Z"/>
      <path class="st0" d="M249.59,353.53l.36-.43c.11-.37.15-.75.2-1.13-.14.54-.34,1.06-.56,1.56Z"/>
      <path class="st0" d="M251.51,330.19l-.4-1.79c-.48-.18-.77.3-.58.97.33.43.52,1.09.98.82Z"/>
      <path class="st0" d="M247.71,335.59c.29-.48.6-.51,1.05-.79l-1.72-.05.66.84Z"/>
      <path class="st0" d="M247.31,330.38c-.48-.18-1.37-2.59-1.26-.33.47.18.87,1.97,1.26.33Z"/>
      <polygon class="st0" points="247.58 307.01 248 306.88 250.42 303.38 247.58 307.01"/>
      <path class="st0" d="M225.39,317.42c2.28.5.38-1.77,2.45-1.11.45-.71-1.69-.54-1.21-1.16-1.26.82-2,.46-1.24,2.27Z"/>
      <path class="st0" d="M226.63,315.15c.2-.13.41-.29.63-.49-.36.21-.53.36-.63.49Z"/>
      <path class="st0" d="M184.71,372.81c.59.34,1.2.66,1.83.96-.38-.38-.74-.78-1.08-1.17-.25.07-.5.15-.75.2Z"/>
      <path class="st0" d="M188.56,371.31l.32,1.81c.41-.52.8-1.05,1.15-1.59-.4.07-1.2.19-1.48-.23Z"/>
      <path class="st0" d="M196.39,305.1l-.1.43c.21.47.53.5,1.17.58l-1.06-1.01Z"/>
      <path class="st0" d="M220.62,313.44l-.36-.56c-.18.65-.41,1.28-.68,1.89.36-.43.7-.87,1.04-1.33Z"/>
      <path class="st0" d="M209.43,340.15c1.52-.11,3.16-.86,4.56-1.36-3.08,1.46-5.2-.66-4.56,1.36Z"/>
    </g>
    <g>
      <path class="st0" d="M215.69,301.96c-2.19,0-1.4,1.13-1.73,1.35,3.7-.44,1.63-1.65,1.73-1.35Z"/>
      <path class="st0" d="M250.64,294.02l-.48.61c1.61-.75,3.13-1.71,4.63-2.69-1.36.73-2.71,1.54-4.15,2.08Z"/>
      <path class="st0" d="M280.85,280.5c-1.88-.08-4.29,1.7-7.16,3.4-2.89,1.66-6.06,3.63-8.86,4.59h-1.05s-1.9,2.4-1.9,2.4c6.64-2.94,14.49-8.07,18.97-10.4Z"/>
      <path class="st0" d="M298.04,273.67c-1.39.08,2.74-2.88-3.56,2.37.38-.18.51-.21.74-.31.58-.45,1.4-1.06,2.82-2.06Z"/>
      <path class="st0" d="M295.22,275.73c-2.86,2.21,2.29-.91,0,0h0Z"/>
      <path class="st0" d="M307.49,264.5l-3.03,3.7c1.04-.33,4.26-3.13,3.32-1.83,3.22-3.74,2.09-3.38-.29-1.86Z"/>
      <path class="st0" d="M309.49,260.21l-1.43,2c.42-.18.91-.62,1.43-2Z"/>
      <path class="st0" d="M304.78,266.25c1.13-1.32,2.31-2.58,3.28-4.04-.71.26-1.15-.09-1.48,1.87-.1-.7-.45.38-1.8,2.17Z"/>
      <path class="st0" d="M302.41,268c-2.25,1.46-4.92,3.52-1.9-.14-1.6,1.55-2.69,2.72-3.33,3.52-.67.75-.88,1.12-.64,1.16.53.14,2.63-1.39,5.87-4.53Z"/>
      <path class="st0" d="M281.21,277.89l-3.2,1.27-2.18,2.1c1.09-1.04,5.88-2.95,5.38-3.37Z"/>
      <path class="st0" d="M326.71,242.01c-.2-.48-1.78.76-2.41.77-.45,1.09-.95,2.16-1.54,3.17,1.41-1.21,3.25-4.09,3.95-3.93Z"/>
      <path class="st0" d="M324.3,242.78l2.09-4.82c-2.48,3.91-2.63,4.82-2.09,4.82Z"/>
      <path class="st0" d="M308.44,258.1c-1.49,2.42-3,4.87-4.81,7.06,2.23-2.54,4.01-5.49,5.88-8.27l-1.07,1.21Z"/>
      <path class="st0" d="M336.29,224.28l-.42,3.11c.31-1.83.7-3.61.93-5.43-.1.8-.34,1.54-.51,2.32Z"/>
      <path class="st0" d="M340.9,211.73c0,2.35,2.34-2.46,2.01-.09.94-3.56.96-6.82,1.08-9.67-.46,2.94-1.16,6.09-3.09,9.76Z"/>
      <path class="st0" d="M344.25,197.23c-.14,1.48-.21,3.03-.26,4.74.2-1.58.35-3.14.26-4.74Z"/>
      <path class="st0" d="M330.9,230.35c.4-.25,1.33-.64,2.86-3.17l-1.96,1.34c-.28.56-.59,1.19-.91,1.83Z"/>
      <path class="st0" d="M331.74,228.56l.06-.05c.99-1.99,1.68-3.36,1.98-3.95-.26.5-.87,1.71-2.04,4Z"/>
      <path class="st0" d="M330.67,230.81c.08-.17.15-.29.23-.46-.19.12-.28.21-.23.46Z"/>
      <path class="st0" d="M317.84,248.5c1.29-2.83,4.41-8.19,0-3.96-.63,2.19,1.92-.26,0,3.96Z"/>
      <path class="st0" d="M328.26,232.39l-3.05,4.53c.32.07,1.23-.54.73.91l2.32-5.44Z"/>
      <polygon class="st0" points="329.09 229.81 328.26 232.39 329.23 230.61 329.09 229.81"/>
      <path class="st0" d="M340.82,206.2c.1-2.45.71-4.98,1.36-7.85-1.01,3.01-1.94,6.12-2.71,9.11.25.52.54,2.04,1.35-1.26Z"/>
      <path class="st0" d="M336.82,217.25c.04-.16.09-.37.12-.52-.21.27-.33.5-.12.52Z"/>
      <path class="st0" d="M345.14,169.62c-.07.16-.13.3-.19.46.07.04.14.06.21.11l-.02-.57Z"/>
      <path class="st0" d="M339.13,207.91c-.73,2.24-1.15,3.58-1.2,4.99.49-1.7,1.12-3.46,1.55-5.43-.11-.24-.21-.3-.34.45Z"/>
      <path class="st0" d="M344.95,189.06c-.43,1.2-.85,2.56-1.27,3.98.55-1.13,1.51-3.5,1.27-3.98Z"/>
      <path class="st0" d="M337.52,216.09c-.03.12-.05.23-.07.35.51-.64.36-.6.07-.35Z"/>
      <path class="st0" d="M337.52,216.09c.26-1.21.32-2.21.4-3.2-.41,1.38-.75,2.68-.98,3.83.18-.25.4-.48.58-.64Z"/>
      <path class="st0" d="M337.13,161.42c.56.15,1.16,1.69,1.52,3.85.28,2.16.63,4.94-.22,7.48.54,5.03,4.39,1.98,6.52-2.67-.49-.16-.93-.18-1.84-5.52-.25.95-.45,3.93-.75,6.09-.51,2.16-1.02,3.49-1.41,1.26-.66-6.96.17-5.71.63-9.16-.61,1.49-1.22-.72-1.91-3.04-.59-2.34-1.83-4.73-2.66-3.87.62,1.93.88,3.91,1.23,5.9-.31.13-.91-1.99-1.11-.31Z"/>
      <path class="st0" d="M344.38,180.41l.02,2.24c.33-2.53.86-4.32,1.88-7.68-.35-3.77-.71-4.54-1.12-4.79-.14,3.67-.44,7.34-.66,11l-.12-.78Z"/>
      <path class="st0" d="M343.02,192.6c-.91-1.94-.62-7.22-2.38-4.2-.9,6.35.32,4.61.2,8.54,1.35-10.41.2,3.12,2.04-4.28-.17,2.08-.22,3.98-.69,5.69.68-1.81.96-3.63,1.5-5.3-.04.09-.07.15-.11.23v.05s-.02-.01-.02-.01c-.22.43-.33.56-.16.06,0-.04,0-.17,0-.22-.15-.1-.26-.32-.37-.55.71-2.99.38-.43.37.55.05.04.09.14.16.16,0,0,.01-.02.02-.04.27-3.56.78-7.07.82-10.62-.24,2.23-.81,4.99-1.37,9.95Z"/>
      <path class="st0" d="M318.8,238.6c.25-.21.32-.15.4-.13.22-.64.26-.91-.4.13Z"/>
      <path class="st0" d="M321.58,235.42c-.24.72-.16,1.5-1.52,3.5-1.39,1.59-.47-.32-.86-.44-.48,1.4-1.94,4.82.93,1.23l.24-.71c2.48-3.28,6.56-7.14,6.33-6.45-1.57.53-2.8,1.07-5.12,2.86Z"/>
      <path class="st0" d="M334.05,214.86l1.21-4.15.6-2.07.41-2.12-1.05,1.96-1.24,1.89h.66c-1.91,4.48-.83,3.75-.59,4.49Z"/>
      <polygon class="st0" points="345.68 168.6 347 169.76 344.97 164.67 345.68 168.6"/>
      <path class="st0" d="M344.93,157.08l1.13.32c-.31-1-.73-1.98-1.09-2.96l-.04,2.64Z"/>
      <path class="st0" d="M161.6,222.17l-.84-2.34c.35,1.12.61,1.83.84,2.34Z"/>
      <path class="st0" d="M165.42,239.64l.62.31c-.47-.74-.76-1.03-.62-.31Z"/>
      <path class="st0" d="M130.68,68.9c-3.5,1.68-7.74,3.47-6.57,4.04l1.68.1c1.83-1.93,3.4-3.25,4.89-4.14Z"/>
      <path class="st0" d="M110.62,239.8c-.12-.33-.18-.72-.26-1.08-.8-.52-1.55-1.01-2.23-1.45.76.76,1.58,1.65,2.49,2.53Z"/>
      <path class="st0" d="M116.18,238.99l2.06,4.14c-.39-.99-1.05-2.34-2.06-4.14Z"/>
      <path class="st0" d="M196.27,145.75c1.44-.85,3.04-1.47,4.74-1.84-3.98.04-4.98.89-5.11,1.08-.13.28.6.38.37.76Z"/>
      <path class="st0" d="M284.64,60.25c-2.54-2.1-4.68-3.63-6.62-4.87,3.06,2.66,5.19,5.17,6.62,4.87Z"/>
      <path class="st0" d="M175.57,226.26c-.54-1.43-.92-2.01-1.17-1.9.54,1.47.96,2.28,1.17,1.9Z"/>
      <path class="st0" d="M269.54,51.13c.47.36.96.66,1.44,1.01,2.22.91,4.57,1.66,7.04,3.24-2.25-1.95-5.25-3.55-8.48-4.25Z"/>
      <path class="st0" d="M184.32,188.27c-.14-.05-.31-.1-.44-.14.14.16.28.17.44.14Z"/>
      <path class="st0" d="M191.36,280.36c-.29-.97-.66-2.59-1.01-4.12.09.76.37,2.01,1.01,4.12Z"/>
      <path class="st0" d="M332.5,112.49c1.14,2.18.29.29,0,0h0Z"/>
      <path class="st0" d="M332.86,125.13c-.3-.42-.59-.72-.87-.67.34.08.62.32.87.67Z"/>
      <path class="st0" d="M244.73,50.18c-.07-.02-.12-.03-.19-.05.61.4.5.33.19.05Z"/>
      <path class="st0" d="M333.61,116.05c-.26-.89-.61-1.9-1.04-2.98.14.5.45,1.41,1.04,2.98Z"/>
      <path class="st0" d="M333.91,115.36c.33.78.58,1.4.82,1.98.32.2.31-.1-.82-1.98Z"/>
      <path class="st0" d="M330.96,109.44c.63,1.26,1.15,2.46,1.62,3.64-.14-.47-.16-.68-.07-.58-.33-.64-.79-1.55-1.55-3.05Z"/>
      <path class="st0" d="M258.18,245.15c-.07.14-.14.3-.22.46-.02,2.39.12,1.37.22-.46Z"/>
      <path class="st0" d="M104.31,124.19c.03-.1.03-.16.06-.25-.06.09-.13.2-.18.28l.12-.03Z"/>
      <path class="st0" d="M102.41,131.94c-.25-3.65.59-5.45,1.78-7.72-1.38.36-2.74.77-4.13,1.19.76,2.24,1.55,4.42,2.35,6.54Z"/>
      <path class="st0" d="M151.88,180.18c.12.95.08,1.19.11,1.75l.05,1.49.11,2.97c-.82-1.62-1.46-3.16-1.97-4.47-.2-.41-.63-1.91-.91-2.81-.3-.99-.56-1.84-.73-2.52-.33-1.35-.44-1.98-.62-1.67-.16.32-.38,1.59-.11,4.31.52.16,1.06.94,1.61,2.14.43.67.81,1.48,1.18,2.53.74,2.07,1.4,4.83,2.07,7.59,1.33,5.52,2.66,11.04,4.58,11.03l.07,3.93c-.2-1.09-.46-1.21-.66-2.28-.13,7.7,3.86,4.84,5.44,14.38.45,3.35.43,5.76-.5,3.62l2.54,7.11c.4,2.14-.35,1.77-.75-.37l2.78,11.1-.13-.06c.93,1.46,2.62,4.87,3.4,6.55.11,2.95-.71-1.34-1-.51l2.27,5.98c-.39,2.73-2.45-2.19-3.27-6.49-2.38,6.59,2.07,4.92,2.7,17.85l-1.77-5.73c-1.24,4.22.53,8.61.7,15.5.33-1.72.33-13.94,2.73-7.43.14,1.95.57,4.47,2.11,7.92-1.12,1.11-.61,1.88-.13,3.69l-2.01-.87c.81,1.3,1.89,2,3.14,3.95.07.51.01.8-.14.89-.09.03-.15.08-.33-.03-.27-.2-.53-.41-.78-.62-.99-.86-1.84-1.81-2.55-2.66-.77-.38-.2.4.71,1.36.87.95,2.21,2.13.31,1.76-1.54-.77-2.73-1.35-4.09-1.59-.36-.07-.73-.13-1.1-.2-.12-.03-.16,0-.34-.07l-.58-.21c-.39-.14-.79-.28-1.2-.43-1.65-.56-3.43-1.16-5.41-1.84-4.08-2.66,1.26-.59-.07-1.8-1.52-.15-2.93-.56-4.41-.86-.89-.57-.38-.77-.12-.87-3.4-1.38-1.14,1.38-6.37-1.16-1.18.39-3.23-1.97-5.81-4.62-.65-.66-1.33-1.34-2.02-2.04-.66-.74-1.35-1.46-2.08-2.14-1.45-1.36-3.02-2.53-4.76-3.26-1.01-1.5,1.37-.26,1.42-1.12-4.04-2.72-5.63-4.1-7.22-5.15-1.62-1.04-2.93-2.06-6.32-4.49-1.21-2-2.45-3.94-3.42-6.07,1.92,4.9-3.1.68-7.62-3.34.55,1.85,1.03,3.46,1.45,4.48l-3.16-3.53-2.87-3.77c-.35-1.13.67-.62,2.09.29-.46-.46-.91-.9-1.25-1.24-1.19-3.2.61-2.22,2.67-.73.27,1.15.55,2.3.81,3.42,2.15,1.33,4.43,2.28,4.97,1.32-.51-.36-1.32-1.17-2.14-2.12.59.31,1.02.46,1.01.15-.05-.34-.89-.89-2.02-1.92l.6-2.8h-.92c-.83-1.79-1.71-3.53-2.48-5.32l-2.06-5.48c-5.35-6.56-11.12-12.48-14.93-25.83,2.14,3.02,2.46.19,4.18.02-.46,1.97.13,4.53,1.48,7.27.62,1.38,1.32,2.84,1.96,4.37.32.76.62,1.55.91,2.35.35.78.67,1.57.95,2.39-1.17-3.41-.1-2.93.51-2.19-.97-1.8-1.74-3.69-2.64-5.55-.81-1.89-1.86-3.72-2.48-5.69,1.42-.07.47-2.8.36-6.02-1.04,1.44-2.18-.66-2.82-3.85-.59-3.19-1.26-7.32-1.8-9.82.46-.19.94,0,1.3,1,.44.99.87,2.77,1.15,5.81,1.08-6.8-4.06-8.41-2.64-15.23.09,1.51-.02,2.32.48,2.9-.24-.87-.41-2.06-.51-3.33-.07-1.27.1-2.61.22-3.78.28-2.33.73-3.94,1.08-2.92l-.06,1.49c.27-2.47.26-5.61.69-8.89.49-3.28.94-6.76,1.26-10,1.19-6.37,1.97-11.85,1.05-12.94.28-.01,2.37,2.11,2.68,2.81-.33-1.62-.42-3.2-.53-4.8l-.31-4.89-.26-5.03c.02-1.66.12-3.31.19-4.99,1.16,2.24,8.12-1.08,5.59,6.76,1.29-2,2.84-4.43,4.34-9.2-.94,1.29-4.35,2.3-3.54.2,2.28-2.28,3.16-2.97,4.02-3.9.86-.92,1.79-2.02,4.52-4.67-1.57,1.86-3.02-2.23-.67-5.39.03.75,2.76,1.53,2.2,2.82l3.22-9.49c-1.01,2.28,1.83,1.96,3.75.84-1.14.32,5.52-5.97,6.97-8.05l-3.21,2.47c3.66-3.89,4.99-6.28,6.19-8.95,1.24-2.6,2.34-5.51,6.89-8.63-.7,1.32-.13,5.04,4.41,2.13.55-1.33,1.49-4.74,3.75-8.15,2.21-3.44,5.22-7.8,9.59-10.36l2.13-.02c2.18-1.36,4.26-3.01,6.59-4.14-1.86,1.85-5.1,5.75-8.54,9.33-1.76,1.73-3.31,3.9-4.84,5.71-1.51,1.84-2.92,3.5-4.11,4.79,3.8-1.46,1.53.33,6.55-2.82,2.2-.34-2.08,2.79-3.52,3.71l5.95-3.3c1.93-1.19,4.13-1.87,6.17-2.84-.68-.7,1.46-2.26,3.67-3.8,2.21-1.53,4.65-2.64,4.11-3.33l-3.37,1.74-3.2,2.08-6.31,4.11c-.72-.69.6-2.78,3.34-5.26,1.37-1.23,3.08-2.59,5.06-3.85,2.05-1.07,4.35-2.08,6.76-2.87,2.64-.18-.69,3.78-.25,4.28.49-.52,2.58-1.61,4.68-2.57,2.13-.88,4.34-1.36,4.83-1.29l-3.76,1.99c2.74-.34,4.71-1.48,6.9-2.54,1.09-.53,2.24-1.04,3.53-1.41,1.29-.37,2.79-.36,4.48-.2,2.3-.23,7,1.35,7.24.2-3.83-1.55-5.66-7.92-3.22-9.91.88-.37,12.94,1.09,15.6,1.97,3.85,1.49-5.73,4.25-2.41,5.52.12-.51,2.2-1.25,3.08-1.5,2.41.56-1,1.52,4.22,1.56.94-1.84,10.65.69,2.55-1.47,2.6-.14,3.97.03,5.44.25,1.46.34,3,.82,6,1.23-.86-.75.62-1.57,3.05-2.16,1.21-.29,2.67-.56,4.15-.66,1.46,0,2.96.09,4.29.29-.42.39.6,1.29,1.08,1.71,2.6.76,4.94,1.31,7.01,2.14,2.05.88,3.94,1.69,5.81,2.5,1.84.86,3.75,1.49,5.61,2.53,1.88,1,3.87,2.03,6.13,3.12.65.78,4.67,3.44,2.47,3.21,1.38.42,2.81.57,5.47,2.12,4.2,4.47-5.95-3.32-3.09.71.44-.38,2.3.32,4.59,1.32,1.14.51,2.39,1.07,3.6,1.66,1.15.67,2.27,1.32,3.24,1.83-.08-1.02-1.94-2.84-4.63-4.08-2.62-1.34-5.7-2.61-7.73-3.45.56-1.03,2.77-1.08,6.12-.26,1.67.42,3.64,1.03,5.79,1.89,2.04,1.01,4.28,2.23,6.62,3.65,3.66,2.34,4.14,3.25,3.89,3.62-.23.34-1.13.11-.48.49,5.78,5.59,9.16,7.01,11.79,8.85,1.36.86,2.65,1.69,4.09,3.02,1.43,1.33,3.12,3.08,4.75,6.13,2.04,5.21-2.21,1.99-2.34,3.6-1.14-1.29-2.06-2.5-2.85-3.65-.87-1.08-1.62-2.08-2.31-3.06-1.37-1.95-2.52-3.76-4.13-5.48l3.37,4.75c-.92-.65-2.22-1.76-3.46-2.97-.62-.61-1.22-1.24-1.76-1.85-.57-.58-1.1-1.11-1.49-1.62.28.5.84,1.11,1.49,1.94.64.85,1.44,1.85,2.38,2.95.95,1.09,2.01,2.31,3.14,3.62.58.65,1.17,1.32,1.78,2,.59.7,1.11,1.48,1.69,2.24,1.13,1.54,2.3,3.12,3.47,4.71,1.17,1.59,2.36,3.17,3.27,4.89,1.89,3.37,3.77,6.53,4.92,9.33,1.37,1.69,3.46,4.84,3.23,2.98l-1.87-3.39c-.51-3.81,4.67,5.86,3.02,1.14,1.52,2.19,3.24,4.49,4.91,7.15,1.43,2.75,2.73,5.9,3.71,9.55l-1.13,1.85c.42-.29-.72-4.91-1.93-6.69.89,1.33,1.34,4.22,1.95,7.04.5,2.87.91,5.74,2.45,7.11l-.18-5.39c1.08,2.47,2.48,5.22,3.75,8.21.32.75.63,1.51.92,2.29.22.79.42,1.59.6,2.41.36,1.63.63,3.3.75,5,1.19-3.32-.42-1.49.77-6.64-1.19,4.52-4.14-16.98-4.93-9.79.24-1.34.28-2.56.21-3.73-.17-1.14-.45-2.23-.76-3.36-.62-2.27-1.34-4.69-1.57-8.14-.22.2-.27.85-.48.75-.25-.08-.46-.97-1.63-3.59-.26-.17-.72-.63-1-.93-.06-.16-.08-.22-.13-.36.03.11.05.2.08.31-.18-.19-.21-.2.03.11.37,1.33.57,2.44.48,2.96-1.2-1.02-2.76-3.55-4.26-6.12-.75-1.28-1.49-2.57-2.15-3.7-.68-1.12-1.44-1.98-1.95-2.55-1.5-2.98,1.28.87.85-.98l-3.2-3.36c.84-1.01-2.94-8.78,1.84-2.35l-1.86-3.09c-.65-1.01-1.41-1.95-2.1-2.93-1.99-3.79-5.2-8.81-8.18-11.01-2.11-2.72-6.79-5.42-4.09-3.9l-2.05-1.95-2.22-1.77-4.43-3.51.13-.3c-1.02-.94-2.06-1.89-3.15-2.78-1.17-.8-2.34-1.61-3.53-2.42-2.4-1.58-4.79-3.22-7.29-4.79-5.21-2.81-10.2-6.23-15.57-9.78-1.76-.67-3.55-1.34-5.58-2.22-2.08-.76-4.48-1.57-7.35-2.83l-.79-1.44c-1.17-.32-2.58-.88-4.1-1.47-1.55-.49-3.2-1.02-4.78-1.51-3.15-1-6.01-1.81-7.13-1.52-2.26-1.91-8.16-3.01-14.47-3.68-6.37-.13-13.11-.32-17.4-.1l-.27,1.42c-2.92.11-5.79.31-8.8.67-2.99.61-6.13,1.33-9.65,2.16l.65,1.15c-2.99.82-6.81,1.7-11.18,2.47-4.41.6-9.11,2-13.69,3.74.45-.67,2.85-1.42,4.59-1.75-2.98.36-5.95,1.14-8.76,2.32-2.74,1.35-5.4,2.94-7.99,4.53-2.65,1.48-4.97,3.44-7.38,5.02-2.37,1.66-4.91,2.87-7.3,4.07-1.86,1.95-3.48,2.97-5.15,3.83.2-.15.36-.3.49-.45-.22.16-.55.4-.88.64-1.07.53-2.19,1.06-3.36,1.7,1.08-.44,2.09-.88,2.9-1.35-.8.63-1.82,1.42-2.88,2.35-.99,1.01-2.05,2.12-3.07,3.26l-1.85-.12c-.18.18-.31.32-.5.5-2.56,1.66-1.34,2.08.51,1.75-.98,1.18-1.82,2.31-2.39,3.26-3.3.13-4.81,6.27-8.76,7.15-.1.58-.86,1.53-1.64,2.88-.81,1.32-1.8,2.94-2.79,4.54-1.96,3.2-3.71,6.43-3.04,7.81-.31-.08-.89.59-.07-.79-1.95,2.68-3.92,5.4-4.88,8.27l-2.22.39-1.14,7.57c-2.83,3.5-4.21,4.98-3.47.44-.36,1.3-.67,2.41-.94,3.37-.2.98-.38,1.81-.53,2.53-.32,1.43-.59,2.43-.83,3.38-.43,1.91-1.08,3.58-1.37,8.16l-.94-.74c-.78,3.16-.62,8.45-1.98,10.12-1.03,1.61-1.6,4.69-2.41,8.6-.32,1.96-.88,4.12-1.02,6.46-.14,2.35-.29,4.85-.44,7.43-.07,1.29-.14,2.61-.22,3.94-.06,1.33.06,2.68.09,4.03.08,2.71.17,5.44.25,8.15.61,5.37.8,10.68,1.51,15.33,2.4-4.24.35,8.86,3.28,8.87-.42,1.24-.05,3.88-1.59,1.16.89,2.25,1.52,4.24,2.05,6.08.56,1.82,1.17,3.42,1.69,4.96,1.12,3.04,2.1,5.78,4.63,8.23-.2,1.32-1.93-1.36-1.9-.29.5.63,1.97,2.45,2.02,3.55.04,1.09-1.21-.97-2.2-2.21,4.49,8.9,7.36,8.36,9.55,7.86.82,2.34,1.59,4.03,2.52,5.39.95,1.36,2.23,2.3,3.82,3.3.4,1.77,1.48,4.54-2.27-.17.47.7,1.43,2.13,2.6,3.87.59.87,1.22,1.83,1.92,2.79.76.91,1.54,1.85,2.3,2.77,1.55,1.83,3.09,3.54,4.33,4.74,1.3,1.14,2.34,1.73,2.7,1.49.43,1.05,3.25,3.4,4.02,3.87,1.29,1.38,2.38,2.34,3.33,3.14.93.82,1.7,1.49,2.47,2.16,1.57,1.29,2.99,2.75,6.12,4.76l-1.5-1.42c1.83,0,3.14.77,4.62,1.97,1.51,1.15,3.08,2.92,5.74,4.24l-.26.1c5.46,4.12,6.82,4.79,8.22,5.23.69.25,1.37.5,2.58,1.16.61.33,1.35.76,2.29,1.34.47.3,1,.62,1.58.99.29.19.6.39.93.6.29.21.69.43,1.21.67-.13-.52-.27-1.03-.32-1.54,1.28-1.03,3.91.43,8.1,2.66,1.08.57,2.22,1.16,3.39,1.77,1.22.58,2.57,1.1,3.89,1.62,2.66,1.02,5.41,1.91,7.44,2.23l-4.06-1.99c.99.04,2.48.6,4.47,1.52l.77.36c.11.04.32.19.34.13l.03-.21c.05-.27.11-.56.16-.84.14-.58.29-1.18.44-1.78.62-2.47,1.42-5.8.8-9.17-.07-1.37,1.01,2.54,1.6,4.65-.41-4.09-.93-6.68-1.29-7.96-.39-1.32-.72-1.51-1.09-1.58-.74-.11-1.67.09-3.18-5.73.22-1.17.96-.6,1.45-.69.12-.03.23-.11.3-.28.07-.17.11-.47.15-.68.07-.5.01-1.32-.25-2.67.15-2.83-6.43-14.86-6.31-22.56-.35,1.77-.7,3.52-2.05-.05-1.51-5.61-.75-15.9-4.11-20.52.03-.76.16-1.08.33-1.14-1.54-4.2-4.09-13.85-5.88-16.19,3.58-5-8.18-26.42-4.03-27.25l-1.17-4.74c-.29-1.17,0-2.46.75-3.41l.28.46c1.53-1.66,3.12-1.45,4.19-1.84.35-.09.43-.18.97-.29.48-.12.93-.23,1.36-.33.86-.23,1.62-.49,2.39-.74,2.01.29.54.68.38.9,2.34.14,4.3.26,5.99.36,2.47.08,4.62.12,6.53.12,1.18-1.18,2.24-2.3,3.24-3.41.46-.52,1.09-1.21,1.39-1.59.32-.41.64-.83.97-1.26.65-.87,1.33-1.82,2.08-2.91.71-1.05,1.72-2.47,2.2-3.41.46.19.89.41,1.28.66.17-.46.88-1.14,2.07-1.31,1.16-.2,2.77.27,3.8,1.51.24.31.48.62.73.94l.36.46.72.81c1.05,1.17,2.15,2.35,3.29,3.52,2.28,2.33,4.7,4.59,7.19,6.52-.2.02-.57.03-1.41-.54,1.04.82,2.06,1.72,3.08,2.68.5.49,1.01.98,1.52,1.48.73.74,1.46,1.49,2.2,2.24,3.03,3.14,6.12,6.52,9.29,10.01,2.73-2.47,5.42-4.9,7.96-7.2,1.31-1.23,2.58-2.42,3.81-3.57.44-.42.87-.84,1.3-1.24.36-.36.7-.7,1.04-1.04l.49-.51c.16-.17.14-.16.22-.25l.3-.43c.22-.3.43-.58.63-.83.43-.56.87-1.12,1.28-1.89.31-.1,1.18-.21,1.95-.31l2.32-.31,4.64-.61c-12-.39,1.79-2.17-3.15-3,2.3-.15,5.53.23,7.02.68,1.53.44,1.59.96-.74,1.09-.25-.08-.46-.17-.78-.25-.57.65.28,1.03,1.09,1.27.89.29,2.19.16,3.44.66,1.25.47,2.26,1.52,2.59,2.48.36.97.17,1.71-.3,1.84.23.97-.05,1.95-.27,2.88-.56,2.39-1.12,4.78-1.68,7.16-.64,2.64-1.29,5.27-1.93,7.89-1.33,5.23-2.64,10.42-3.95,15.58-2.64,10.3-5.25,20.44-7.53,30.45l2.53-2.05-1.79,7.51c-.9,1.87-2.14,2.31-.86-3.05-.88,1.29-1.14,3.59-1.14,5.61-.05,1.26.19,1.31.31,1.7.11.32.19.61.27.68-.88.9-1.52.72-1.64.56-.17-.21-.05-.57-.01-.92.12-.75-.22-1.25-.31-1.05-.04.19-.14.41-.34.57.09.05.17.06.28.1-.04.54-.19,1.06-.6,1.43-.37.34-1.32.59-2.31-.33-.45-.75-.17-1.1.03-1.26.23-.18.42-.24.41-.43.14-.06.14-.14-.04-.55l1.99-8.28-2.41,3.45c.17-4.38,2.07-8.9-.67-4.92,4.16-5.82,8.87-35.18,10.6-38.93.15-5.2,1.12-10.16,2.48-15.97l1-4.26-4.47-.07c-1.02-.02-2.11-.04-3.25-.05,1.46.26,2.45,1.45-.45,1.82l-.97.12-.3.4c-.41.54-1.08,1.28-2.05,2.17-.49-2.13-2.83-.36-5.75,2.17-2.74,2.35-7.01,6.42-7.93,5.45.59.03.6.41.13,1.05-.46.62-1.57,1.25-2.74,1.26-1.18.07-2.24-.45-2.79-.65-.54-.19-.92.07-.23,1.51-1.35-1.42-1.09-1.76-.82-2.04.27-.32.71-.57.14-1.76-3.63-2.89-7.15-6.38-10.71-10.18-2.03-2.19-4.12-4.44-6.23-6.72-2.85-3.03-5.76-6.11-8.7-9.23-2.19,2.12-4.41,4.26-6.63,6.41l-3.35,3.35-2.33,2.38c.11.22.43.36.71.56.26.19.56.53.04,1.27-.4-.01-.77-.09-1.09-.22-.43-.13-.25-.31-1.57-.52l-6.66-1.21c-2.4.12-3.04.82-4.17,1.29-.57.23-1.26.4-2.42.41-.58,0-1.28-.03-2.15-.12-.45-.05-.93-.11-1.46-.18-.27-.04-.55-.08-.85-.12-.21-.07-.15.07-.16.16v.3c-.23-.66,1.18-.09,1.57.07.23.11.32.22.2.3-.06.04-.18.08-.37.11-.04.01-.11,0-.14.04l.07.22c.04.15.09.32.15.5.77,4.82,1.75,10.07,2.82,15.45l1.26,6.22,1.23,5.7c1.7,7.6,3.57,15.2,5.39,22.84,3.64,15.27,7.03,30.66,8.24,46.31,0-4.32.71-1.6,1.44,1.53-.23-2.09,1.18-.21,1.74-.76l.52,6.55.26,3.27.13,1.64c.04.54.07,1.02.21,1.93.41.47.81,1.26,1.19,2.26.04.21.08.44.17.64.13.17.26.34.39.51.25.36.52.74.79,1.13.55.79,1.12,1.68,1.38,2.48l.2.59c.04.2.08.39.34.46l1.2.63c.87.49,1.72.96,2.51,1.4,2.96.24,5.33.16,5.98-.4-1.83,0-3.68-.03-5.57-.11,3.17-.51,2.35-1.46,1.07-2.48-.5-.56-1.16-1.01-1.79-1.4-.28-.24-.54-.49-.76-.73-.2-.04.04-.44.1-.7.09-.27.18-.54.26-.79.51-1.69.92-2.72,1.62-3.06-.38-.32-.67-.84-.88-1.46-.18-.53-.29-1.09-.37-1.74-.12-.84-.21-1.72-.28-2.64-.11-1.84-.23-3.81-.35-5.86-.31-4.08-.99-8.41-3.37-12.37.04-2.29,1.25,1.66,1.59.37-1.66-2.24-2.57-5.2-3.31-10.89l.41.57c-3.76-15.6-4.17-22.56-7.36-40.32l-.99,1.59c-.67-3.82-.45-4.7-.52-6.55-2.91-3.91,2.26,10.64-.76,7.17.74-2.8-.73-9.47-2.12-15.94-.34-1.62-.67-3.23-.99-4.76-.14-.77-.28-1.51-.41-2.23-.06-.34-.11-.67-.16-1-.01-.18-.03-.36-.04-.54-.08-1.4.13-2.29.9-2.31-.24-1.13-.66-1.24-1.05-1.26-.39-.03-.77.03-1.11-1.54.27-.06.54-.09.83-.07l-.73-.86c-.16-.23-.19-.37-.28-.56,2.49.17,4.11,1.2,4.54,1.89-.43-.08-.88.19-1.17.25,1.36.48,2.27.4,3.34.24.45-.06.9-.11,1.33-.16.72-.11,1.42-.28,2.07-.48,1.31-.41,2.46-.98,3.43-1.58.96-.6,1.73-1.24,2.33-1.79.21-.2.4-.37.56-.53.05-.04.1-.07.14-.09-.13.1-.06,0-.35.26-.34.3-.69.59-1.06.85-.73.53-1.51.99-2.32,1.38-1.62.77-3.37,1.21-5.12,1.31,2.38-.32,4.69-1.26,6.64-2.74.48-.38.95-.77,1.38-1.21.34-.34.28-.3.43-.46l.65-.71c.91-.94,1.84-1.91,2.78-2.88,2.88,2.83,5.83,5.72,8.69,8.54,2.16,2.08,4.31,4.1,6.44,6.03,1.09.96,2.16,1.9,3.21,2.83,1.55,1.39,3.02,2.79,4.68,3.64-.4-.48-.74-1.02-1.06-1.54,3.33,2.37,6.36,2.56,8.53,2.41,2.21-.21,3.81-.75,5.31-1.55,1.48-.76,2.92-2.07,4.7-3.73,1.34-1.23,2.99-2.86,5.23-5.28l-.23.44c1.4-2.25,3.6-4.89,6.13-7.35l-2.68,1.11h.23c-.14.03-.25.06-.23.09l2.75-1.14h0c-.36.61-.12.63.38.38l-3.13,1.29c1.31.51,5.22,1.01,2.13,1.58.63-.07,1.21-.13,1.56-.17l-5.69-7.11c-1.35,10.81-.27,5.36.09,13.82l-1.43,1.71c.27,3.06.69,3.41-.48,9.89.31-5.46-2.44,3.76-2.26-2.4-5.2,12.99-2.25,20.5-6.83,25.97,1.39,6.81,4.14-11.32,3.96-7.72,1.55-2.7.93,5.57-.29,9.74-.51,2.15-1.81,3.78-3.27,6.23-.73,1.23-1.5,2.66-2.24,4.46-.17.45-.36.93-.55,1.42-.09.25-.18.51-.27.77-.1.34-.22.88-.31,1.34-.32,1.93-.17,4.18.74,6.39-.62-1.78-.87-1.87-1.1-3.77-.05,3.69,2.06,7.13,5.12,9.22,3.11,2.12,6.99,3.08,11.49,2.5,2.18-1.47,4.42-2.92,5.91-4.74,1.49-1.78,2.07-3.72,1.21-4.61-1.34,4.94-6.43,8.61-11.78,8.19,4.57.16,8.58-2.88,10.07-7.01.2-.51.33-1.05.46-1.6.11-.58.18-1.11.21-1.51.09-.88.22-1.8.4-2.75.35-1.9.88-3.96,1.7-6.21.27.82.22,3.71.12,5.67,1.24-2.57.75-5.32,2.02-7.98.98.64.43,3.68-.34,7.37-.41,1.98-.86,4.14-1.29,6.22-.89,3.26-3.01,5.92-5.15,7.7,1.26-.49,2.91-1.77,4.12-3.59.59-.91,1.1-1.92,1.43-2.96.35-.97.56-2.27.58-2.61.26-2.16.53-3.53,1.35-1.76-1.98-5.02,2.75-10.59,2.14-18.42l1.17.77c.06-1.21-.01-3.74.5-5.87l.8,4.24c-.09-6.25,3.79-11.17,4.29-17.03-2.62,11.93-2.14,2.33-4.2,7.16,1.56-15.09,5.24-7.71,8.3-24.31-.32,2.27-2.64,8.2-2.45,4.58.96-3.07,2.38-7.1,3.48-8.88,2.17-10.97-1.69,1.38-1.44-3.44.96-1.35,1.24-2.5,1.27-3.71.01-.6-.04-1.22-.09-1.89-.01-.87.01-2,.05-3.08.03-1.1.06-2.27,0-3.57l1.34-.3c.1-2.37-.45-4.2-1.06-5.52-.62-1.32-1.31-2.16-1.88-2.73-1.19-1.11-1.88-1.18-2.47-1.25-.6-.05-1.14-.08-2.32-.55-1.22-.44-3.03-1.31-6.94-1.54,2.37-.62,4.89-.96,7.38-.37-2.73-1.24-5.78-1.23-8.85-1.01.66-.51,1.38-1.01,2.16-1.52-1.3.13-2.48.25-3.58.36-.69.09-1.33.17-1.93.24-1.2.12-2.27.18-3.32.19-1.06,0-2.11-.03-3.3-.1-.59-.04-1.22-.08-1.9-.12-.48-.02-.99-.05-1.51-.07-.59-.02-1.21-.02-1.85.03,1.27.37.93.95-.55,1.67-1.45.77-4.14,1.92-6.77,4.88-1.73,1.17-1.51.5-1.65.37-.06-.08-.19-.04-.65.38-.22.22-.54.52-.97.95-.22.24-.51.54-.87.93.14-1.28-.2-2.55,4.55-5.39.11-.75,1.82-2.34,2.23-2.95-1.65.53-3.34,1.61-4.82,3.08-.49.47-1,.95-1.5,1.43l-1.3,1.33c-.47.56-.86,1.2-1.19,1.54.26-.19.58-.41.84-.4-.4.98-1.01,2.16-1.82,3.55-.42-.12-.89-.3-1.42-.53-.5-1.21.18-1.1.63-1.21-.65-.45-1.38-.31-2.63-1.4.98-.56,1.78-1.34,2.7-1.14-.34-.06-.76-.19-1.25-.4-.01.06-.55-.4-.86-.65l-1.08-.87-2.17-1.74c-.19-.86-3.09-4.92-1.79-4.19-1.94-2.39-4.97-4.67-8.15-7.15l-.31-.24-.5-.44-1-.87c-.66-.59-1.34-1.15-2.03-1.65-1.38-1-2.89-1.77-4.5-2.3-3.21-1.06-6.69-1.1-9.89-.27-.58.45-1.91.99-4.06,2.76-.86.62-1.68,1.34-2.47,2.1l-1.2,1.11-.83.74-2.94,2.55c-.91.8-1.83,1.61-2.76,2.44-.29.22-.56.44-.81.74-.31.02-.62.08-.97.19-.15.03-.03.06-.42.09l-.97.11c-.65.09-1.32.19-2,.29l-5.13-1.95c-3.54.22-1.8.83-.66,1.48.57.32,1,.66.55.96-.23.15-.67.29-1.43.42-.2.03-.42.06-.66.09-.36.03-.75.05-1.18.09-.85.06-1.84.08-2.96.19-3.1.33-4.73,1.08-5.77,1.43-1.03.37-1.44.39-1.68.21-.48-.32-.17-1.5-2.26-.24-2.31,2.48-4.46,6.99-3.91,12.09.14,1.25.39,2.56.76,3.9.34,1.26.75,2.96.88,3.62.38,1.78.62,3.66.65,5.62-.45-1.2-.72-2.3-.95-3.39l-.35-1.63c-.16-.63-.31-1.27-.48-1.94ZM171.79,265.51c-.64-1.59-2.22-4.7-1.72-6.07,1.91,1.55,1.52,3.16,1.72,6.07ZM106.35,227.56c.47.45.87,1.12,1.22,1.95.41.79.78,1.75,1.12,2.79-.92-1.27-1.82-2.8-2.34-4.74ZM317.4,90.37c-.06-.05-.11-.08-.17-.11-1.98-3.5-1.29-2.25.17.11ZM321.86,97.3c.65.55.74.43.71.02-.62-.27-1.74-1.74-2.93-3.48.07.68.5,1.66,2.21,3.45ZM244.2,247.33c-.08.16-.15.36-.19.56-.73-1.05-.2-.78.19-.56Z"/>
      <path class="st0" d="M115.52,239.06c.09.5-.04.75-.18.98.56.39.78.25.18-.98Z"/>
      <path class="st0" d="M195.49,146.24l.42-.13c.21-.15.31-.27.36-.36l-.78.49Z"/>
      <path class="st0" d="M213.86,51.44c-1.54-.11-2.41-.31-2.99-.53-.08.33.64.57,2.99.53Z"/>
      <path class="st0" d="M342.05,136.08c-.57-1.69-1.09-3.4-1.7-5.07.77,2.46.68,3.45.81,4.76.27-.2.45-1.31.89.31Z"/>
      <path class="st0" d="M337.95,181.36c.11.75-.03,1.56.04,2.29l.65-.14c.13-3.15-.26-5.36-.69-2.16Z"/>
      <path class="st0" d="M338.96,141.88c-.5.33-.45,1.24-.14,2.52.28,1.28.64,2.94,1.02,4.71-.04-.21-.08-.42-.1-.63.86.39,1.01-.34.81-1.65-.11-.65-.27-1.45-.54-2.29-.33-.83-.69-1.74-1.05-2.65Z"/>
      <path class="st0" d="M339.99,149.92c.22,1.09.42,2.21.53,3.29.69.33-.08-1.36-.53-3.29Z"/>
      <path class="st0" d="M327.96,105.8c.66,1.64,1.83.24,1.94,1.32,2.26.96-7.59-9.18-1.94-1.32Z"/>
      <polygon class="st0" points="336.06 145.46 337.1 143.95 335.52 142.27 336.06 145.46"/>
      <path class="st0" d="M328.28,118.73c.72,1.75,1.44,3.49,1.9,5.33.19-.17.56.46.96,1.25-1.03-3.35-2.55-6.87-2.86-6.58Z"/>
      <path class="st0" d="M331.14,125.32c.6,1.72,1.23,3.33,1.79,4.21-.35-.92-1.13-2.9-1.79-4.21Z"/>
      <path class="st0" d="M333.74,138.13l-.14-1.68c-.33-1.28-.51-2.6-1-3.84.55,1.79.74,3.69,1.13,5.52Z"/>
      <path class="st0" d="M291.03,71.25l-5.19-3.39c-.77.01.4,1.26,2.34,2.47,1.37.61,3.32,1.84,2.85.91Z"/>
      <path class="st0" d="M302.18,86.4c-.89-1.4-.74-1.7-1.04-2.71l-1.34,1.08,2.38,1.63Z"/>
      <path class="st0" d="M288.97,74.95c-.79,0-7.74-4.08-1.65.34.76-.02,5.81,3.26,1.65-.34Z"/>
      <polygon class="st0" points="204.44 47.2 205.99 47.1 205.58 44.3 204.44 47.2"/>
      <path class="st0" d="M135.89,83.52c2.75-2.05,2.76-2.65,2.74-3.19-.04-.55-.12-1.04,2.66-2.55.87-1.52-4.5,2.55-3.53,1.11-2.65,3.37-4.52,4.53-1.87,4.62Z"/>
      <path class="st0" d="M137.75,78.9c.41-.56.94-1.04,1.42-1.65-.87.87-1.25,1.3-1.42,1.65Z"/>
      <path class="st0" d="M197.68,299.25c.72.68,1.51,1.47,2.39,2.38l3.72.64c-1.23-.34-2.4-.69-3.51-1.06l-.69-.86-1.91-1.11Z"/>
      <path class="st0" d="M209.9,299.93l1.1,1.83,2.95-1.59c-1.1.09-3.24.2-4.06-.24Z"/>
      <path class="st0" d="M170.33,275.6l.47.1c.47-.02.46-.23.45-.64-.28.29-.58.47-.91.54Z"/>
      <polygon class="st0" points="158.6 216.8 158.8 217.88 159.94 215.53 158.6 216.8"/>
      <path class="st0" d="M160.34,156.66c-3.93.98-7.64,4.15-9.8,7.43,2.3-3.7,5.67-5.21,7.69-5.85,2.07-.64,3.04-.75,2.11-1.59Z"/>
    </g>
  </g>
  <g>
    <path class="st1" d="M243.1,261.43c-4.07-.91-8.09,1.65-9,5.72l-1.09,4.86c-.91,4.06,1.65,8.09,5.72,9,.55.12,1.11.18,1.65.18,3.45,0,6.57-2.39,7.35-5.9l1.09-4.87c.91-4.06-1.65-8.09-5.72-9h0Z"/>
    <g>
      <path class="st3" d="M242.4,264.73c-.03-.06-.14.51-.17.61.09-.1.21-.75.17-.61Z"/>
      <polygon class="st3" points="243.67 263.77 243.55 263.98 243.93 263.51 243.67 263.77"/>
      <path class="st3" d="M244.49,264.23c.45-.87-.37-.07-.35-.43l.08-.21-.44.67c.22-.04.73-.34.7-.03Z"/>
      <path class="st3" d="M243.55,266.19c.23-.31.26-.21.02-.14-.02.04-.03.06-.05.09,0,0,.03.01.03.05Z"/>
      <path class="st3" d="M243.52,266.14c-.06-.01-.17.28,0,0h0Z"/>
      <path class="st3" d="M243.88,266.16l-.29.2c-.14.18-.13.26-.26.37.18-.09.33-.26.55-.57Z"/>
      <path class="st3" d="M244.44,265.7l-.14.07c-.06.08-.07.11.14-.07Z"/>
      <path class="st3" d="M244.02,265.92l.28-.15c.1-.13.31-.36-.11.05.2-.21,0-.02-.17.1Z"/>
      <path class="st3" d="M244.08,265.76c.1-.19.12-.35.43-.54-.26-.03-.66.54-.43.54Z"/>
      <path class="st3" d="M245.1,263.41l.06-.31-.27.22c.13-.11.04.34.21.08Z"/>
      <path class="st3" d="M243.85,266.87c.17-.13.42-.37.62-.55l-.23.1c-.09.12-.15.25-.39.44Z"/>
      <path class="st3" d="M244.47,266.32l.35-.14c-.03-.11-.18,0-.35.14Z"/>
      <path class="st3" d="M245.22,264.93c-.23.13-.46.26-.67.4.23-.13.47-.26.71-.38l-.04-.02Z"/>
      <polygon class="st3" points="244.01 267.14 243.58 267.37 244.24 267.03 244.01 267.14"/>
      <path class="st3" d="M244.19,267.27c-.37.17-.58.36-.81.46.08,0,.42-.13.71-.23-.17.03-.15-.01.1-.23Z"/>
      <path class="st3" d="M244.52,267.38c-.1.02-.26.07-.44.12.09-.02.22-.05.44-.12Z"/>
      <path class="st3" d="M244.85,266.4c-.1.08-.36.28-.45.41l.46-.36s-.01-.03-.02-.04Z"/>
      <path class="st3" d="M244.88,266.43h-.01c.01.06.02.09.03.11,0,0,0-.04-.01-.11Z"/>
      <path class="st3" d="M244.85,266.39h0s.06-.04,0,0Z"/>
      <path class="st3" d="M245.08,265.55c.29-.17.69-.25.95-.71-.35.22-.5.48-.95.71Z"/>
      <path class="st3" d="M245.41,265.91l.03-.2c-.12.1-.29.26-.44.33l.41-.13Z"/>
      <polygon class="st3" points="245.61 265.86 245.41 265.91 245.4 265.98 245.61 265.86"/>
      <path class="st3" d="M244.95,266.97c.26-.08.29-.03.36,0,.08-.11.11-.21.07-.27-.17.08-.48.21-.42.26Z"/>
      <path class="st3" d="M244.97,266.68s.02,0,.03,0c.04-.03.05-.04-.03,0Z"/>
      <polygon class="st3" points="245.53 267.57 245.63 267.53 245.53 267.56 245.53 267.57"/>
      <path class="st3" d="M245.46,266.65c.07-.1-.07-.06-.25,0,.07,0,.13.02.15.06.08-.04.13-.06.09-.06Z"/>
      <path class="st3" d="M244.84,267.4c.1-.07.19-.13.26-.2-.16.1-.41.25-.26.2Z"/>
      <path class="st3" d="M244.87,266.78h-.03c-.1.09-.05.05.03,0Z"/>
      <path class="st3" d="M244.87,266.78c.08-.03.22-.08.34-.12-.06,0-.13,0-.21.02-.03.03-.09.06-.13.1Z"/>
      <path class="st3" d="M249.26,266.83c-.54.11-1.07.03-.58-.33-.46-.07-2.11.66-3.05,1.03.23-.06.45-.14.79-.09.29-.12.56-.52,1.08-.54.35.14-.13.24-.38.41.64-.28,1.03.05,2-.21l-.4-.16c.15-.04.41-.01.54-.12Z"/>
      <path class="st3" d="M245.61,267.29l-.08-.02c-.07.09-.27.2-.65.4.28-.02.48-.06.66-.11v-.25s.08-.01.08-.01Z"/>
      <path class="st3" d="M245.44,267.06c.56-.21.86-.16,1.42-.49-.12-.16-.51.07-.79.09.25.19-.33.07-.57.38-.11,0-.16-.03-.2-.05-.05.07-.11.14-.2.22l.03-.02h0,0c.06-.04.1-.06.07-.04h.01c.08-.03.15-.06.21-.08-.08.11-.14.07-.21.08l-.08.03h0c.13.03.27.05.39.09.07-.08.02-.13-.09-.21Z"/>
      <path class="st3" d="M247.15,264.16s-.07.07-.1.1c.07-.03.12-.05.1-.1Z"/>
      <path class="st3" d="M246.97,264.51c-.08.03-.29.16-.29.06.09-.17.22-.18.37-.31-.16.05-.45.13-.57.44l.08-.03c-.05.24-.57.83-.65.85.41-.35.7-.6,1.06-1.01Z"/>
      <path class="st3" d="M246.46,265.84l.39.09.38-.37-.27.16c.02-.2-.29.02-.5.12Z"/>
      <polygon class="st3" points="245.25 267.68 244.64 267.84 245.52 267.69 245.25 267.68"/>
      <polygon class="st3" points="245.38 267.89 244.84 268 245.18 267.98 245.38 267.89"/>
      <path class="st3" d="M232.13,280.65h-.21c.08.01.15.01.21,0Z"/>
      <path class="st3" d="M232.81,281.44l.21-.18c-.14.07-.23.14-.21.18Z"/>
      <path class="st3" d="M243.84,275.82c-.48-.2-1.17-.6-.66-.26l.51.32c-.06-.1.03-.09.15-.06Z"/>
      <path class="st3" d="M240.53,281.32l.05.18c.03-.21.06-.4.08-.58-.04.12-.08.26-.13.4Z"/>
      <path class="st3" d="M240.44,283.81l-.25-.4c.05.14.13.28.25.4Z"/>
      <path class="st3" d="M229.09,275.67l-.63-.08c.05.29.33.11.63.08Z"/>
      <path class="st3" d="M245.35,270.87c-.26.07-.37.15-.42.23.37-.07.9-.08.42-.23Z"/>
      <path class="st3" d="M237.1,276.66c-.1.05-.21.11-.3.2.1-.04.2-.1.3-.2Z"/>
      <path class="st3" d="M244.85,271.46c.06-.01.1-.02.15-.03-.08-.11-.14-.22-.08-.32-.28.05-.46.14-.08.36Z"/>
      <path class="st3" d="M236.21,259.16s.05.02.08.04c-.03-.07-.05-.07-.08-.04Z"/>
      <path class="st3" d="M241.74,263.9s-.07.03-.11.04c.02.04.05.04.11-.04Z"/>
      <path class="st3" d="M245.23,268.82s-.07,0,0,0h0Z"/>
      <path class="st3" d="M247.59,268.48c.07.01.15.02.29.02-.14,0-.24,0-.29-.02Z"/>
      <path class="st3" d="M248.29,273.19h0c.12,0,.1,0,0,0Z"/>
      <path class="st3" d="M245.49,268.75c-.07.02-.13.04-.18.06.05,0,.1-.03.18-.06Z"/>
      <path class="st3" d="M245.21,268.76s.04-.03.06-.04c-.1,0-.16,0-.06.04Z"/>
      <path class="st3" d="M245.26,268.89s.03-.05.06-.08c-.04,0-.07.01-.09,0,.01.01.02.03.03.07Z"/>
      <path class="st3" d="M232.05,268.01s.03,0,.06,0c-.22-.15-.19-.1-.06,0Z"/>
      <polygon class="st3" points="246.91 281.64 246.91 281.61 246.88 281.6 246.91 281.64"/>
      <path class="st3" d="M246.81,282.28c-.28-.72-.15-.7.06-.68l-1.19-1.26c.39.63.77,1.28,1.13,1.94Z"/>
      <path class="st3" d="M230.59,278.66l-.3.56c-1,.04-.88-.44-1.4.24,1.68-.82.92,1.25,2.55.24l-.19.41c-.02-.06-.12-.01-.14-.08-.46.9,1.28-.51,1.4.05,0,.23-.11.51-.37.56l.63.02c.05.12-.2.32-.26.2.18.14.38.24.57.36l-.04.04c.27-.14.73-.34.93-.42-.07.31-.19.09-.32.3.18-.03.37-.07.55-.12-.2.46-.74.65-.87.42-.98,1.65.52-.16.42,1.15l-.43-.04c-.46.99,0,.88,0,1.67.07-.36.27-1.87.88-1.99,0,.18.1.32.48.12-.37.56-.09.54.15.65l-.47.75c.39-.05.6-.47.94-.74.23.22-.01.86-.19,1.42.43.37.15-1.15.78-1.03.24.48.7.26,1.31-.07.18.37-.22.5-.2.77l.46-.6c.05.03-.03.24-.07.34.28-.21.27-.84.63-.99.28-.91.32,1.54.94.48.06.26-.13.53-.15.87.66-.65.57-.47,1.06-1.4l.34.61c-.25-.7.12-1.42.34-2.09-.08-.32-.15-.6-.18-.73.12-.15.23-.32.33-.49.05.14.03.45-.01.82l.06-.21c.14.32.12.83.03,1.33-.05-.17-.11-.36-.17-.54-.08.54-.19,1.14-.16,1.66.03-.1.09-.19.15-.24-.03.15-.05.28-.03.37.02.09.07-.11.14-.33l.15.98v-.39c.24.2.48.39.73.56.39-1.04.47-2.54.9-3.08.05.74.28,1.15.51,1.98-.41-.82-.44.5-.88.41.21.05.25.46.22.61.19-.32.36-.64.5-.96.16.69.27.47.53.69-.52-1.3.22-1.02.31-1.53.18.42.29.91-.07.91.73.85-.13-1.69.5-.99-.07.04-.13-.01-.07.22,0-.44.53-.34.62.07l-.07.04c.58-.07,1.47-.83.81-1.83.09.12.77,1.19.87,1.41-.48-1.28-1.07-2.49-1.77-3.63.59.83,2.41,2.44,2.43,3.17.19.02.44.03.42-.42-.17-.04-1.14-.94-1.12-1.09,1,.63.55.31,1.53.69-.25-.06-1.27-1.27-1.12-1.36.15.18,1.16,1.05,1.22,1.22-.25-.48-.53-.96-.83-1.41.14.27.99.88,1.41,1.06-.27-.15.33-.35.29-.57l-.42-.03c.55-.37-1.44-1.72-1.15-2.06.25.21,1.61,1.17,1.93,1-.59-.55-3.1-2.32-3.57-2.78l.44.13-.4-.41c1.11.5,3.19,2.03,3.85,2.89.43-.03.51.19.63-.15.44.07.5.47.47.58l.63-.7c-.86-.33-.63-.97-1.37-1.19.21.37.4.77.56,1.19-.84-.38-2.21-1.5-1.93-1.85.39,0,1.54.62,1.83.72-.27-.18-.41-.69-.19-.68l.41.37c.43-.23-1.05-.83-.11-.94.08-.08,1.23-.02.7-.16-1.07-.08-4.28-.76-5.04-1.04.08-.02,1.1-.27,1.64-.27.85.03,1.88.66,2.61.69-.25-.06-.53-.21-.62-.27.23-.05.76.21.7-.03-.91-.24.18-.42-.76-.27-.22-.27.24-.18.25-.44-.61-.05-1.98-.67-2.19-.94.23.06.55.09.69.09.18-.41.65-.55.75-.95.23.01.54-.12.92.05-.15-.09-.45-.22-.44-.35.85-.06.06.3,1.06.33-.53-.13-.67-.49-.96-.74-.84-.13-.25.37.05.62-1.14-.25-2.27-.83-2.7-1.36-.21-.4.77.02.62-.07.35-.6-1.87-.98-.99-1.16.76-.05,1.47.2,2,.25.23.32-.53.32-.53.49l.38-.14c.23.13.38.35.14.41.7-.04.33-1.02.95-1.5-.24-.1-.5-.26-.8-.19l.1.15c-.6.11-.82-.29-1.1-.12-.43-.19-1.1-.33-.76-.56l.84-.11c-.24.03-.5.19-.24.25-.37-.06,1.12-.49,0-.48l-.56.23c-.45-.12-1.34-.14-1.12-.33-.81.22.11.02-.84.29,1.19-.28,0,.36,1.25.06-1.11.23-.46.25-1.43.42.28-.01.53-.06.4.05.08,0,.19.02.25.02h-.02s.03,0,.03,0c.04,0,.05,0,.01,0,.12-.03.27-.06.42-.07.65.05.63.29.95.39-.14.09-.32-.06-.62-.02l.49.15c-.62-.02-1.04.11-1.39-.09l-.03.14c-.37.04-.52.11-.27.23-.14.02.64.34.18.15l.28.5-.15-.03c-.17.4.81,1.09-.39,1.32.12.18.28.36.05.56l-.54-.07c.14.22-.65.43-.12.63-1.46-.12-.5.81-.83,1.07l.68.16c-.09.21.06.46.27.8l.61.12c.44.29-.52.29-.54.5-.22-.1-.14-.12.01-.12-1.38-.28.73.94-.33.74.17.16.08.17-.08.12,0,0,0-.01-.02-.03l-.02.02c-.1-.03-.22-.07-.32-.1.14.06.26.1.32.11-.01.05.02.15.11.29l-.57-.35v.02c-.23-.09.24.22.67.47.07.09.16.2.27.32-.9-.59.16.4-.79-.25.41.39.09.55.9,1.4-.11-.1-.18-.14-.16-.18-.17-.02-.33-.05-.16.26l-.61-.59c.21.32.41.65.6.99-.45-.3-.66-.51-.99-1.08.43.96.07.42.44,1.39l-.3-.46c-.05.07.21.77-.09.42-.68-.77-1.03.39-1.81-.4.52,1.53-.39-.64-.1.57-.12-.36-.22-.56-.23-.9-.15.42-.39-.54-.4.52-.07-.38-.02-.56-.07-.78,0,.08-.03.34-.07.11-.04-.22,0-.32,0-.49-.16.1-.12,1.25-.08,2.36-.18-.51-.22-.44-.34.29-.06-.37-.13-.75.04-.87-.11-.06-.52-.6-.62.28,0-.23-.13-.08-.17.02-.22-.08-.22-.15-.46-.09l.03.15c-.31,1.04-.25.19-.46.27l.03-.1c-.18-.85-.32.31-.41-.67l-.21.63c-.57,1.31-.06-.91-.46-.52l-.09.38c-.37.35.56-1.88.61-2.07.05-.12.13-.15.2-.22.24-.85-.46.73-.75.79.23-.41.68-.98.63-1.11.2-.3-1.19,1-.78.19-.21.29-.4.6-.67.74-.23-.05.65-1.25-.26-.58.06-.08.13-.15.19-.21-.29.11-.63.03-1.17.31.89-.74.56-.7.2-.7-.34,0-.73-.02.21-.51-.1-.08-.17-.19-.26-.28l.2-.08c.03-.26-.46-.14-.97-.07.12-.11.32-.13.42-.16.28-.48.22-.42-.89-.53l.66-.17c-.41-.05.97-.63.18-.88.08,0,.21,0,.31.03-.42-.17.07-.41.35-.54.26-.15.36-.24-.87-.53-.19-.12-.38-.25-.56-.4-.26.36-1.05-.29-1.49-.2-.11-.22.84-.32.91-.06h-.13c1.25.38.58-.48,1.45-.28.15-.95,1.05-1.71,1.3-2.57l-1.01-.12.13-.29c.25-.03.8.06.71.27.59.01-.39-.47-.6-.52.5-.34,1.11.42,1.17.3l-.03-.19h-.12c-.37-.22-.8-.33-.69-.58.23-.12.63.05.68,0,.07.02.11,0,.05-.09.06-.13.11-.24.16-.29l-.81-.09c-.35-.21.12-.25-.8-.34,1.39.15.81-.9,1.3-.84-.45-.42-.34-.6-.15-.74-.17-.04-.96-.48-.74-.62,1.49,1.09.88.13,2.02.86-.78-.46.14-.51-.92-1.2.23-.02.52.46.92.68-.27-.79.86-.15,1-.55-.12-.21-.39-.47-.51-.84.29.3.57.61.83.93,0-.14-.62-1.26-.08-.6-.11-.17-.29-.43-.27-.53.67.34.93-.04,1.37-.25.39-.23.96-.23,1.31.88-.09-.48-.03-.52.06-.53-.05-.12.02-.6.02-.93.13.32.23.63.31.94.17-.92.38,0,.57-.86l-.15.13c.38-.98.09-2.32.26-3.63-.37,1.14-.73-1.83-1.31-.13-.12-.27.09-.43.03-.74-.13.57-.27.69-.59.45l.02-.14c-.82.21-1.25-.29-2.35-.38l.26.61c-.22-.02-.33-.2-.47-.32.08,1.02.58-.13.68.99-.67-1.21-1.3.44-2.09-.83-.31.14.42.64.12.77l-.26-.32.17.51c-.22.02-.57-.37-.75-.66.07,0,.09-.16.13-.22-.5-.27-.65.56-.81.49l.42.03c-.56.8-1.81,1.13-1.79,2.36l.27.16c.01.83-.59.16-.82.88l-.04-.06c.17.29.2.53.08.67-.21-.35-.78-.09-.99-.51.14.93.22.57,1.03,1.49l-.5-.15c.35.34.56.45.55.78-.3-.42-.8-.12-1.21-.64-1.34.31.67,1.38-.98,1.21,1.28.71.92-.37,1.17-.1.48.02.93.57.75.71-.07.14-1.88-.04-1.94.39.02-.04-.09-.07-.07-.11-.39.09.41.43-.21.5.81.3-.11.25.96.52l-.16-.46c.23.29,1.43.79.74,1.03-.21-.08-.47-.25-.61-.37-.34.04.16.26-.19.3-1.06-.27-.12-.54-.88-.97-.48.02.67.64-.46.25,1.43.51-.28.39.78.94l-.64-.16c.09.07.37.24.34.32l-.8-.34c.66.4-.72.33-.39.64.09-.49.8.06,1.31-.04.73.79-1.75-.03-1.59.71-.07-.11.46-.25.73-.05-.16.1-.44.21-.8.21.03.47.67.08,1.03.36-.81-.02.27.29.48.54l-.65-.14c-.53.41,1.33.44.72.78l-.86-.39.18.29-.73-.21c.49.36.32.5.05.81.48,0,1.19.25,1.16.54-.42.15-.63-.2-.57.25-.41-.14-.92-.33-.28-.44-.21-.05-.4-.16-.61-.21-.5.18-.19.61-.19.78.03-.06.07-.14.17-.17.29.26.58.5.88.72-.26.09-.45,0-.65-.08.06.14.36.24.43.43-.54-.05-1.11-.04-1.35-.35.19.24.4.47.61.68-.23.05-.63.38-.84.3-.32.45,1.14.84.79,1.37.11,0,.22.04.32.12-.02.45-.58,1.07.32,1.36l-.81.62c.35.33,1.01-.81,1.59-.29.48.31-.69.48-.87.75.57.06,1.6-.03,1.13.72-.23-.04-.17-.21-.3-.3ZM234.18,282.21c-.16.06-.58.28-.39-.08.56-.54.39-.2.39.08ZM241.18,282.57c-.04.23-.15.12-.27-.13.07-.06.16-.04.27.13ZM245.72,269.42h.03c-.27.06-.17.04-.03,0ZM246.03,269.27c-.09-.03-.18-.04-.28-.04.17.03.18.08.12.12.18,0,.3,0,.16-.08ZM236.65,268l-.18.02c-.16-.18,0-.1.18-.02Z"/>
      <path class="st3" d="M240.46,283.52c-.03-.11-.03-.24-.04-.36-.03.11-.04.24.04.36Z"/>
      <polygon class="st3" points="229.21 275.68 229.21 275.67 229.09 275.67 229.21 275.68"/>
      <path class="st3" d="M250.59,275c-.11.04-.24.05-.36.05.16.04.3.04.36-.05Z"/>
      <path class="st3" d="M244.89,268.38l.19.08s.1-.07.2-.11c-.15.02-.38.06-.39.04Z"/>
      <path class="st3" d="M248.58,266.16c-.09,0-.03-.06-.12-.06l-.29.12c.06.11.32.11.4-.06Z"/>
      <path class="st3" d="M247.08,267.97c.55-.09.35-.17.24-.26v.02c-.77.11-.51.17-.24.24Z"/>
      <path class="st3" d="M247.29,267.69s-.06-.06-.04-.1c-.31.05-.05.05.04.1Z"/>
      <path class="st3" d="M245.67,269c.15-.03-.72-.06-.48-.07-.71-.08.85.29.48.07Z"/>
      <polygon class="st3" points="248.89 267.59 248.22 267.75 248.78 267.74 248.89 267.59"/>
      <path class="st3" d="M248.48,268.72l.18-.22c-.12,0-.18-.02-.24-.05-.02.13-.15.27.05.27Z"/>
      <path class="st3" d="M248.43,268.45c.01-.07,0-.13-.12-.16,0,.04.03.11.12.16Z"/>
      <polygon class="st3" points="249.14 267.88 249.01 267.96 248.98 268.13 249.14 267.88"/>
      <path class="st3" d="M248.03,271l.14.29c.23.08.38.04.31-.07-.15-.09-.22-.2-.45-.22Z"/>
      <path class="st3" d="M250.04,270.67c-.15.04-.31,0-.54,0l.84.19-.3-.19Z"/>
      <path class="st3" d="M250.08,271.43c.23.08.59.5.61.18-.23-.08-.36-.36-.61-.18Z"/>
      <polygon class="st3" points="248.2 274.86 248.21 274.8 246.83 274.5 248.2 274.86"/>
      <path class="st3" d="M249.74,279.92c.53-.19-.67-.55-.11-.66-.24-.26-.45.09-.64-.16.16.39-.09.39.75.81Z"/>
      <path class="st3" d="M248.99,279.1c-.03-.06-.06-.13-.12-.22.04.11.08.17.12.22Z"/>
      <polygon class="st3" points="242.07 264.69 242.13 265 242.14 264.52 242.07 264.69"/>
      <path class="st3" d="M242.48,263.7l-.15.88.24-.78s-.11.1-.09-.1Z"/>
      <path class="st3" d="M233.84,284.15l.13-.17c.08-.22.03-.28-.07-.38l-.07.55Z"/>
      <polygon class="st3" points="231.22 280.93 231.25 281 231.8 280.4 231.22 280.93"/>
      <path class="st3" d="M228.57,278.44c.03.15.26.24.29.39-.27-.24.63-.81-.29-.39Z"/>
    </g>
  </g>
</svg>