<?xml version="1.0" encoding="UTF-8"?>
<svg id="Layer_1" xmlns="http://www.w3.org/2000/svg" version="1.1" viewBox="0 0 422.81 441.19">
  <!-- Generator: Adobe Illustrator 29.3.1, SVG Export Plug-In . SVG Version: 2.1.0 Build 151)  -->
  <defs>
    <style>
      .st0 {
        fill: #864c4e;
      }
    </style>
  </defs>
  <g>
    <g>
      <path class="st0" d="M333.25,71.5c1.06-.57.14-1.21.19-1.47-1.57,1.28,0,1.67-.19,1.47Z"/>
      <polygon class="st0" points="317.93 84.27 317.98 83.72 316.13 86.2 317.93 84.27"/>
      <path class="st0" d="M302.59,94.61c2.44.46,5.37-4.02,8.45-5.34l.68.03.44-2.01c-3.2,2.42-6.97,6.13-9.57,7.32Z"/>
      <path class="st0" d="M292.3,97.1c.9.21-1.41,1.71,2.01-1.14-.23.07-.3.07-.44.1-.32.24-.78.55-1.57,1.05Z"/>
      <path class="st0" d="M293.87,96.05c1.57-1.16-1.38.26,0,0h0Z"/>
      <path class="st0" d="M286.72,101.56l1.75-1.98c-.67-.02-2.6,1.22-2.07.49-1.96,1.8-1.28,1.82.33,1.49Z"/>
      <path class="st0" d="M285.48,104.03l.93-.99c-.29,0-.61.15-.93.99Z"/>
      <path class="st0" d="M288.4,100.96l-1.99,2.08c.47.02.83.46.94-.91.11.56.28-.17,1.05-1.17Z"/>
      <path class="st0" d="M289.86,100.26c1.4-.52,3.06-1.39,1.31.6,3.88-3.02,2.57-3.63-1.31-.6Z"/>
      <path class="st0" d="M302.85,96.65l1.87-.66,1.03-1.43c-.52.71-3.32,1.7-2.91,2.09Z"/>
      <path class="st0" d="M273.17,110.17c.09.4,1.29.3,1.73.58l1.28-1.47c-.94.37-2.58,1.26-3.01.89Z"/>
      <path class="st0" d="M274.9,110.75l-1.92,2.19c2.09-1.43,2.29-1.95,1.92-2.19Z"/>
      <polygon class="st0" points="286.25 105.89 289.26 102.09 285.53 106.43 286.25 105.89"/>
      <polygon class="st0" points="264.39 116.56 265.17 114.9 263.65 117.67 264.39 116.56"/>
      <path class="st0" d="M258.71,120.98c.52-1.29-2.04,0-1.3-1.11-1.49,1.28-2.46,2.77-3.32,4.13,1.09-1.21,2.5-2.17,4.62-3.02Z"/>
      <path class="st0" d="M252.57,126.17c.53-.62,1.01-1.36,1.53-2.17-.58.64-1.1,1.34-1.53,2.17Z"/>
      <path class="st0" d="M268.98,115.65c-.31-.05-1.01-.28-2.44.46l1.53.19c.28-.2.59-.42.91-.65Z"/>
      <path class="st0" d="M268.12,116.31h-.05c-.99.69-1.68,1.17-1.98,1.38.26-.17.87-.59,2.03-1.38Z"/>
      <path class="st0" d="M269.21,115.49c-.08.06-.15.1-.23.16.15.02.22.01.23-.16Z"/>
      <path class="st0" d="M279.65,109.45c-1.01,1.45-3.44,4.01-.2,2.76.54-1.29-1.32-.58.2-2.76Z"/>
      <path class="st0" d="M271.11,115.74l2.57-1.58c-.21-.19-.89-.2-.4-.92l-2.17,2.51Z"/>
      <polygon class="st0" points="270.12 116.88 271.11 115.74 270.15 116.32 270.12 116.88"/>
      <path class="st0" d="M257.29,123.84c-.77,1.15-1.88,2.04-3.12,3.07,1.5-.87,2.99-1.86,4.35-2.87,0-.41.23-1.33-1.23-.19Z"/>
      <path class="st0" d="M262.6,120.24c-.06.07-.14.15-.2.22.2-.03.33-.1.2-.22Z"/>
      <polygon class="st0" points="241.59 136.55 241.91 136.54 241.84 136.36 241.59 136.55"/>
      <path class="st0" d="M258.87,124.02c1.16-.61,1.62-1.28,2.02-1.99-.71.67-1.49,1.34-2.37,2,0,.18.05.28.35-.02Z"/>
      <path class="st0" d="M249.34,129.24c.67-.23,1.39-.55,2.14-.9-.73.13-2.12.54-2.14.9Z"/>
      <path class="st0" d="M261.88,120.49l.13-.15c-.48.07-.37.13-.13.15Z"/>
      <path class="st0" d="M261.88,120.49c-.44.52-.71,1.05-.99,1.55.58-.54,1.1-1.07,1.51-1.57-.17.04-.37.04-.53.03Z"/>
      <path class="st0" d="M241.99,144.85c-.43-.91,1.69-3.72,4.65-4.68,1.83-2.34-1.63-3.75-4.74-3.63.19.39.43.71-1.56,2.99,1.15-.22,5.98-3.06,4.54-.82-2.8,2.82-2.76,1.71-4.59,2.48,2.03-.04-2.84,4.49-1.05,5.38l2.32-2.63c.22.18-.49,1.3.43.91Z"/>
      <path class="st0" d="M246.46,133.15l.9-.85c-1.21.72-2.24,1.02-4.17,1.54-1.33,1.62-1.43,2.17-1.34,2.52l4.86-3.58-.24.37Z"/>
      <path class="st0" d="M251.73,128.96c-.12,1.43-2.18,3.58-.04,3.4,2.81-2.24,1.46-2.24,2.89-3.9-4.47,3.71.97-1.48-2.74.57.8-.84,1.58-1.5,2.33-2.12-.91.53-1.82,1-2.69,1.42.06-.01.1-.02.15-.03l.02-.02v.02c.28-.05.4-.03.13.08,0,.02-.06.07-.08.09.06.14.05.31.04.48-1.47.85-.38-.06-.04-.48-.02-.05,0-.12-.04-.17h-.03s-4.27,4-4.27,4c1.07-.63,2.28-1.59,4.37-3.35Z"/>
      <path class="st0" d="M278.3,115.89c-.2.03-.24-.04-.3-.09-.23.33-.29.48.3.09Z"/>
      <path class="st0" d="M275.99,116.77c.25-.37.29-.92,1.46-1.64,1.15-.44.3.42.55.66.5-.71,1.89-2.32-.51-1.22l-.25.36c-2.11,1.07-5.31,1.77-5.07,1.42,1.12.37,2,.56,3.82.41Z"/>
      <path class="st0" d="M263.87,123.12l-3.55,3.31,2.52-.73-.43-.37c2.33-1.47,1.45-1.66,1.46-2.21Z"/>
      <polygon class="st0" points="240.83 136.47 240.64 135.19 239.41 138.16 240.83 136.47"/>
      <polygon class="st0" points="235.95 140.45 235.52 139.54 234.58 141.03 235.95 140.45"/>
      <path class="st0" d="M87.44,299.39l.58-1.33c-.31.6-.48,1.02-.58,1.33Z"/>
      <path class="st0" d="M81.59,307.9l.26.48c.05-.55,0-.82-.26-.48Z"/>
      <path class="st0" d="M121.89,245.08c-2.07.94-4.69,1.74-3.69,2.28l1.23.24c.83-1.21,1.66-1.97,2.46-2.52Z"/>
      <path class="st0" d="M62.93,333.15c.2-.1.4-.21.61-.32-.03-.62-.06-1.2-.09-1.73-.16.62-.33,1.32-.52,2.05Z"/>
      <path class="st0" d="M65.85,336.82l-2.07,1.89c.54-.38,1.21-.98,2.07-1.89Z"/>
      <path class="st0" d="M120.86,253.63l.25-1.98c-1.7,2-.52,1.48-.25,1.98Z"/>
      <path class="st0" d="M186.6,182.02c-1.62.87-2.81,1.68-3.77,2.48,2.02-.98,3.94-1.43,3.77-2.48Z"/>
      <path class="st0" d="M94.58,309.16c.32-.82.35-1.25.14-1.36-.35.84-.46,1.37-.14,1.36Z"/>
      <path class="st0" d="M178.97,187.96c.31-.13.57-.3.87-.45.86-1.01,1.74-1.99,2.98-3.01-1.49.72-3.05,1.73-3.85,3.46Z"/>
      <path class="st0" d="M271.45,115.69c.15-.05.3-.14.44-.18-.05-.14-.22-.02-.44.18Z"/>
      <path class="st0" d="M325.7,89.61c-.44.38-1.22.92-1.94,1.44.4-.19.99-.61,1.94-1.44Z"/>
      <path class="st0" d="M215.88,155.96c.99-.9.09-.23,0,0h0Z"/>
      <path class="st0" d="M223.6,155.15c-.14.27-.21.53-.08.74-.08-.27-.04-.51.08-.74Z"/>
      <path class="st0" d="M173.68,201.86s-.05.05-.09.08c.43-.11.36-.1.09-.08Z"/>
      <path class="st0" d="M217.75,155.06c-.47.22-.99.5-1.52.84.27-.11.73-.36,1.52-.84Z"/>
      <path class="st0" d="M217.21,154.84c.38-.26.68-.46.97-.66.02-.24-.17-.24-.97.66Z"/>
      <path class="st0" d="M214.48,157.19c.58-.5,1.16-.91,1.74-1.29-.25.11-.37.13-.34.06-.3.26-.71.62-1.4,1.23Z"/>
      <path class="st0" d="M189.54,188.03c.09-.04.18-.09.28-.12.69-1.24.3-.79-.28.12Z"/>
      <path class="st0" d="M107.99,278.68c.03-.06.03-.1.05-.15-.05.04-.11.09-.15.13l.1.02Z"/>
      <path class="st0" d="M105.68,282.89c.18-2.42,1.04-3.21,2.21-4.23l-3.41-.7,1.2,4.93Z"/>
      <path class="st0" d="M101.61,279.02l-2.8,2.15c1.16-4.25,3.42-6.3.4-4.56,2.37,2.38-7.58,10.88-5.08,13.25l-1.87,1.41c.4-.5.29-.7.69-1.2-3.82,2.62.12,4.03-3.44,8.33-1.32,1.45-2.48,2.3-2.06.98l-1.75,4.04c-.76,1-1.07.42-.31-.58l-3.47,5.62-.06-.1c-.11,1.07-.53,3.33-.8,4.39-1.29,1.14.15-.91-.43-.78l-1.26,3.53c-1.52.77-.61-2.25.83-4.3-4.61,1.02-.91,3.02-6.46,8.14l1.48-3.14c-2.78.82-3.63,3.47-6.7,6.11,1.01-.44,6.66-4.94,5.25-1.13-.81.8-1.69,1.98-2.26,4.15-1.01-.64-1.88,1.28-3.21,3.52l-1.23-1.02c-1.12,2.63-.33,2.88-.61,4.68-1.81,2.57-3.18,2.45-4.45,2.51-2.89,4.12,3.5-1.86.58,3.33-2.74,3.21-3.76,6.04-5.63,10.78-2.02,2.18-.54-.95-1.49-.31l-.16,1.44-.08.72-.02.18v.09s-.01.02-.01.02h0s.52.34.52.34h0s0,0,0,0h0s0,0,0,0h0s0,.13,0,.13c.03.07.03.04.02.04.05.05,0,0,.01,0,.06.08.39.63.03.85-.02.79-.69.3-.54-.32.07-.29.31-.5.51-.53.03.01-.11-.04.09.05l.25-.24-.1.17s.02-.06.03-.08l.1-.22.17-.45c.1-.3.17-.61.21-.93.94-.62.56.92,1.25.98,1.95-5.44,1.83-4.6,2.95-9.54l3.09-2.83c-2.63,1.84-1.73-2.12-.85-5.55-1.07.57-1.98,1.05-2.52,1.43l2.24-4.93c.57-.39.73.36.8,1.45.09-.38.18-.74.23-1.03,1.54-1.27,1.76.07,1.74,1.69-.63.36-1.26.71-1.88,1.06.07,1.63.29,3.24,1.21,3.53.04-.39.27-1.03.6-1.69.03.43.1.74.32.7.24-.06.25-.71.4-1.66l2.14-.03-.42-.63,4.79-5.17c1.31-5.11,1.58-10.18,5.54-17.1-.07,2.35,1.49,1.56,2.69,2.53-2.58.83-2.93,5.41-5.52,8.6,1.34-1.67,1.68-.87,1.59-.27l2.93-6.84c.94.85,1.66-.73,3.18-1.99-2.87-.25,1.79-5.4,2.9-8.25.78.34,1.06,1.41-1.2,4.24,3.83-2.16.64-5.9,4.23-8.15-.5.73-.89,1.04-.75,1.57.6-2.12,4.09-5.84,3.96-4.45l-.51.72c3.69-4.57,10.74-14.26,9.65-16.23.25.12,1.53,2.17,1.65,2.71.27-4.2.58-8.41.94-12.64.84,1.85,6.4,1.78,4.17,6.22,1.07-.93,2.37-2.09,3.73-4.77-.8.57-3.53.19-2.84-.92,3.83-1.49,2.38-1.27,6.53-3.54-1.21.84-2.38-2.18-.85-3.86.1.54,2.26,1.66,1.96,2.48l1.52-6.08c-.53,1.39,1.63,1.72,3.04,1.29-.8.08,3.21-3.63,3.99-4.93l-2.05,1.36c4.49-4.48,1.21-7.3,5.56-11.9-.09.96,1.35,3.77,3.77,1.65-.08-2.04-.66-9.45,2.43-14.3l1.33-.22,2.31-3.76c-.35,3.42-2.21,11.99-3.67,16.16,2.09-1.3,1.16.17,3.51-2.48,1.41-.39-.47,2.21-1.14,3l6-5.67c-1.47-.89,3.15-5.71,1.94-6.45l-4.95,7.69c-1.47-.87.13-7.04,4.44-11.06,1.52-.61,1.35,2.87,1.84,3.17.11-.95,3.11-4.74,3.77-4.84l-1.11,2.4c2.72-1.89,2.17-5.35,6.07-7,1.04-.88,4.38-1.32,3.85-2.18-2.9.19-7.36-3.67-7.3-5.73.42-.26,6.39-3.74,8.17-4.13,2.64-.49.06,4.89,2.32,4.48-.26-.38.24-1.65.48-2.13,1.29-.71.55,1.42,2.64-.87-.8-1.58,4.64-4.25.07-2.04,1.85-2.45,2.57-1.98,5.1-4.47-1.58-.01-.22-4.9,1.69-7.33.16.44,1.04.38,1.46.34,4.67-4.13,7.66-5.81,11.99-9.68.67-.05,3.09-1.55,2.68-.21.42-.78.61-1.72,1.92-2.94,3.56-1.2-2.83,2.82.31,2.38-.49-.89,2.56-4.08,4.07-6.22-1.59-.62-4.62,3.67-6.11,5.83-1.4-1.55.46-6.16,4.42-10.89,3.31-3.57,2.47-.36,2.91-1.14,7.11-5.66,3.49-7.83,10.24-11.57,3.15-.91,1.81,1.94,2.94,2.25-2.69,2.91-5.15,3.26-7.16,5.03l2.91-1.65c-.67,1.15-2.45,3.1-3.78,3.75,2.66-.74,11.81-9.77,17.93-13.34.68-1.13,2.04-2.85.92-2.62l-1.59,1.55c-2.26.47,2.28-3.8-.21-2.4,1.81-2.48,3.66-5.5,7.3-7.67l1.57.69c-.35-.29-2.7,1.01-3.32,2.12.93-1.63,6.29-2.43,6.53-5.18l-2.95,1.02c1.85-2.47,3.74-6.04,6.96-7.97-2.26-.13-.57.66-3.73.93,3.15.27-7.51,5.87-3.19,5.36-3.39.11-4.2,2.26-8.05,3.16.4.32,1.58-.05-1,1.73-.02.2-.16.56-.25.78-.08.05-.11.06-.19.1.06-.02.11-.04.17-.06-.06.14-.06.16.06-.02.72-.3,1.35-.48,1.72-.41-.48,1.86-4.33,5-5.25,6.52-1.58,1,.23-.94-.89-.7l-1.36,2.29c-.9-.7-4.97,1.73-2.03-1.57l-3.05,2.48c-2.17,1.01-4.78,2.88-5.97,4.51-1.57,1.02-2.77,3.98-2.11,2.27l-4.23,4.55-.23-.17c-4.7,3.89-8.22,9.62-14.74,12.78-1.33,1.59-2.68,3.26-5.43,5.34l-1.14-.26c-1.72,2.02-6.48,4.67-6.62,6.18-3.86.04-9.72,8.38-13.34,11.3l.75,1.02c-2.35,2.17-4.27,4.58-6.73,7.73l.96.61c-1.77,3.06-6.75,5.66-10.43,9.63-.05-.56.98-1.47,1.84-1.99-6.32,2.9-8.1,11.1-13.39,14.15-.69,1.35-1.5,2.04-2.4,2.61.09-.1.16-.21.2-.31-.11.1-.26.26-.41.43-.58.35-1.19.69-1.81,1.1.61-.27,1.17-.56,1.59-.86-.75.84-1.79,2.21-2.69,3.65l-1.36-.26c-.08.11-.15.2-.23.31-1.43.94-.46,1.36.8,1.3-.41.76-.75,1.49-.93,2.13-2.32-.27-2.4,3.73-5.15,3.75.02,1.51-4.91,6.89-3.85,8.94-.25-.13-.66.16-.1-.54-1.38,1.27-2.77,2.54-3.36,4.22l-1.67-.35-.98,4.44c-2.26,1.35-3.32,1.82-2.7-.83-2.29,5.75-2.47,4.19-4.16,9.25l-.62-.8c-1.09,1.44-1.78,4.53-3.08,4.89-3.96,2.05-12.16,15.76-19.45,23.24,3.52.02-3.82,3.19-2.21,4.81-.9.11-2.04,1.07-1.58-.64-2.45,4.72-5.38,5.93-5.86,10-.91.12-.2-1.5-.84-1.28-.11.43-.44,1.72-1.09,1.95-.64.22-.04-.96.17-1.82-2.92,4.54-1.46,6.17-.03,7.59-2.28,1.75-2.93,2.95-2.93,5.31-1.06.44-2.49,1.39-.85-1.53-1.12,1.51-7.07,9.1-5.84,10.12-.66.27-1.54,2.18-1.65,2.69-.5.74-.91,1.33-1.25,1.83-.17.25-.33.47-.47.67-.07.1-.14.2-.2.29l-.09.14-.21.36.12-.21c-.68,1.13-1.05,2.3-1.11,3.67-.02,1.35.23,3,1.49,4.72-.32-.6-.55-1.23-.7-1.86,1.39.92,2.12,1.79,3.39,2.78,1.18.92,3.3,1.94,5.79.99l-.08.23c3.05-.62,4.35-3.07,4.58-3.32.44-.65.59-1.03.75-1.41.31-.76.64-1.5,3.31-4.25l-1.22-.3c-1.78-1.98,4.82-4.82,6.33-9.04l-1.41.96c.54-2.49,6.47-3.74,8.01-5.58.46-.32-.14.89-.39,1.6,4.6-4.47-.87-1.54,1.31-5.68,1.16-.27,1.19,2.11,3-.46,1.4-.94,2.58-9.2,6.21-11.93-1.04.44-2.08.88-1.33-1.23,1.54-2.98,6.93-6.14,6.92-9.75.38-.25.61-.28.75-.21.98-2.39,3.94-7.27,3.91-9.15,4.64.43,7.54-13.96,10.6-11.65l4.51-6.3.18.4c3.22-3.76,3.6-5.68,3.98-7.61.92-.74.67.14.77.34,5.14-5.18,5.47-5.82,7.92-11.71l1.35.3c.5-1.75,8.24-6.74,11.9-12.99.06.14.14.41-.11.95,4.24-6.99,15.4-11.83,14.16-17.01l2.86-4.59c-4.99,4.72-.7-2.08-3.18-.55,1.68-2.15,5.83-4.09,3.68-1.55l-.52.22c.83,2.49,6.53-5.54,7.55-4.29,9.38-9.69,19.73-17.9,29.04-26.41l-2.3-.33,3.3-2.93c1.14-.47,2.1-.01-.26,2.07,1.91-.37,3.29-4.2,3.09-4.56,5.03-3.62-.35,3.18,1.08,1.94l1.8-1.83-.57.23c1.04-1.94.65-2.65,3.5-5.13,2.02-1.33,1.66.01,2.41-.57.08.1.36-.07,1.11-.92l4.24-3.58-2.61.4c1.37-2.16,3.96-3.41.96-2.92,4.44-.66,16.21-12.97,18.5-13.85,1.95-3.03,4.57-5.21,7.89-7.82-1,.44-2.51-.39.42-2.57,1.09,3.4,6.06-3.15,9.85-3.16-3.04.43,7.77-6.83,3.16-5.97,2.53-1.7.93.85,3.21.01,4.82-5.55,12.95-9.27,19.75-15.08-.16-.43-1.75-.04-.63-1.73l5.07-1.16c1.27-1.24-.24-2.98,3.24-3.74-.58-.02-1.46-.04-.6-.87,15.17-8.91,27.66-22.84,44.55-29.69-2.45.68-1.19-.3.3-1.38-1.1.52-.59-.9-1.12-1.25l7.06-2.86c.2-2.12,6.53-4.56,6.31-6.28l-1.8,1.54c1.57-3.29-5.94-.96-6.89-3.17-1.74,3.7-9.46,2.69-12.5,8.48-1.32.34.46-1.25-.42-1.31-.62,1.68-1.95,2.87-4.9,4.39l.16-.42c-7.39,5.55-11.18,7.05-19.94,12.67l1.32.49c-1.89,1.2-2.49,1.18-3.5,1.57-1,2.95,5.09-3.64,4.39-.68-3.82-.18-12.62,9.35-15.84,8.41-2.74,2.06,1.62.47-1.12,2.54l-1.17-.03-.11,1.28c-1.88,1.24-3.34,1.2-3.78.76.48-.27,1.13-1.08,1.56-1.48-2.85,1.08-6.34,5.25-7.31,5.64l2.89-1.66c-6.99,6.26-16.58,12.59-22.67,19.45h.88c-4.71,5.15-4.68,3.01-10.24,8.19l.13-.28c-.82,1.39-2.2,2.9-3.83,4.18,1.05-1.73-3.57,1.34-2.11-.82-5.03,5.66-2.29,3.04-4.73,7.81l-1.46.04c-.75,1.72-.57,2.14-3.28,4.79,1.84-2.62-2.75.51-.78-2.55-7.35,3.66-7.59,9.25-12.27,9.45-1.06,4.31,6.1-3.48,4.92-1.72,1.83-.5-1.01,3.41-3.05,4.86-1.93,1.64-5.39.41-10.12,4.73.48-.42.38-.59.86-1-2.22,1.11-2.89,3.79-5.77,4.98-.18,2.24-2.87,2.51-1.89,4.27l4.02-4.29c-2.12,2.61-2.86,6.4-7.61,9.3.04-.58.87-2.07,1.5-3.04-1.57.66-1.99,2.38-3.61,3.07-1-1.77,4.92-5.16,6.54-8.66-1.83.55-4,5.61-4.12,2.83-.06,3.73-4.86,4.03-6.6,8.51l-.6-1.05c-.37.61-1.02,1.98-1.96,2.83l.61-2.68c-1.66,3.35-5.69,3.85-7.63,6.7,5.06-4.92,2.12-.08,4.87-1.52-5.16,7.16-5.75,1.23-12.32,8.47.83-1.04,4.03-2.97,2.94-1.14-1.49,1.13-3.56,2.52-4.8,2.89-4.4,4.74,1.56.16.12,2.61-2.57.54-1.83,2.65-3.49,4.98l-.86-.83c-5.71,4.7.41,3.13-4.87,7.21l.76-3.16-2.1,2.77-.48-1.46c-1.88,3.41-2.88,4.07-5.69,6.48,1.2-.04,1.25,1.84-.95,4.23-2.03,1.14,0-1.69-3,1.81.16-1.27.25-2.76,2.43-3.47-.14-.42.16-1.26.02-1.68-2.25,1.18-4.25,4.28-5.38,5.52.47-.44,1.04-.97,1.44-1.14l-3.31,6.06c-1.04.48-.75-.38-.45-1.23-.82,1.09-1.04,2.15-2.3,3.7-.38-1.04-1.21-1.61.36-4.02l-3.48,5.48c-.6.04-3.05,1.68-2.77.83-2.79,2.3-4.32,7.8-7.93,10.9-.01.31-.19.8-.73,1.66-3.01,3.24-6.45,5.51-8.68,10.44l-3.22,1.23c-2.25,3.48,4.22-1.8.49,3.98-2.54,4.16-2.29.51-3.72,1.56-.79,2.46-1.9,6.86-5.67,9.59.61-1.38,1.5-2.16,2.23-3.34ZM73.83,321.13c.31-.96.7-3.03,1.67-3.24.55,1.69-.45,2.05-1.67,3.24ZM68.93,328.3c-.07.82-.86,1.63-1.93,2.43.42-.82,1.04-1.65,1.93-2.43ZM205.24,166.07s-.03.07-.04.11c-1.97,1.05-1.26.69.04-.11ZM209.03,163.56c.24-.42.11-.53-.14-.53-.05.43-.81,1.1-1.75,1.78.45.03,1.03-.18,1.89-1.25ZM205.44,184.42l-.86.35c1.23-1.57,1.03-.97.86-.35Z"/>
      <path class="st0" d="M65.52,336.37c-.32.12-.55.06-.77-.01-.04.43.15.56.77.01Z"/>
      <path class="st0" d="M120.81,254l.11-.11c0-.11-.03-.19-.07-.26l-.04.37Z"/>
      <path class="st0" d="M163.94,217.58c-.78.52-1.3.72-1.7.79.17.24.64.13,1.7-.79Z"/>
      <path class="st0" d="M226.29,146.82l-2.06,2.06c1.05-.92,1.61-1.03,2.28-1.33-.22-.18-.91-.15-.21-.73Z"/>
      <path class="st0" d="M250.58,137.17c.24-.37.7-.56.94-.93l-.43-.37c-1.4,1.12-2.12,2.24-.51,1.3Z"/>
      <path class="st0" d="M230.86,148.25c.81.64,2.01-.75,3.48-2.16-.09.08-.18.16-.28.22-.41-1.47-1.81.23-3.2,1.93Z"/>
      <path class="st0" d="M234.69,145.78c.46-.42.94-.84,1.45-1.18-.16-.59-.67.38-1.45,1.18Z"/>
      <path class="st0" d="M213.01,159.39c.91-.41-.35-1.37.33-1.41,0-1.68-3.95,5.29-.33,1.41Z"/>
      <polygon class="st0" points="234.21 149.83 232.87 149.31 232.61 150.79 234.21 149.83"/>
      <path class="st0" d="M221.23,159.12l2.72-1.77c-.17-.13.07-.48.4-.87-1.57,1.22-3.42,2.41-3.12,2.64Z"/>
      <path class="st0" d="M224.35,156.47c.82-.63,1.56-1.28,1.89-1.8-.43.36-1.34,1.15-1.89,1.8Z"/>
      <polygon class="st0" points="230.99 152.87 230.09 153.26 228.26 154.62 230.99 152.87"/>
      <path class="st0" d="M194.57,181.31l-2.42,2.59c.01.56.9.12,1.78-.87.44-.78,1.32-1.76.64-1.71Z"/>
      <path class="st0" d="M204.84,176.93c-.89.42-1.12.25-1.79.29l.92,1.24.87-1.53Z"/>
      <path class="st0" d="M197.33,183.89c.02.55-3.03,4.27.26,1.27-.01-.55,2.41-3.13-.26-1.27Z"/>
      <polygon class="st0" points="157.11 218.33 157.74 217.69 155.88 215.98 157.11 218.33"/>
      <path class="st0" d="M129.33,256.06c3.2-2.67-.52-1.78,2.55-4.04.21-1.12-2.51,1.85-2.22.77-1.2,2.28-2.33,3.02-.33,3.27Z"/>
      <path class="st0" d="M129.66,252.79c.19-.37.39-.76.57-1.2-.37.64-.51.97-.57,1.2Z"/>
      <polygon class="st0" points="334.54 85.23 337.04 84.18 335.14 84.43 334.54 85.23"/>
      <path class="st0" d="M337.75,80.82l1.41.99.53-2.1c-.46.39-1.36,1.16-1.94,1.11Z"/>
      <path class="st0" d="M67.14,325.67l.21.39c.57-.12.93-.64,1.66-1.67l-1.88,1.28Z"/>
      <polygon class="st0" points="88.08 295.69 87.69 296.19 89.56 296.05 88.08 295.69"/>
      <path class="st0" d="M104.9,269.59c-.83.97-1.49,2.35-2.32,3.32,1.48-2.36,3.96-2.47,2.32-3.32Z"/>
    </g>
    <g>
      <path class="st0" d="M336.44,88.16c-2.95.14-1.82,1.09-2.24,1.31,4.91-.61,2.1-1.57,2.24-1.31Z"/>
      <path class="st0" d="M318.89,110c.02-.26-.02-.44.04-.75l-1.11,2.35-1.97.85,2.06-.7.98-1.75Z"/>
      <path class="st0" d="M316.59,122.38c-3.49-1.38-12.08-.21-19.52.02l-.66-6.87c1.79-.36,3.5-.64,5.08-.8l1.39.16,3.36-2.05c-3.1.68-6.51,1.42-9.92,2.16l.76,7.94c7.37-.41,14.79-.84,19.51-.56Z"/>
      <path class="st0" d="M295.44,131.94c1.47-.63-2.97,4.18,3.83-3.92-.41.35-.55.44-.79.63-.63.72-1.51,1.71-3.04,3.29Z"/>
      <path class="st0" d="M298.47,128.65c3.06-3.53-2.46,1.91,0,0h0Z"/>
      <path class="st0" d="M284.51,142.61l.2-.38.04-.09.26-.28.54-.57,2.14-2.26c-.62.27-1.99,1.29-3.04,2.05-.68.52-.55.34-.65.35-.06-.03-.08-.08-.09-.18-.12.42-.37.52-.31.77.02.11.1.23.25.35.15.12.4.29.65.24Z"/>
      <path class="st0" d="M281.7,144.36l1.62-.3.37-.07.15-.05.29-.1c-.13-.07-.26-.12-.44-.07-.36.06-1.13.26-1.99.59Z"/>
      <path class="st0" d="M286.87,141.19c-.77.79-1.81,1.81-1.79,1.92l-.38.51c-.18.08-.37.14-.57.21.2.12.37.32.55.35.2.09.37-.22.37-.94.06.29.12.25.23,0,.03-.06.06-.13.09-.21.01-.06.05-.15.27-.4.35-.41.76-.89,1.23-1.45Z"/>
      <path class="st0" d="M289.98,138.86c.72-.51,1.49-1.05,2.17-1.52.59-.43,1.1-.8,1.43-1,.61-.38.59.07-1.44,2.28,4.05-3.86,5.38-6.18,4.88-6.01-.26.05-1,.66-2.17,1.75-.56.54-1.24,1.18-2.03,1.93-.7.68-1.74,1.57-2.84,2.57Z"/>
      <path class="st0" d="M313.85,119.2l1.57-1.54,1.28,2.65-2.56-.25-4.1.65c1.27-.2,4.48-.01,6.66.03l-1.62-3.35c-.88,1.01-1.47,1.76-1.24,1.81Z"/>
      <path class="st0" d="M267.5,160.95c.41-.36-2.1-1.06-2.56-1.56l-4.68.3c2.39.33,6.94.69,7.24,1.26Z"/>
      <path class="st0" d="M264.94,159.4l7.01-.45c-6.24-.25-7.39.02-7.01.45Z"/>
      <path class="st0" d="M280.78,146.43l2.82-.64c.75-.19,1.08-.34,1.59-.51.43-.23.68-.81.98-1.15.06-.13.46-.55.77-.89l.96-1.06c-.7.76-1.78,1.85-1.93,2.13l-.56.71c-.21.22-.52.21-.8.33-.33.09-.49.17-.98.28l-1.69.35-3.37.71,2.2-.26Z"/>
      <polygon class="st0" points="270.98 148.51 274.78 147.06 267.99 149.4 270.98 148.51"/>
      <path class="st0" d="M271.22,153.39c1.7-2.61-3.85,1.97-1.84-.56-3.52,3.53-6.06,6.96-8.29,10.06,2.58-3.09,5.67-6.1,10.13-9.5Z"/>
      <path class="st0" d="M257.3,168.02c1.24-1.57,2.45-3.28,3.79-5.13-1.37,1.65-2.65,3.32-3.79,5.13Z"/>
      <path class="st0" d="M278.02,149.63c-.29.1-.74.22-1.55.66l3.48-1.66c-.83-.08-2.07-.11-3.99.05l2.88.64,1.19-.17-3.2,1.52,1.19-1.06Z"/>
      <path class="st0" d="M278.94,149.36l-.1-.02c-2.96.41-5.01.69-5.89.81.76-.1,2.56-.34,5.99-.8Z"/>
      <path class="st0" d="M278.55,149.16c-.2.17-.34.3-.53.47.27-.1.42-.19.53-.47Z"/>
      <path class="st0" d="M262.45,147.44c-1.3.31-3.04.73-4.52,1.08l.33,8.37c3.22-.34,5.35-.76.04-1.5l-.21-5.37s.13,0,.23,0c2.85-1.04-1.92-1.04,4.13-2.59Z"/>
      <path class="st0" d="M279.79,158.02l-7.42-.45c.14.28,1.47.73-.58.97l8-.52Z"/>
      <polygon class="st0" points="279.5 150.55 279.94 150.06 282.79 157.83 279.79 158.02 282.54 158.19 282.78 158.08 279.78 149.88 279.5 150.55"/>
      <path class="st0" d="M267.05,159.43c-2,2.63-4.47,5.2-7.19,8.16,3.11-3,6.32-6.11,9.37-9.05.2-.65,1.11-2.4-2.17.89Z"/>
      <path class="st0" d="M268.62,163.8c.22,0,.51.01.72.02-.43-.14-.77-.21-.72-.02Z"/>
      <path class="st0" d="M229.56,180.32c.22.04.42.07.65.11.04-.07.07-.13.12-.2l-.77.09Z"/>
      <path class="st0" d="M269.88,158.18c1.64-1.41,2.74-2.54,3.61-3.58l3.12,9.39c-.71,0-1.34.03-1.96.07.6.05,1.22.09,1.93.15l-3.24-9.77c-1.26,1.26-2.65,2.64-4.12,4.1-.09.3-.05.4.66-.37Z"/>
      <path class="st0" d="M250.55,176.05l.17-.07s.3-.25.44-.37c.34-.3.68-.6,1.04-.92.7-.63,1.43-1.29,2.18-1.97-.68.49-1.69,1.27-2.54,2-.43.37-.82.72-1.12,1.03-.22.21-.16.18-.17.29Z"/>
      <path class="st0" d="M270.37,164.23c-.16,0-.31,0-.48,0,1.02.34.9.22.48,0Z"/>
      <path class="st0" d="M270.37,164.23c1.65.03,2.96-.08,4.28-.17-1.94-.14-3.75-.23-5.32-.25.38.12.77.28,1.04.41Z"/>
      <path class="st0" d="M242.7,185.88c-.72.35-2.68.64-4.96.78-2.31.14-4.94.14-7.71-.12l-.03-.69c1.54-.13,3.12-.2,4.67-.18,6.98-1.64,1.94-4.25-4.46-5.24-.07.2-.1.39-.82.67l.41,10.21c.38-.23,1.26-.46,3.82-.66-.43-.24-2.04-.57-3.74-.93l-29.75-6.34,29.46-.7c3.85-.09,7.12-.05,3.58.94-1.35.23-2.48.42-3.38.57l.16,4c4.78.09,3.98.75,6.39,1.31-.86-.65,1.68-.98,5.31-1.32,3.5-.35,8.23-.72,9.02-1.58l-9.73.17c.1-.28,3.96-.54,1.75-.9Z"/>
      <path class="st0" d="M244.1,178.75l2.98-.51c-3.44.27-5.93.2-10.53.02-4.92,1.12-5.91,1.61-6.21,1.98l14.77-1.77-1.01.28Z"/>
      <path class="st0" d="M254.55,173.5c-.21.62-.65,1.44-1.14,2.28-.45.81-1.14,1.85-1.14,2.14-.27.89-.46,1.7.92,1.02.66-.76,1.21-1.4,1.68-1.94.51-.6.92-1.11,1.25-1.54.67-.86,1.03-1.44,1.31-1.94.56-1,.78-1.71,2.44-3.81-9.66,10.74,2.38-3.46-5.17,3.78,1.79-2.21,3.51-4.12,5.14-5.9-1.91,1.79-3.75,3.51-5.48,5.14.11-.08.19-.13.27-.2l.04-.05v.02c.53-.37.72-.46.19,0-.02.04-.14.18-.19.24.04.17-.05.46-.15.75-2.99,2.94-.65.3.15-.75,0-.07.04-.19,0-.24l-.05.03-2.34,2.77-1.05,1.26-.39.54c-.15.15-.23.45-.45.48l-.65.16-.34.08-.17.04-.41.07-1.77.3c.71-.07,1.46-.14,2.29-.22.36-.04.76-.09,1.21-.14.39-.17.65-.67,1.02-1.05.88-1,1.86-2.1,2.96-3.34Z"/>
      <path class="st0" d="M265.79,153.26c.44.11.42.18.45.26.93-.1,1.28-.18-.45-.26Z"/>
      <path class="st0" d="M271.66,154.07c-1.05.12-1.93.52-5.31.32-2.93-.4.03-.51-.12-.87-2.05.23-7.16.56-.78,1.26l1.02-.12c5.76.53,13.13,2.07,12.12,2.19-1.66-1.01-3.12-1.73-6.93-2.78Z"/>
      <path class="st0" d="M270.67,160.94l6.24.43-1.61-4.85-3.97,4.15,4.73-3.34.97,2.93-.38-.1.24.59c-6.72-.98-5.34-.14-6.23.19Z"/>
      <path class="st0" d="M230.13,192.62c-.17.25-.31.51-.42.76l-.58-14.33.44-.41-.47.17.6,14.79c.56-.47,1.43-.92,2.63-1.36-.81.12-1.54.24-2.19.36Z"/>
      <path class="st0" d="M235.83,192.76l-1.84.9c.65-.15,1.57-.37,2.22-.44.09-.22-.22-.3-.38-.46Z"/>
      <path class="st0" d="M183.74,196.82l-2.44,2.5c1.18-1.15,1.92-1.92,2.44-2.5Z"/>
      <path class="st0" d="M203.03,180.52l.17-.77c-.73.95-.97,1.41-.17.77Z"/>
      <path class="st0" d="M115.06,272.48c3.98-3.26,8.77-6.54,7.54-6.81l-1.83.45c-2.18,2.79-4.04,4.76-5.71,6.36Z"/>
      <path class="st0" d="M306.03,96.88c-.46.19-.94.39-1.41.59-.8,1.02-1.56,1.97-2.23,2.82,1.09-1.03,2.34-2.19,3.64-3.42Z"/>
      <path class="st0" d="M306.45,91.17l5.95-3.27c-1.39.67-3.31,1.7-5.95,3.27Z"/>
      <path class="st0" d="M87.54,258c-.41-2.09-.34-4.47-.47-6.95-.75,5.85-.48,7.31-.3,7.5.2.19.51-.89.77-.56Z"/>
      <path class="st0" d="M170.91,239.73c-3.54.24-6.48.55-8.98.87l1.57,12.87c.75-.04,1.38-.08,1.99-.11-.69-.03-1.36-.06-2.01-.09l-1.52-12.47c4.41-.14,7.87-.1,8.95-1.07Z"/>
      <path class="st0" d="M183.86,181.66c-1.51,1.55-2.07,2.32-1.86,2.46,1.56-1.59,2.38-2.56,1.86-2.46Z"/>
      <path class="st0" d="M174.98,252.6c-.2-.09-.44-.13-.69-.2l-.87.2c-.81.1-1.64.19-2.49.29-1.7.18-3.48.35-5.45.47,1.97.07,4.08.09,6.23-.04l1.62-.13c.43-.05.37-.06.59-.12.31-.1.64-.24,1.06-.47Z"/>
      <path class="st0" d="M284.49,97.72c-.14.34-.27.76-.4,1.07.11.14.25-.34.4-1.07Z"/>
      <path class="st0" d="M359.44,52.88c.29-.51.66-1.15,1.21-2.12l5.98,6.8c-.79.35-2,.88-3.17,1.4.68-.24,1.63-.64,3.19-1.36l-6.04-6.87c-.27.5-.68,1.26-1.17,2.15Z"/>
      <path class="st0" d="M209.71,223.84c.92-.24.12-.14,0,0h0Z"/>
      <path class="st0" d="M220.43,218.64c-.36.62-.58,1.12-.44,1.34-.03-.37.14-.83.44-1.34Z"/>
      <path class="st0" d="M196.27,249.72c-.07.07-.13.12-.22.2,1.13-.79.93-.66.22-.2Z"/>
      <path class="st0" d="M211.3,223.71c-.2.07-.3.32-.58.26-.24,0-.49,0-.75,0,.11.02.28.04.52.05.12,0,.26,0,.42,0,.11-.09.24-.2.38-.31Z"/>
      <path class="st0" d="M210.85,223.46c.11-.1.21-.19.3-.27l.12-.1s.05-.03.23-.25c.06-.22.01-.27-.27.02-.16.15-.13.15-.39.6Z"/>
      <path class="st0" d="M205.25,224.7c.93-.16,1.82-.31,2.69-.46.44-.06.87-.13,1.3-.19.55-.08.6-.07.73-.08-.22-.04-.3-.08-.26-.13-.94.18-2.27.44-4.47.86Z"/>
      <path class="st0" d="M162.86,180.21c.11-.19.23-.41.34-.63.74-3.27.3-1.88-.34.63Z"/>
      <path class="st0" d="M166.31,203.2c-.1.12-.15.19-.24.3.12-.1.27-.22.38-.31h-.14Z"/>
      <path class="st0" d="M174.49,194.55c-2.83,4.4-5.04,6.23-8.04,8.64l4.98-.41,3.05-8.24Z"/>
      <path class="st0" d="M139.7,238.12l6.54-5.08c-5.99,8.06-11.35,12.79-4.98,8.29-.79-1.6,4.81-7.29,10.52-12.88,5.7-5.6,11.52-11.07,10.8-12.7l4.48-3.15c-1.17,1.03-1.22,1.34-2.38,2.35,8.89-5.91,4.14-7.12,14.68-15.8,3.74-2.94,6.58-4.74,4.39-2.32l7.48-7.54c2.39-1.95,2.19-1.01-.18.92l12.19-10.6-.03.15c1.43-1.88,4.96-5.83,6.72-7.71,3.49-2.22-1.37,1.58-.29,1.24l6.45-6.27c3.39-1.6-1.88,3.69-6.73,7.51,8.61-2.64,5.19-5.4,20.57-15.03l-6.36,5.56c5.45-1.88,10.19-6.5,18.47-11.36-2.18.85-16.92,9.34-9.79,2.71,2.32-1.48,5.24-3.6,8.99-7.31.77.92,4.65-2.42,9.73-6.32l.6,1.53c5.26-4.51,4.34-4.83,7.19-7.82,6.3-4.46,8.33-4.39,10.4-4.62,10.14-7.03-8.07,3.4,3.6-5.4,8.71-5.5,14.22-10.19,23.8-17.96,6.24-3.62-.49,1.51,1.9.42l4.55-4.64c1.31-.85,1.11-.25,1.01.06,4.18-3.41-.53-1.57,6.25-6.64.93-2.74,15.85-7.46,23.63-14.68,2.42-1-.53,1.49.46,1.58,3.08-2.36,5.23-3.96,5.53-4.37l-5.25-8.26c-5.84,4.4-6.79,5.21-13.28,11.1l-8.94,4.82c6.8-3.2-.26,3.28-6.37,8.99,2.48-1.03,4.61-1.9,5.98-2.56l-10.33,8.27c-1.45.71-.68-.5.7-2.3-.65.64-1.27,1.24-1.76,1.71-4.19,2.26-2.73.1-.47-2.59,1.5-.66,3-1.31,4.46-1.95,2.12-2.67,4.03-5.28,2.94-5.66-.6.64-1.88,1.72-3.32,2.84.55-.71.87-1.21.45-1.11-.47.12-1.4,1.2-2.94,2.78l-3.48.3-.19,1-14.74,9.23c-8.98,8.77-16.11,17.24-31.2,29.83,3.06-4.01-.47-2.32-1.2-3.69,5.24-2,11.66-9.86,20.07-15.68-4.37,3.04-3.87,1.77-2.94.75-4.58,4.02-9.11,8.1-13.62,12.18-.44-1.25-3.64,1.61-7.72,4.12,4.35-.26-9.69,9.65-14.95,14.92-.88-.36-.04-2.15,7.17-7.62-8.98,4.75-8.25,10.31-16.82,15.26,1.69-1.42,2.69-2.07,3.1-2.95-3.54,3.81-13.59,11.42-11.77,8.97l1.68-1.43c-5.73,4.57-14.25,11.78-21.28,18.32-7.04,6.53-12.59,12.37-12.7,13.88-.29-.1-.28-3.17.1-4.08-4.91,7.6-9.71,15.23-14.37,22.91.43-2.9-8.97.06-.82-9.04-2.72,2.21-6.09,4.95-10.95,10.54,1.9-1.47,6.09-2.23,3.86.14-7.81,4.77-5.22,3.51-14.25,10.06,2.81-2.25,1.99,2.55-2.03,6.49.32-.92-2.33-1.63-1.08-3.31-2.64,3.99-5.24,7.99-7.79,12.02,2.06-2.88-1.28-2.09-4.02-.34,1.38-.71-8.38,8.84-10.66,11.84l4.5-3.97c-5.53,5.71-7.4,9.32-9.22,12.91-.9,1.8-1.8,3.6-3.1,5.7-1.31,2.1-2.97,4.43-5.66,7.59.34-.85.41-2.31-.35-2.74-.79-.38-2.45.25-6.41,4.84-.46,1.09-.87,2.74-1.34,4.49-.02.81.26,1.54.13,2.39-.02.21-.05.42-.1.63.11.24.43.52.64.78.45.51.92,1.04,1.4,1.58.45,1.58,3.09.8,4.78.66,1.83-.26,3.52-.53,5.04-.84,1.52-.3,2.89-.6,4.12-.89.58-.13,1.17-.27,1.76-.4.22-.06.67-.13,1.08-.19l1.24-.21c.87.2,1.75.42,2.64.6,3.41-.64,6.76-1.51,10.07-2.45-2.95,1.66-8.67,4.39-15.54,6.27-1.83.47-3.92.91-6.14,1.21-2.23.32-4.61.51-6.78.43-1.03-.09-2.02-.21-2.86-.43-.44-.1-.82-.22-1.22-.35l-.56-.2c-.18-.08-.27-.35-.41-.52-.52-.78-1.02-1.54-1.49-2.27-.24-.38-.48-.75-.71-1.11l-.35-.54c-.07-.16-.04-.28-.07-.42-.01.18-.12.31-.05.51.07.2.13.39.2.57.12.36.23.68.32.96.18.58.31,1.02.42,1.38.19.74.3,1.13.43,1.63.13.62.4.9,1.11,1.45.35.28.83.63,1.56,1.01.4.17.84.37,1.33.58.58.15,1.27.29,2,.45,1.89.7-.13.81-2.86.24-2.62-.83-4.22-2.25-4.97-4.43l.73,1.65c.12.32.25.49.39.62l.43.45c.28.31.61.6.99.89.32.31.76.56,1.24.8.79.58,2.15.78,3.3,1.13,1.33.2,2.67.4,4.08.53,2.83.26,5.78.33,8.78.34l3.78-.1,2.76-.16c-.55-.78,3.59-1.56,7.64-2.6,4.06-1.05,8.01-2.35,7.45-2.92-3.71,1.16-7.49,2.11-11.34,2.91-4.09.73-6.81,1.42-13.82,1.65-.23-.41,1.09-.91,3.2-1.42.52-.13,1.11-.28,1.75-.45.31-.08.63-.16.97-.24.24-.07.49-.15.75-.23,1.04-.31,2.23-.68,3.53-1.01,5.16-1.37,12.13-3.22,19.3-5.12l7.5-1.99-7.72-1.17-.11-.02c-1.88-.59-.94-1.27.35-1.86l12.44-5.7-11.95,12.56c-.91.95-2.17,1.97-1.95,2.19.37-.22,1.18-.55,2.3-.95l24.14-8.63-24.8-.73c-4.06-.12-11.76-.86-12.77-1.32l6.26-.08c-4.59-.96-8.35-.66-12.53-.77l-.53,8.93c3.05-.35,6.36-.51,10.51.12,3.37.07,10.09,2.03,10.66,1.04-5.52-1.84-6.66-7.71-3.01-9.17.56.05,4.76.45,9.29.88.78-.16,2.04-.45,3.16-.76,1.13-.3,2.23-.6,3.24-.87,2.03-.56,3.73-1.04,4.69-1.26,2.82-.52,1.36,1.16-.29,2.9-1.65,1.7-3.5,3.42-1.01,3.02.02-.48,2.65-2.32,3.74-3.06,3.41-1.29-.69,2.01,6.23-1.88.42-1.98,13.84-8.13,2.54-3.08,3.19-2.15,4.94-3.18,6.85-4.29.95-.56,1.97-1.1,3.16-1.9.68-.46,1.43-.96,2.27-1.53.95-.66,1.95-1.46,3.1-2.35-1.97.8-.51-1.39,1.16-3.85,1.85-2.49,3.65-5.19,5.55-7.27.59.1,3.07-1.27,4.17-2.01,1.45-1.35,2.85-2.64,4.16-3.94.67-.65,1.32-1.28,1.96-1.89.65-.46-.23-.22-.49-.25l-1.15.06c-3.06.12-5.88.24-8.68.35-5.58.17-11.98.53-19.82,1.13-1.35-.3-8.31-.25-5.42-1.21-1.2.27-2.33.63-4.02.97l.5,4.12c1.06-.32,2.42-.65,4.22-.97,6.49.03-2.08,1.03-4.08,1.82l-.71-5.83c.53-.16.64-.33-.04-.54l.84,6.9c.23.06.56.11,1.02.15.39-1.06,11.1-3.2,17.24-4.84-1.94-1.06-12.05,1.47-18.5,3.17l-.47-3.86c.79-.14,1.49-.26,2.13-.37.05.54-.64,1.15-2.02,1.79l.13,1.03c3.52-2.12,12.1-4.94,22.96-7.46,11.71-2.46,5.33.49,7.33-.14,2.72-.4,5.05-.81,7.08-1.21.51-.1.99-.21,1.46-.3.36-.09.71-.17,1.05-.25.32-.09.64-.17.94-.25.29-.09.61-.11.74-.43,1.18-1.79,2.52-3.94,3.58-5.72l2.85,5.75c-4.37,1-8.13,1.85-17.66,1.54-7.45-.97-.46-2.63-2.15-3.51,8.77-.88,13.92-.07,19.7-.18l-1.1-2.21c-.4.45-.81.91-1.23,1.38l1.33-1.3,1,2.01-6.28-.18c1.51-.29,3.83-.59,6.23-.8l-.19-.39c-1.56,1.93-3.29,3.9-4.55,5.03.96-.71,2.68-2.45,4.85-4.78l.25-.27h-.38c-6.71.12-16.86.65-26.89,1.06l.09.82c7.66-1.31,15.27-2.54,21.22-3.21,2.95-.98,8.09-2.37,5.53-2.46l-5.36,1.15c-5.15-.17,9.89-3.28,2.97-2.55l1.34-.39.68-.2.5-.17c.64-.25,1.33-.39,1.89-.72.36-.58.72-1.18,1.1-1.79.42-.66,1.14-1.66,1.73-2.49,2.5-3.49,5.37-7.16,8.93-10.96l2.42-.53c-.48-.11-5.04,4.63-6.55,7.16,2.25-3.76,11.76-10.89,13.27-15.81l-5.46,4.91c1.02-1.56,2.1-3.21,3.23-4.94.56-.86,1.13-1.75,1.71-2.64l.86-1.31.37-.71c.98-1.86,1.63-3.08,3.31-4.73-1.88,1.09-1.85,1.11-2.04,1.36-.13.17-.6.7-2.27,1.33.92-.25,1.16-.12.87.42-.13.26-.38.6-.67.97-.54.65-1.13,1.37-1.71,2.07-3.51,4.19-6.73,8.06-2.93,5.3-5.87,3.85-8.11,8.37-15.09,14.03.56.11,2.74-1.79-2.41,4-.11.24-.08.34-.06.44,0,.11,0,.24-.01.34-.06.04-.08.06-.13.1.05-.02.08-.04.13-.06-.02.14,0,.15.04-.02.13-.06.26-.12.37-.18.3-.26.58-.49.83-.71.53-.44.98-.76,1.28-.9-.32.83-1.45,2.52-1.59,2.95-.25.36-.42.98-.97,1l-.74.23c-.29.08-.4.13-1,.26-3.96.92-7.96,1.78-9.95,2.44-4.54.57,1.78-.9-.77-.99l-5.93,1.97c-.8-.99-12.27.32-1.79-2.22l-8.35,1.45,1.45,12.84,1.21-.05c5.73.35,13.57.22,18.38-.49,2.44.01,5.53-.5,7.28-.81l-5.22-10.55c-.85,1.28-1.11,1.73-.23.12l-2.29,2.88-.27.34-.09.14-.19.29-.39.58c-.19.09-.41.14-.63.21l-.33.1c-.14.04-.13.05-.53.13l-3.72.79-.18-.25c-11.17,1.74-22.65,4.75-35.01,6.47l1.31,10.77c2.03-.11,4.07-.18,6.14-.21,1.03,0,2.08,0,3.12,0h.78s.29.07.29.07l.54.13c.88-.21,1.92-.45,3.15-.63,1.21-.18,2.65-.3,3.91-.24-.47.36-1,.72-1.59,1.09.64-.13,1.19-.16,1.61-.14.22-.05-.09.15-.22.27l-.49.38c-.32.24-.64.48-.94.72-1.2.9-1.9,1.41-1.33,1.62-1.51.39-2.42.66-3.03.9-.32.12-.55.25-.79.4-.65.46-1.32.93-2,1.41-.8.55-1.61,1.1-2.43,1.66-6.53,4.49-13.89,8.67-18.9,10.54l.12,1.32c-1.52.61-3.02,1.22-4.53,1.84-.13.08-.28.1-.43.1l-.23.02-.63.03c-.99.04-2,.08-3.02.13-4.07.23-8.39.48-13.25.76l.61,1.1c-2.77.33-6.07.39-9.73.32l-.54,9.06c5.66.91,12.15,2.25,18.89,3.3l-.75-10.51c-1.83.4-3.66.92-5.52,1.31.69-.51,3.32-1.13,5.47-1.48l.77,10.87c-.25-.06-.47-.11-.68-.16l.68.19-.78-10.94c-3.75.41-7.47,1.12-11.23,1.79-1.88.32-3.76.65-5.65.97-.94.17-1.89.31-2.83.44l-2.61.36c-1.57.34-3.61.62-5.55.54-.48-.02-.96-.06-1.4-.14-.28-.28-.37-.79-.52-1.19-.06-.21-.12-.42-.16-.63,0-.2.31-.36.46-.54.37-.35.76-.69,1.17-1.01.19-.55.56-1.12.99-1.6.46-.53.83-.82,1.46-1.34-.12.14-.2.28-.26.4.13-.15.33-.38.53-.61.37-.28.74-.57,1.12-.87.6-.56,1.22-1.14,1.86-1.74-.98.82-1.91,1.6-2.71,2.28.74-.93,1.68-2.1,2.7-3.38,1.16-1.49,2.42-3.12,3.68-4.73l2.04-.52c.21-.26.38-.46.6-.73,2.97-2.7,1.7-2.78-.38-1.78,1.21-1.67,2.29-3.23,3.05-4.51,3.59-1.13,6.73-8.37,11.28-10.21,1.1-2.74,13.65-15.33,13.74-18.33.29.1,1.24-.67-.31.91,3.39-3.07,6.79-6.11,9.31-9.39l2.45-.26,5.77-8.38c5.04-3.5,7.24-4.81,3.66.15,9.36-11.22,8.12-8.53,16.07-18.15l.21,1.13c3.24-2.99,7.67-8.65,10.21-9.8,4.33-2.56,13.58-10.53,24.5-19.54,10.91-9.02,23.5-19.04,34.05-26.12-5.66.72,10.11-6.19,9.57-8.54,1.59-.36,4.63-2.18,1.73.78,9.9-8.34,16.18-10.78,22.27-17.57,1.6-.32-1.65,2.44-.34,1.99.75-.73,2.97-2.9,4.3-3.36,1.3-.44-1.19,1.58-2.67,3.02,10.61-7.84,10.5-10.29,10.13-12.47,6.01-3.12,8.67-5.13,11.9-8.96,2.29-.79,5.87-2.45-.75,2.41,3.8-2.64,23.84-15.09,23.41-16.61.95-.3,3.06-1.72,4.63-2.87l-3.65-5.75c-.82.58-1.49,1.08-1.8,1.35-8.88,5.48-9.73,5.86-18.24,11.57l2.52-1.34c-2.34,3.81-6.9,5-13.62,9.79l.09-.29c-16.43,9.49-6.41,5.09-22.64,14.44l1.51.39c.04,3.08-14.39,8.27-22.58,15.47l3.56-1.75c-4.27,4.16-15.4,6.97-20.36,10.3-1.17.6,1.42-1.52,2.78-2.73-13.38,8.16-.69,2.45-9.73,9.74-2.21.63.9-3.38-5.41,1.25-3.54,1.82-16.25,16.05-25.51,21.54,2.24-.98,4.45-1.94.57,1.83-6.27,5.35-18.82,12.34-23.16,18.77-.91.55-1.32.68-1.46.59-4.48,4.49-14.91,14.17-16.98,17.56-3.54.43-10.5,7.41-16.72,14.04-6.23,6.63-11.75,12.88-13.03,11.49-4.58,4.6-9.1,9.26-13.56,13.99l.08-.64c-4.42,4.4-7.18,7.59-9.14,10.15-.97,1.28-1.75,2.4-2.42,3.45-.33.53-.64,1.03-.94,1.52-.16.35-.33.69-.49,1.03-1.39,1.16-.65-.19-.71-.42-3.56,3.39-4.95,4.8-6.63,7l-.67.91-.35.49c-.06.07-.13.21-.17.22l-.09-.16c-.22-.43-.54-.83-.79-1.31-.58-.95-1.22-2.12-1.84-4.31.44-.82.88-1.58,1.32-2.26-.15-.34-.15-1.32.04-2.62.09-.65.22-1.38.41-2.14.09-.38.17-.77.3-1.17.16-.61.32-1.24.48-1.89,1.55-5.62,4.35-12.3,7.65-18.77l-9.36-2.06c.2,3.27.49,6.53.89,9.64-.15-.17-.4-.52-.65-1.92.23,1.86.4,3.79.53,5.78l9.64.36c.5-4.77,1.29-9.78,2.13-14.71l.32-1.85c.1-.53.14-.62.21-.94.02-.28.3-.46.43-.69l.3-.4.51-.71c1.35-1.89,2.72-3.7,4.06-5.43,5.36-6.89,10.14-12.33,10.84-16.1l.61-.79-6.8-3.18-.53,12.18c2.51-16.86,1.6,2.76,3.23-4.09-.59,6.68-3.54,17.01-2.72,8.82l.39-1.25c-1.18-2.02-2.23,6.26-3.21,12.82l6.2,1.11c1.04-4.1,1.98-7.51,2.54-7.2,1.52-6.69,3.09-13.32,4.69-19.92l.95-3.86c.7-.83,1.28-1.28,2.65-2.61,2.4-2.28,4.84-4.5,7.33-6.67,4.97-4.33,10.08-8.44,15.26-12.45l3.91-3.02,3.93-2.8c2.61-1.86,5.21-3.7,7.79-5.54l-7.96-5.31c-1.32,5.69-2.61,11.3-3.9,16.87l2.55-3.14-2.26,9.77,6.83,2.02.33-.87c1.17-2.14,2.26-2.89.9,1.33l-9.34-2.76c.13-.75.33-1.75.62-2.96-.38.77-.7,1.77-.95,2.89l10,2.95c1.54-4.1,2.36-9.92,2.13-10.2,6.02-14.09-.1,6.34,1.57,1.96l2.09-6.02-.7,1.27c.55-2.55.69-4,1.1-5.91.21-.96.48-2.03.92-3.4.2-.6.42-1.28.68-2.04.09-.25.18-.52.28-.8.05-.14.11-.29.16-.44.1-.11.26-.19.4-.29.78-.42,1.19-.56,1.89-.89.56-.23.86-.28,1.05-.26.39.03.39.28,1.37-.35.02.04.14.01.44-.17l-8.18-5.63c-.13.4-.34,1.35-.64,3.06l-3.22,13.32,10.33,3.27.04-.09-.06.08-10.28-3.25,2.58-4.97c-.21,1.89-.58,3.81-.88,5.36l6.96,2.2c1.28-3.44,2.03-5.21-.67-1.56,1.46-1.93,3.45-5.85,5.67-10.73.54-1.22,1.11-2.5,1.7-3.82.18-.41.37-.82.56-1.24.11-.18.13-.44.31-.57l.58-.35c2.38-1.5,4.84-3.06,7.28-4.6,10.43-6.68,20.37-13.31,22.99-14.53,5.74-4.76,11.84-8.8,19.19-13.44l-4.74-3.6c-.36,1.21-.76,2.53-1.17,3.88,1.01-2.42,2.99-3.47.28,5.16-1.44-2.6-3.46,4.32-5.85,11.34l7.44,2.77c1.97-3.82,4.06-7.65,5.98-9.72-2.08,2.63.51-3.24,2.83-8.73.29-.69.57-1.37.85-2.02.27-.64.31-.81.46-1.22.13-.81.72-1.07,1.04-1.41.64-.64.65-1.05-1.32-.54.6-.31,1.1-.55,1.46-.7.49-.22.83-.36,1.08-.42.49-.12.58.02.63.21.1.38.03.92,2.68-.18,7.22-4.97,15.62-9.7,24.51-14.57l-6.66-5.14c-1.75,6.34-3.59,12.89-5.33,19.59l9.74,3.23c1.7-3.83,3.38-7.74,4.97-11.7-.26-.49-2.33,2.67-1.07-1.96l5.6-8.42-2.46,2.63,1.71-.49c.54-.3.98-.6,1.34-.9l-7.57-6.13c-.12,2.89,1.16,3.96-1.79,10.29.63-1.01,1.58-2.5,1,.38l-1.07,3.55,6.93,2.36,2.89-6.11,2.73-5.94c.32-.55.46-1.26.9-1.67l1.86-.8,6.21-2.79c8.28-3.75,16.56-7.63,24.86-11.52l-5.33-5.17c-1.84,4.65-3.67,9.31-5.51,13.97l6.94,3.4,7.42-12.8.57-.95.28-.47c.15-.09.34-.15.5-.22l2.62-1.08,6.9-2.81c9.21-3.7,18.49-7.17,27.86-10.25-5.81,1.59-2.19-.06,1.98-1.9-2.8.99-.36-1.02-1.13-1.33l3.8-1.26-4.37-4.96c-2.74,3.81-5.74,7.55-8.78,11.24-.26,1.84-3.03,5.9-5.78,9.76-.52.74-1.04,1.47-1.53,2.17-.21.24-.32.62-.6.73-.29.1-.57.19-.83.28-.8.32-2.51.98-2.79,1.45l2.5-.81.9-.31c.26-.15.67-.09.78-.45-.06.42-.34.45-.44.65-.13.16-.21.3-.24.44-.05.27.11.48.48.65.18.08.42.15.71.21.28.05.66.17.88-.04.52-.27,1.16-.69,1.87-1.21,2.94-2.2,6.43-5.16,7.07-4,1.99-5.08,7.31-10.19,12.15-17.05l6.67-9.47-11.54,3.93c-5.04,1.72-10.29,3.88-15.03,7.23-3.09.81,2.17-1.77.4-1.61-2.93,2.38-6.86,4.31-14.5,7.11l.74-.6c-3.27,1.42-6.24,2.72-9.03,3.94-1.46.61-2.86,1.21-4.24,1.79-.94.39-1.86.78-2.77,1.16l-.69.29c-.22.11-.28.39-.42.58l-.76,1.26c-.84,1.38-1.67,2.73-2.49,4.08l-2.12,3.41c-1.43,2.27-2.87,4.55-4.38,6.95l8.28,4.05c1.81-4.02,3.79-8.45,6.16-13.71l5.31-11.82-12.21,5.13c-2.37,1-4.97,2.09-7.77,3.26l2.21.28c-5.09,2.14-6.3,2.29-8.77,3.09-5.02,4.24,14.15-6.33,9.7-2.15-3.82.43-12.68,4.45-21.28,8.31-2.32,1.03-4.63,2.06-6.82,3.03-.73.32-1.45.64-2.16.95-.34.18-.76.27-1.03.51l-.47,1.04c-.63,1.35-1.23,2.65-1.8,3.88-1.67,3.37-3.15,5.89-4.26,6.75-3.18,7.34,1.64-.74-.73,5.07l8.36,2.85c.04-.15.13-.55.24-1l1.26-1.99-.39-2.31c1.52-5.34,3.1-7.82,3.75-7.87-.4,1.29-.77,3.75-1.08,5.16.58-1.51,1.14-3.33,1.67-5.29l3.71-13.76-12.82,6.39c-1.01.5-2.04,1.02-3.08,1.54l-2.14,1.07-.89,2.16c-2.3,5.61-4.31,11.43-5.11,12.84l3.6-7.3c-2.13,5.45-4.49,11.16-6.94,17l10.21,3.39c1.56-6.48,3.17-13.13,4.76-19.73l2.98-12.33-10.73,6.35c-5.29,3.13-10.53,6.27-15.57,9.38-2.5,1.58-4.97,3.13-7.38,4.65-2.66,1.74-5.25,3.43-7.77,5.08l2.42-.78c-.56.36-1.11.72-1.63,1.06-.27.17-.53.34-.78.5l-.38.24c-.11.09-.13.27-.2.4-.46,1.09-.89,2.11-1.29,3.06-.61,1.41-1.13,2.62-1.6,3.7-.94,2.07-1.72,3.61-2.51,5.09-1.57,2.97-3.17,5.75-6.1,12.31l7.68,2.86c.27-1,.62-2.32,1.02-3.78l-.06.69c.51-3.75,1.64-8.63,3.13-13.52-.69,4.72,3.69-8.18,2.65-2.03.14-.66.28-1.28.35-1.63l3-13.83-10.82,7.89c-13.12,9.57-6.25,4.99-15.1,13.03l-2.86.75c-3.06,2.95-3.12,3.51-10.86,8.76,6.03-4.81-5.79,2.05.88-3.47-8.82,4.46-14.68,8.83-19.49,12.38-1.01.76-2.82,2.03-4.37,3.1-.5.18-.49.78-.71,1.18-.17.44-.34.87-.51,1.3-.32.78-.63,1.54-.94,2.28-.99,2.26-2.12,4.25-3.65,6.06-.52,4.65,1.41.85,3.29-3.49.48-1.15.97-2.32,1.43-3.4.29-.7.56-1.37.82-2,.3-.58.35-1.31.93-1.49,1.84-1.17,2.56-1.59,1.27-.6,1.3-.59,1.48-.44.99.13-.41.62-2.01,1.28-2.25,3.4-.63,2.01-1.12,3.57-1.79,5.41-.64,1.78-1.33,3.53-1.97,4.93-1.07,2.57-2.58,4.56-4.44,7.26l5.68,1.8c1.68-3.53,3.69-8.15,5.55-15.99l2.86-12.03-10.25,6.95c-.32.21-.64.44-.98.66.44-.29.73-.51.95-.7l9.28-7.64-1.83,12.76c-.09.62-.1,1.03-.34,2.04.23-.66.43-1.31.6-1.98l3.34-12.49-11.21,7.08c-.55.35-1.09.71-1.63,1.09l-1.72,1.25c-.8.59-1.61,1.18-2.43,1.79l-.61.45-.3.22c-.07.1-.09.24-.14.36l-.49,1.47c-.32.93-.64,1.87-.97,2.83-.23.67-.48,1.34-.75,2.02-.54,1.36-1.17,2.75-1.94,4.16.03,4.33-3.35,8.77-1.92,10.55l4.61-13.7c-1.9,6.29-2.62,12.68-5.79,21.32l3.35.99c.47-2.17,1.09-4.55,1.88-7.12.15,1.06-.17,4.74-.46,7.44l-6.15-1.81c.05-.17.08-.31.12-.45l-.22.41,6.35,1.87c1.25-3.59,1.17-7.22,2.57-10.93.88.82-.11,5.58-1.31,11.21l-8.83-2.6c1.74-4.81,3.75-10.3,4.53-14.43-2.25,3.68-4.45,16.06-4.91,11.18.05.99-.04,1.99-.23,3.03l10.06,2.97c.25-6.18,3.92-13.61,4.17-22.91l1,.94c.03-.31.07-.68.12-1.16l1.55-15.07-9.95,9.46c-1.36,1.29-3.44,3.28-5.54,4.8l3.75-4.65c-3.2,3.16-6.8,5.46-10.44,7.7-3.41,2.27-6.92,4.53-9.94,7.49,13.59-11.12,3.96-1.41,10.22-5.38-7.87,7.31-10.74,8.79-13.94,10.35-3.18,1.63-6.79,3.16-15.51,12.08,2.32-2.61,9.57-8.12,6.16-4.2-1.83,1.55-3.96,3.35-5.91,5-.72.64-1.43,1.27-2.1,1.87-.65.63-1.52,1.08-1.6,2.02-.27.83-.52,1.6-.75,2.31-.12.36-.24.7-.35,1.03-.12.35-.17.41-.26.6-3.33,15.51,1.73-2.1.91,4.64-2.61,4.94-1.18,7.72-2.3,14.6l-1.18-.22c-2.27,8.21-2.1,9.85-1.76,10.91l8.99,1.61c-.49-1.16-1.13-1.59.45-10.07l.77,7.03.65-8.47,1.13,1.91c.15-8.31.67-11.44,1.9-18.62l3.06-17.86-13.15,13.14c-.45.45-1.09,1.09-1.78,1.78,2.1-1.01.69,2.27-4.48,8.6-4.01,3.97.97-3.27-5.96,6.17.95-2.57,1.97-5.52,6.08-8.75.03-.65,1.11-2.48,1.18-3.14-4.67,4.04-9.79,11.9-12.11,15.54.96-1.36,2.15-2.95,2.88-3.68-1.45,2.51-2.78,4.99-4.12,7.66l-1.48,2.84-.19,3.19-.1,4.13c-.77,2.52-.87.43-.97-1.63-.28,3.32-.03,5.68-.53,10.56-.81-1.38-1.84-1.2-1.43-8.14l-.65,11.71,13.33.5-.47-3.96c.37-1.07.77-8.09,1.22-6.08.02-1.12-.02-2.3-.09-3.54l-1.76-29.5-13.36,26.18c-2.06,4.03-3.8,9.03-5.16,14.36-.71,2.66-1.26,5.43-1.81,8.19l-.38,2.22c-.22,1.04-.35,2.12-.47,3.18-.28,2.13-.58,4.25-.65,6.31.08.45.15,1.14.2,2.19.12,1,.26,2.34.4,4.14.32,4.79,1.07,8.99,1.91,13.34.46,2.24.88,4.41,1.44,6.84l.4,1.79.21.88.24.47c.32.63.64,1.26.97,1.89,5-5.78,10.66-12.74,16.27-19.95l4.54-3.8,2.44-2.07.63-.53.32-.27.2-.14.77-.52c6.45-7.58-8.25,5.69,2.53-6.94,7.66-8.94,4.09-2.17,7.27-4.82,3.39-4.81,9.24-13.37,18-19.88-2.34,2.73-4.51,4.51-6.79,6.96ZM232.03,156.54c-1.73,1.67-5.01,5.22-6.81,5.75,1.29-2.77,3.36-3.55,6.81-5.75ZM289.81,105.6c1.22-1.37,3.58-2.82,6.39-4.27-1.79,1.4-3.9,2.85-6.39,4.27ZM192.96,240.66c.1-.03.17-.05.25-.07,5.38.21,3.47.11-.25.07ZM185.47,229.7c1.07-.36.97-.51.47-.59-.43.26-1.48.53-2.91.8l1.23,10.87c.9-.05,1.98-.09,3.11-.11-.57-.19-1.46-.32-3.13-.23l-1.15-10.19c.63-.12,1.43-.3,2.38-.55ZM176.22,151.3l.28-.73,7.17,4.93-1.26.61c.43-.34.8-.63,1.09-.86l-6.72-4.62c-.54,3.15-.54,1.9-.57.66Z"/>
      <path class="st0" d="M306.34,91.87c.68-.22.96-.15,1.22-.06.66-.71.55-.91-1.22.06Z"/>
      <path class="st0" d="M87.71,259.16l.03-.62c-.06-.31-.13-.47-.2-.54l.17,1.16Z"/>
      <path class="st0" d="M161.9,279.56c-2.21.88-3.51,1.23-4.41,1.37,0,.31,1.11.15,4.41-1.37Z"/>
      <path class="st0" d="M228.35,201.66l-4.36,5.71c2.18-2.7,3.17-3.49,4.44-4.71-.32-.06-1.5.73-.08-1Z"/>
      <path class="st0" d="M246.84,184.14c1.01-.28,2.19-.3,3.19-.58l-.35-.51c-4.4.6-7.42,1.44-2.84,1.09Z"/>
      <path class="st0" d="M235.45,199.35c1.03.34,2.96-2.52,4.89-5.11-.13.16-.25.31-.4.48-1.51-.38-2.66,1.72-4.49,4.64Z"/>
      <path class="st0" d="M240.8,193.63c.62-.81,1.26-1.62,2.02-2.46-.81.1-.99,1.01-2.02,2.46Z"/>
      <path class="st0" d="M199.25,226.56c2.38-.16,1.24-1.53,2.63-1.36,2.38-1.73-15.27,4.31-2.63,1.36Z"/>
      <path class="st0" d="M240.73,198.19c-.83.35-1.61.64-2.35.88-.2.76-.46,1.59-.78,2.5l3.12-3.37Z"/>
      <path class="st0" d="M214.88,227.76l5.27-5.78c-.24-.04.32-.89,1.04-1.91-1.61,1.86-3.29,3.82-4.56,5.29-1.31,1.54-1.89,2.27-1.75,2.4Z"/>
      <path class="st0" d="M221.19,220.07c1.66-1.95,3.2-3.84,3.96-5.07-.88,1.07-2.76,3.39-3.96,5.07Z"/>
      <polygon class="st0" points="234.03 206.8 232.32 208.45 228.65 212.72 234.03 206.8"/>
      <path class="st0" d="M187.4,241.8l-8.53,1.77c-.81.56,1.58.43,4.75-.26,2.01-.63,5.17-1.32,3.78-1.51Z"/>
      <path class="st0" d="M210.67,231.77c.05,0,.1.01.1.01l1.81,3.66c-1.7,1.56-2.03,1.52-3.19,2.24l.98,1.22,2.23-3.43,3.03-4.66-4.86.95-.1.02Z"/>
      <path class="st0" d="M188.94,245.36c-.79.56-12.27,3.27-1.4,1.37.8-.56,9.35-2.33,1.4-1.37Z"/>
      <path class="st0" d="M147.43,280.9l.59-.02.55-.21,1.1-.43c-.4-.75-.78-1.5-1.13-2.27-.21.92-.53,2.18-1.11,2.93Z"/>
      <path class="st0" d="M110.5,258.08c-3.66,3.73-3.75,4.47-3.8,5.08-.02.31-.02.59-.44,1.21-.21.31-.52.71-.98,1.23-.57.62-1.31,1.41-2.26,2.44-.45.77-.18.63.41.06.48-.48,1.28-1.29,2.07-2.09,1.35-1.37,2.69-2.73,2.07-1.61,3.61-5.17,6.08-7.4,2.92-6.33Z"/>
      <path class="st0" d="M107.58,264.41c-.58.83-1.17,1.72-1.78,2.69,1.06-1.49,1.52-2.22,1.78-2.69Z"/>
      <path class="st0" d="M344.89,71.93c-.45.55-.44.46-.63.65l-.43.36c-.27.24-.77.09-1.09.15.51.14,1.24.39,1.69.02l.15-.48.07-.23c.02-.07.16-.32.24-.47Z"/>
      <path class="st0" d="M337.92,76.84l-1.92-1.15-3.48,2.43c1.43-.45,4.21-1.33,5.4-1.27Z"/>
      <path class="st0" d="M248.55,147.95l.17-.61c-1.07.28-2.32,1.18-4.82,3.01l4.65-2.4Z"/>
      <polygon class="st0" points="178.54 203.48 179.71 202.49 176.59 203.3 178.54 203.48"/>
      <path class="st0" d="M126,256.67c2.12-2.18,4.37-4.98,6.53-7.14-4.42,4.95-8.41,6.49-6.53,7.14Z"/>
    </g>
  </g>
  <g>
    <path class="st0" d="M71.5,364.05c2.12.21,3.02.62,3.51.59l-2.7,5.7h0s2.94-5.63,2.94-5.63c.31-.17.36-.58.54-.61-.07-.03-.14-.05-.19-.08l-3.29,6.32h0s3.05-6.43,3.05-6.43c-2.04-.86-3.46-.76-4.18-.66-.75.13-.9.32-.82.45.17.25,1.26.47,1.15.35Z"/>
    <path class="st0" d="M88.14,386.56l-.62.26c1.51.07,3.02.11,4.52.12-1.3-.1-2.59-.24-3.89-.39Z"/>
    <path class="st0" d="M115.59,391.29c-2.47-1.87-10.12-.62-14.91-2.2l-.73-.55-2.47.97c5.97,1.05,13.91,1.07,18.11,1.78Z"/>
    <path class="st0" d="M130.72,395.17c-.99-.66,3.29-.73-3.6-.06.35.08.45.1.65.15.62-.02,1.48-.05,2.94-.09Z"/>
    <path class="st0" d="M127.77,395.27c-3.04.15,2.01.51,0,0h0Z"/>
    <path class="st0" d="M141.73,393.59c-1.29.4-2.59.79-3.9,1.14.88.32,4.47-.09,3.18.38,4.07-.96,3.13-1.25.72-1.53Z"/>
    <path class="st0" d="M145.24,391.69l-1.98.61c.38.1.94.09,1.98-.61Z"/>
    <path class="st0" d="M139.01,393.49c1.43-.37,2.85-.75,4.25-1.18-.62-.19-.76-.73-1.95.51.27-.58-.5.07-2.3.67Z"/>
    <path class="st0" d="M136.52,393.51c-2.27-.14-5.12-.18-1.24-1.12-3.73.47-5.33.88-5.03,1.19.29.29,2.49.46,6.27-.07Z"/>
    <path class="st0" d="M117.11,389.55l-2.82-.7-2.52.38c1.25-.14,5.48.9,5.34.33Z"/>
    <path class="st0" d="M166.31,387.95c.11-.44-1.73-.39-2.19-.74l-2.65,1.41c.76-.15,1.85-.37,2.78-.55,1-.2,1.84-.33,2.05-.12Z"/>
    <path class="st0" d="M164.12,387.22c1.39-.75,2.74-1.56,4.05-2.41-3.8,1.65-4.45,2.08-4.05,2.41Z"/>
    <path class="st0" d="M145.57,389.64c-2.23.89-4.51,1.71-6.82,2.46,2.76-.82,5.49-1.73,8.15-2.74l-1.33.28Z"/>
    <path class="st0" d="M182.01,378.47c-.51.82-1.04,1.62-1.6,2.42,1.04-1.36,2.02-2.75,2.9-4.16-.42.58-.85,1.17-1.3,1.74Z"/>
    <path class="st0" d="M190.28,369.69c-.69,2.02,2.68-1.4,1.7.54,1.95-2.72,2.99-5.44,3.8-7.85-1.11,2.42-2.76,4.8-5.51,7.31Z"/>
    <path class="st0" d="M197.09,358.34c-.43,1.24-.85,2.57-1.3,4.03.55-1.31,1.05-2.62,1.3-4.03Z"/>
    <path class="st0" d="M175.17,381.11c.42-.02,1.36.14,3.65-1.25l-2.12.23c-.47.31-.99.66-1.53,1.02Z"/>
    <path class="st0" d="M176.62,380.1h.07c1.64-1.14,2.73-2,3.2-2.36-.41.31-1.35,1.08-3.27,2.36Z"/>
    <path class="st0" d="M174.78,381.36c.14-.09.25-.16.39-.25-.2,0-.31.04-.39.25Z"/>
    <path class="st0" d="M156.81,387.86c2.3-1.29,7.03-3.63,1.94-2.84-1.5,1.24,1.46.85-1.94,2.84Z"/>
    <path class="st0" d="M172.17,381.41c-1.43.75-2.89,1.43-4.37,2.05.2.21,1.18.2.09,1.04,1.48-.97,2.91-2,4.27-3.09Z"/>
    <path class="st0" d="M174,379.88c-.6.52-1.21,1.03-1.83,1.52l1.58-.86.25-.67Z"/>
    <path class="st0" d="M191.91,365.05c.84-1.99,1.97-3.97,3.17-6.26-1.51,2.32-3.12,4.68-4.7,6.89.03.49-.17,1.85,1.53-.63Z"/>
    <path class="st0" d="M185.11,372.95c.09-.12.2-.27.28-.38-.27.15-.45.29-.28.38Z"/>
    <path class="st0" d="M203.1,334.98c-.09.12-.17.24-.25.37.06.04.11.07.17.12l.09-.49Z"/>
    <path class="st0" d="M189.95,365.95c-1.38,1.56-1.98,2.65-2.48,3.79.91-1.27,1.88-2.61,2.92-4.05-.02-.23-.08-.31-.44.26Z"/>
    <path class="st0" d="M199.63,351.61c-.59.94-1.26,1.99-1.96,3.1.74-.82,2.09-2.63,1.96-3.1Z"/>
    <path class="st0" d="M186.1,372.25c-.06.09-.12.17-.19.26.65-.35.51-.36.19-.26Z"/>
    <path class="st0" d="M186.1,372.25c.62-.91.98-1.73,1.37-2.52-.78,1.01-1.46,1.99-2.08,2.83.24-.14.5-.25.71-.31Z"/>
    <path class="st0" d="M197.05,327.05c1.01.31,1.63,5.52-.29,9.59-.18,4.29,3.63,2.42,6.08-1.29-.44-.21-.69-.27-.79-4.99-.33.8-.92,3.33-1.6,5.09-.66,1.77-1.3,2.81-1.37.87.44-5.96,1.04-4.78,1.82-7.69-.7,1.21-.98-.75-1.47-2.79-.48-2.05-1.22-4.14-2.08-3.46.3,1.66.52,3.34.66,5.04-.28.08-.66-1.75-.97-.37Z"/>
    <path class="st0" d="M200.78,344.12l-.45,1.89c.84-2.07,1.62-3.46,3.06-6.22.21-3.35-.1-4.04-.37-4.32-.54,3.13-1.33,6.3-2.28,9.33l.05-.68Z"/>
    <path class="st0" d="M197.21,354.18c-.31-1.84.91-6.24-1.18-4.07-1,2.57-1.23,3.53-1.29,4.27-.06.74.07,1.27-.51,2.86,3.77-8.29-.57,2.66,2.84-3.05-.59,1.72-1.29,3.22-1.98,4.6.9-1.42,1.77-2.79,2.59-4.09-.06.06-.1.11-.15.17l-.02.04v-.02c-.3.31-.43.39-.17.02,0-.03.05-.14.06-.18-.11-.12-.15-.33-.19-.55,1.26-2.37.44-.27.19.55.03.05.05.14.1.17,0,0,.02-.02.03-.03,1.13-2.91,2.06-5.87,2.8-8.86-.74,1.81-1.45,4.14-3.12,8.17Z"/>
    <path class="st0" d="M162.34,381.31c.28,0,.3.07.35.13.47-.32.63-.48-.35-.13Z"/>
    <path class="st0" d="M165.86,380.52c-.51.4-.81,1.03-2.78,1.7-1.79.34-.17-.48-.39-.77-1.03.71-3.79,2.21.04,1.36l.53-.36c3.43-.88,8.14-2.05,7.67-1.62-1.4-.32-2.55-.45-5.06-.3Z"/>
    <path class="st0" d="M183.65,370.04c1.56-1.96,3.01-3.99,4.3-6.1-.99.84-1.98,1.65-3.02,2.41l.55.2c-2.87,3.06-1.8,2.8-1.84,3.49Z"/>
    <path class="st0" d="M203.76,334.18l.96,1.19c-.29-1.58-.62-3.15-1.02-4.7.05,1.17.07,2.34.06,3.5Z"/>
    <path class="st0" d="M204.27,323.95l.99.37c-.21-.92-.44-1.84-.7-2.75-.08.8-.18,1.6-.29,2.38Z"/>
    <path class="st0" d="M340.02,262.92c-.44.7-.91,1.37-1.4,2.03.73-.91,1.14-1.55,1.4-2.03Z"/>
    <path class="st0" d="M348.09,247.6l-.34-.54c.03.83.12,1.2.34.54Z"/>
    <path class="st0" d="M312.31,306.74c1.38-3.2,2.9-7.05,1.78-6.66l-1.12,1.01c.1,2.36-.22,4.17-.66,5.66Z"/>
    <path class="st0" d="M342.47,246.54c-.19.24-.39.49-.58.74.12.81.21,1.58.28,2.27.12-.91.22-1.94.3-3.01Z"/>
    <path class="st0" d="M338.74,243.38c.52-1.11,1-2.25,1.44-3.43-.38.78-.82,1.9-1.44,3.43Z"/>
    <path class="st0" d="M293.08,254.01c1.14.37,2.24.79,3.28,1.25-1.92-1.71-2.77-2.03-2.97-1.94-.23.09.02.6-.32.69Z"/>
    <path class="st0" d="M199.82,360.88c2.3,1.81,4.34,2.95,6.2,3.81-3.01-1.97-4.96-4.13-6.2-3.81Z"/>
    <path class="st0" d="M334.02,251.56c-.37,1.04-.45,1.54-.23,1.65.45-1.06.57-1.72.23-1.65Z"/>
    <path class="st0" d="M213.96,367.49c-.48-.23-.93-.45-1.41-.68-2.09-.46-4.15-1.03-6.54-2.12,2.21,1.46,4.98,2.73,7.95,2.79Z"/>
    <path class="st0" d="M183.01,368.37c-.2.15-.41.36-.61.47.06.15.3-.08.61-.47Z"/>
    <path class="st0" d="M97.41,374.39c.82.13,2.13.44,3.38.69-.59-.21-1.61-.41-3.38-.69Z"/>
    <path class="st0" d="M170.99,305.96c1.57-2.81.12-.52,0,0h0Z"/>
    <path class="st0" d="M184.12,301.4c-.51.2-.84.43-.85.68.13-.29.42-.52.85-.68Z"/>
    <path class="st0" d="M235.01,363.1c.06,0,.1,0,.17,0-.59-.18-.49-.15-.17,0Z"/>
    <path class="st0" d="M174.21,302.35c-.95.79-1.91,1.81-2.72,3.06.42-.52,1.08-1.53,2.72-3.06Z"/>
    <path class="st0" d="M173.38,302.49c.81-.82,1.51-1.4,2.2-1.9.27-.36-.27-.38-2.2,1.9Z"/>
    <path class="st0" d="M169.53,309.87c.21-.79.47-1.54.79-2.25.29-.7.74-1.55,1.17-2.2-.37.51-.54.72-.5.55-.46.92-.94,2.03-1.46,3.91Z"/>
    <path class="st0" d="M241.72,362.81c-.14-.01-.3-.03-.45-.04-2,.69-1.1.54.45.04Z"/>
    <path class="st0" d="M287.84,263.21c.06.04.11.04.17.07-.05-.05-.11-.12-.15-.17l-.02.1Z"/>
    <path class="st0" d="M283.74,261.96c.68-.55,1.65-.52,2.28-.27.69.27,1.24.77,1.84,1.42.17-1.18.26-2.39.21-3.63-1.83.42-3.53,1.27-4.33,2.48Z"/>
    <path class="st0" d="M304.54,281.19c1.92.11,3.82.1,5.73,0-3.14,1.53-6.22,2.12-7.7,2.44-1.49.3-1.41.56,1.5.99.31-1.68,5.92-2.4,11.08-4.18,5.2-1.68,9.89-4.12,9.47-5.78,1.13-.28,2.29-.6,3.54-1.03-.95.49-1.05.76-1.96,1.19,3.59-.93,4.54-2.34,5.43-3.84.9-1.59,1.9-3.24,5.33-6.33,2.41-2.14,4.16-3.78,3.07-1.73,1.37-2.12,2.46-4.26,3.41-6.5,1.04-1.81,1.34-1.1.26.73,1.77-3.27,3.07-6.71,3.99-10.19l.07.1c-.04-1.64-.08-5.15-.2-6.79.89-2.51.14,1.35.66.77.07-1.94.04-3.87-.08-5.78,1.03-2.27,1.63,2.57.73,6.56,2.14-2.4,2.08-3.74,1.89-5.78-.23-2.06-.51-4.82.25-10.64.22,1.8.39,3.62.5,5.47,1.95-3.56,1.2-7.92,1.55-14.22-.21.76-.56,3.95-1.21,6.15-.64,2.18-1.38,3.32-1.98.28.14-1.75.03-4.1-1.1-7.23,1.17-.19.47-3.36-.42-7.27l1.61-.05c-1.36-4.2-2.1-3.67-3.4-5.97-1.06-4.69-.25-5.98.42-7.39-2.15-7.49-.21,5.67-3.34-2.93-.77-3.23-1.79-5.85-3.14-8.53l-10.71,4.46c1.19,2.28,2.55,4.68,4.11,7.75.81,4.09-1.15-.37-1.1,1.18.79,1.01,1.56,2.04,2.33,3.08.23.87-.23.7-.45.62,1.34,2.82,1.63-.23,3.33,4.38,1.01.42,1.04,3.04,1.06,6.19.03,3.16.03,6.83,1.35,9.68-.28,1.5-1.05-.59-1.6-.08,1.09,3.9,1.34,5.67,1.69,7.2.31,1.55.72,2.9,1.38,6.29-.48,1.88-1.05,3.7-1.71,5.47,1.75-3.91,2.65,1.52,2.29,6.59,1.01-1.32,1.81-2.52,2.24-3.36-.3,2.68-.82,5.36-1.61,8-.63.82-.78-.17-.93-1.62-.07.56-.14,1.08-.19,1.5-1.71,2.39-1.87.59-1.95-1.52.63-.74,1.27-1.49,1.86-2.26-.31-2.13-.96-4.05-1.95-3.9.07.5-.02,1.43-.23,2.42-.12-.53-.26-.88-.47-.72-.23.19-.1,1-.12,2.26-.73.33-1.49.62-2.22.89l.5.62c-1.5,2.69-3.36,5.13-5.44,7.18-1.23,2.97-2.73,5.93-5.26,8.86-2.53,2.87-6.26,5.72-11.55,8.12,2.23-2.22-.19-2.19-.57-3.69,3.38.42,7.88-3.92,12.2-6.75-2.39,1.5-2.3.47-1.86-.1-1.16,1.09-2.35,2.06-3.75,3.04-1.41,1-2.83,1.95-4.3,2.84-.28-1.25-2.34,0-4.95.32,1.32.85-.29,1.9-2.8,2.76-2.51.88-5.85,1.38-7.85,1.86-.29-.88.59-1.54,5.37-2.23-2.8-.39-4.3.48-6,1.34-1.64.84-3.52,1.65-6.04.51,1.17.14,1.81.31,2.3-.08-1.4.3-3.8.02-5.5-.62-1.72-.62-2.71-1.41-1.89-1.47.35.11.7.25,1.06.34-1.74-.62-3.87-1.59-5.75-2.95-.96-.71-1.79-1.42-2.56-2.29-.78-.86-1.35-1.73-1.71-2.49-.36-.76-.49-1.42-.5-2.07-.09-.27,0-.69.22-1.11.31-.78,1.41-1.41,1.55-1.98.05.26-.23,2.66-.24,3.14.85-1.6,2.51-2.95,5.25-3.01,2.63-.13,5.55.7,8.3,1.88-1.15.11-1.54,1.91-2.46,3.03-.94,1.17-2.15,1.55-4.69.05.55.64,1.17,1.35,1.93,2.23.81.92,1.83,1.99,3.19,3.39-.46-1.13.16-4.13,1.4-2.81.67,2.61.83,3.47,1.16,4.43.28.97.74,2.04,1.22,5.12-.5-1.92,3.07-1.22,4.2,1.9-.58-.31-2.52,1.25-3.21.31,1.79,2.01,3.5,4.21,5.05,6.59-1.01-1.81-2.34.28-2.75,2.09.18-.45.55,1.17.82,3.15.3,1.98.4,4.33.6,5.34.15-1.09.27-2.19.35-3.3.27,4.34,1.18,6.44,2.14,8.69.91,2.23,1.85,4.65.89,9.18-.37-1.26-2.93-3.19-4.2.97.42,1.13,1.59,3.75,2.04,7.29.49,3.52.18,8-1.71,12-.53.33-1.04.66-1.59.95-.96,2.01-2.06,3.96-3.23,5.89.51-2.29,1.59-6.39,2.17-10.64.63-4.25.77-8.54.78-11.41-1.72,2.76-1.1.54-2.93,4.88-1.37,1.16.04-2.78.41-4.06-1.38,3.27-3.2,6.37-5.27,9.28.82.24.05,2.23-.95,4.16-.99,1.93-2.18,3.79-1.52,4.09,2.31-3.48,4.2-7.16,5.61-10.9.83.18,1.09,2.29.27,5.25-.81,2.95-2.82,6.69-5.88,9.64-1.96,1.05-1.02-3.2-1.6-3.44-.14.58-1.25,2.16-2.53,3.55-1.26,1.41-2.68,2.62-3.11,2.69.71-.96,1.37-1.93,2-2.91-3.65,2.44-4.29,6.54-9.82,8.24-1.67.97-5.93,1.04-5.74,2.03,3.57.2,7.23,4.83,5.97,7.22-.35.12-2.94,1.07-5.78,1.85-2.84.79-5.91,1.41-7.16,1.4-3.55-.12,3.11-5.18.04-5.27.08.46-1.31,1.68-1.94,2.12-2.03.38.26-1.58-3.75.15-.1,1.91-8.53,2.61-1.49,2.03-3.98,1.77-4.51,1.08-9.38,2.26.89.37,0,1.51-1.77,2.69-1.75,1.15-4.39,2.28-6.66,2.67.24-.44-.81-.94-1.31-1.18-4.58.15-8.09-.32-11.44-.98-3.35-.68-6.55-1.55-10.53-2.89-.63-.62-4.15-2.54-2.29-2.6-1.19-.17-2.44-.04-4.75-1.16-1.86-1.77-.55-1.17.86-.55,1.44.6,3.01,1.15,1.71-.4-.71.85-6.39-1.66-9.68-3.36.02.93,1.74,2.23,3.95,3.3,2.2,1.1,4.9,1.85,6.67,2.28-.39.96-2.3,1.36-5.21.9-2.9-.47-6.83-1.82-10.81-4.39-3.08-2.15-3.41-3.02-3.2-3.3.22-.29,1.01-.09.45-.42-4.9-4.84-7.23-6.73-9.51-8.44-2.18-1.78-4.23-3.47-6.18-9.26-.66-4.9,2.34-1.23,2.8-2.6,2.84,5.09,3.48,8.37,5.92,11.62-.83-1.44-1.6-2.91-2.28-4.4,1.33,1.38,3.88,4.29,4.97,6.13-.73-1.79-4.26-6.21-6.99-12.05-1.37-2.9-2.5-6.15-3.04-9.34-.56-3.17-.47-6.3.34-8.59-.05-.88.12-2.09.24-2.92.13-.82.16-1.34-.45-.79-.47,1.04-.76,2.12-.97,3.21-.82,1.4-.96-.21-.74-1.79.23-1.51.74-3.05-.51-.88.52-2.33,1.77-4.97,4.26-6.93,1.44-1.13,3.22-1.97,5.22-2.33,2.04-.4,4.34-.23,6.44.72.33.66.58,1.33.77,1.99.04-.23-.98-1.04-2.46-1.5-1.47-.5-3.34-.45-4.38-.04,1.56-.66,4.79-.02,7.11,1.77,2.41,1.75,3.8,4.1,5.42,4.94-.53-1.58-1.27-3.21-2.58-4.78,2.58,1.68,4.73,4.08,6.3,6.83,1.59,2.8,2.52,5.93,2.63,9.01.58-1.51.46-1.87.37-2.42-.12-.57-.16-1.27.09-3.82-.61,2.28-1.31-1.89-3.3-5.65-1.87-3.85-5.78-7.01-3.61-3.31-1.17-2.87-3.63-4.83-6.51-5.81-2.9-1.01-6.44-1.21-10.8-.47.21.16.91.14.88.31-.02.21-.82.37-3.33,1.78-.32.19-.77.47-1.26.83-.2.33-.7,1-.99,1.43-.18.15-.24.2-.39.33.12-.09.21-.16.34-.25-.18.28-.19.31.13-.09,1.06-.79,2.1-1.27,2.7-1.42.37-.15.59-.19.77-.2-.15.16-.31.32-.55.54-1.49,1.42-3.83,4.04-4.9,7.1-1.05,2.84-1.2,5.69-.97,7.07-.31,3.25-.55-1.39-1.12.38.26,1.54.65,2.95,1.11,4.28-1.17.55-.17,8.63-2.34,1.32.37,2.33.89,4.48,1.58,6.63.6,3.98,2.84,8.98,4.96,11.43,1.35,2.78,5.4,5.58,3.1,3.98,2.16,2.57,4.51,4.95,7.01,7.13l-.13.26c3.44,3.53,7.69,6.38,12.23,8.9,4.54,2.55,9.37,4.79,14.44,7.4,3.29.67,6.67,1.24,12.11,2.13l.99,1.07c2.15.02,5.34.4,8.25.47,2.9.06,5.51-.12,6.35-.74,2.39,1.05,7.73.39,12.94-1.24,5.29-1.59,10.51-4.1,13.91-5.39l-.27-1.26c4.53-1.99,8.64-4.49,13.56-8.27l-.92-.73c1.96-1.8,4.85-3.57,7.96-5.73,3.15-2.16,6.54-4.82,9.29-8.11-.05.73-1.6,2.28-2.86,3.19,4.5-2.78,7.65-7.51,9.93-12.35,2.3-4.89,3.75-9.86,5.92-14.1.26-2.35.76-3.94,1.37-5.51-.03.22-.06.41-.06.58.07-.23.14-.58.2-.94.37-.98.79-2,1.1-3.14-.39.95-.77,1.84-1.02,2.63.33-1.78.53-4.53.43-7.21l1.25-1.08c0-.22,0-.4,0-.63.49-2.66-.54-2.12-1.45-.75-.17-1.34-.41-2.55-.74-3.48,1.9-2.24-1.12-6.76.32-9.89-.64-.8-1.5-4.02-2.79-7.03-1.26-3.03-2.95-5.81-4.19-5.98.22-.19.03-.94.6.33-.9-2.72-2.05-5.45-3.95-7.36.22-.62.4-1.24.6-1.88-1.77-1.46-3.65-2.75-5.57-3.86-.97-1.77-1.85-2.98-1.91-3.56-.08-.57.67-.57,2.61.49-4.28-2.87-6.56-3.68-8.53-4.29-1.81-.42-4.57-1.26-8.78,1.04.03-.36.08-.72.13-1.08-.21.07-.43.15-.64.24-.25.11-.55.24-.81.4-.54.31-1.05.68-1.51,1.12-.92.87-1.66,1.97-2.13,3.18-.23.61-.4,1.22-.48,1.85-.06.55-.1,1.01-.11,1.47-.04.91-.02,1.67-.14,2.25-.21,2.14,1.09,5.63,3.72,8.47,2.7,2.99,6.77,5.48,11.41,6.86,4.64,1.43,9.78,1.77,14.6,1.4,4.84-.36,9.41-1.34,13.41-2.33-1.97-.84-.08-1.12,2.24-1.62,2.33-.49,5.09-1.29,4.87-2.43,1.13.21,3.3-.47,1.25,1.24,3.56-2.1,6.62-3.8,8.99-5.56,2.4-1.78,4.37-3.74,5.59-6.7,1.19-.36-.47,2.12.43,1.68.39-.64,1.37-2.61,2.23-3.15.86-.53-.28,1.44-1.01,2.76,2.94-3.78,3.58-6.35,3.59-7.99-.04-1.65-.82-2.42-1.58-3.11,2.6-3.53,3.1-5.82,2.57-9.05.92-1.26,2.18-3.61,1.2,1.6.46-1.43,1.64-5.83,1.98-10,.37-4.16.05-7.95-.75-8.06.39-.92-.07-4.02-.33-4.74-.56-6.4-.53-6.95-1.84-13.07l.08,1.75c-2.35-2.03-1.41-4.97-2.96-9.75l.23.09c-.89-5.71-1.55-6.83-2.05-7.94-.55-1.11-.97-2.2-2.35-7.76l-.87,1.02c-.75,0-1.27-.72-1.7-1.9l-2.69,1.12c1.14,3.06,1.31,9.17,3.27,13.33l-.02-2.38c1.94,3.09-.7,10.17-.4,13.45-.07.76-.58-1.06-.97-2.01.25,8.86,1.83.77,3.32,7.21-.66,1.32-2.31-1.2-1.87,3.14-.19,1.14.87,4.08,1.54,7.67.71,3.55.94,7.67-.27,10.39.8-1.15,1.61-2.39,1.71.63-.21,2.3-1.41,5.18-2.71,7.79-1.28,2.64-2.62,4.96-2.75,7.14-.44.37-.69.45-.84.39-.66,1.54-2.02,3.77-3.64,5.74-1.58,1.99-3.33,3.71-3.88,4.74-1.24-.39-2.84.19-4.74,1.09-2.02.96-4.29,2.29-6.56,3.44-4.51,2.35-9.04,3.71-9.29,1.82-3.38.67-6.8.9-10.08.55l.3-.36c-3.08-.5-5-1.05-6.55-1.36-1.57-.3-2.69-.52-3.82-.73-.98-1.04.07-.71.26-.81-3.21-2.87-3.48-5.09-3.58-5.44-.02-.03-.02-.06-.03-.1v-.03s-.01-.01-.01-.01h0s0-.01,0-.01h0c-.32-.07.7.15-.71-.15h0s-.11-.03-.11-.03c-.1-.04-.13-.05-.13-.05-.04-.02,0,0,.04.02.05.04.26.19.45.42,0,0-.02-.11.04-.2.22-.42,1.39-1.12,2.82-1.16.09.45.15.91.18,1.37.42-.02,1.21.36,2.22,1.28,1.02.93,2.2,2.34,3.39,4.15,2.41,3.54,4.57,8.37,6.82,12.74-.16-.04-.45-.16-.87-.81,2.62,4.83,3.07,11.62,2.67,17.13-.32,5.58-1.29,9.98.44,12.43-.19,2.43-.53,4.91-1.09,7.31,1.78-4.42,2.04-4.03,2.25-2.82.19,1.19.15,3.15,1.15,1.3-.94,3.97-5.29,8.74-3.39,4.36l.5-.59c-.74-1.25-2.04,1.44-3.72,4.11-1.65,2.69-3.65,5.36-4.22,4.77-5.49,7.53-13.12,13.2-21.29,17.43-8.23,4.23-16.87,7.31-25.36,8.97.77.45,1.55.92,2.36,1.34-2.02.42-4.05.79-6.1,1.02-1.67-.24-2.28-1.08,1.98-1.66-2.35-.57-7.06,1.7-7.23,2.06-4.3-.23-3.42-.85-1.89-1.27,1.54-.47,3.75-.98,2.48-.92-1.14.1-2.29.21-3.44.24l.78.21c-2.79.72-3.12,1.61-8.28.95-3.18-.85-1.46-1.37-2.7-1.66.03-.14-.38-.23-1.87-.46-2.38-.61-4.72-1.43-6.99-2.39.74.8,1.51,1.61,2.32,2.38-3.45-.39-6.63-2.81-4.01.14-1.98-2.12-8.27-5.48-13.37-10.13-5.24-4.49-9.08-9.99-9.54-11.53-3.32-3.45-5.47-7.94-6.13-13.4-.06.67-.42,1.32-.87,1.17-.41-.14-1.07-1.14-.99-3.63,1.7.93,1.85-1.49,2.84-3.16.44-.74.82-.87,1.5-.93.28-.04.75.17.88.19.03-.21,0,.09-.17.45.13-.29.13-.35.11-.27-.05.14.04-.15.15-.09.25-.04.93.47,1.58,1.63,1.28,2.22,1.97,5.27,2.5,2.33.57,3.96-1.1.5-1.38,3.53,1.24,4.57.7,10.18-.83,15.72-1.55,5.53-4.01,11.07-6.82,16.37.27.39,1.9-1.07,1.13,1.54-1.75,1.5-3.53,2.88-5.39,4.07-1.29,1.89.6,3.42-3.55,5.47.69-.16,1.74-.44.69.81-4.66,3.81-9.81,6.82-15.45,8.85-5.92,2.11-12.07,3.8-18.36,4.83-12.56,2.07-25.84,1.43-37.75-3.07,3.18,1.48.94,1.15-1.63.64,1.63.55-.26,1.05-.06,1.69-3.38-1.28-6.69-2.7-9.91-4.24-1.16.51-3.9-.31-6.48-1.25-2.58-.92-5.01-1.94-5.83-1.45l3.23,1.03c-2.42,0-1.39,1.57.21,3.34,1.57,1.78,3.72,3.72,3.02,4.73,2.85-.15,5.92,1.61,9.58,3.21,3.64,1.6,7.89,3.05,12.45,2.22,1.84.76-1.75.51-.81,1.21,2.38-.68,5.01-.47,9.94.37l-.58.21c6.99.41,12,.52,17.27.49,5.25-.08,10.8-.27,18.68-1.82l-1.42-.87c3.35-.64,4.14-.51,5.76-.67,1.63-1.42-.67-.72-3.04-.16-2.37.58-4.8,1.02-3.29-.32,2.48.65,8.22-.75,13.86-2.93,5.73-2.21,10.58-5.63,12.7-5.6,4.37-3.58-2.05.03,2.15-3.57l1.57-.46c.13-.54.23-1.1.33-1.65,2.62-2.43,4.41-3.31,5-3.03-.61.65-1.5,2.05-2.11,2.8,1.97-1.46,4.05-4.18,5.58-6.72,1.54-2.55,2.6-4.88,3.09-5.53-.97,1.49-2.02,2.94-3.11,4.34,3.87-6.5,7.19-14.13,8.99-22.15,1.74-7.99,2.14-16.4-.48-23.83l-.26,1.27c-.88-2.78-1.82-4.74-2.7-6.28-.94-1.6-1.88-2.83-3.25-3.94-.69-.55-1.52-1.06-2.58-1.42-1-.38-2.5-.5-3.54-.39-1.18.1-2.59.41-4.1,1.26-1.48.82-3.12,2.36-4.02,4.46.06-.21.09-.41.18-.64-1.19,3.33-1.14,7.03-.79,10.46-.48-1.59-.69-.02-.76,1.43-.08,1.42-.12,2.77-.91.72.88,3.12,1.74,4.88,2.31,6.03.59,1.15.97,1.66,1.31,2.05.72.74,1.25,1.09,3.98,3.96l.09,1.99c2.13,1.76,2.48,1.8,6.24,6.15-3.64-3.2,1.31,3.81-2.94.26,3.16,5.57,7.18,8.43,10.4,10.43,3.29,2.02,5.86,3.29,7.72,5.98,3.19.2.86-1.3-1.64-2.92-2.52-1.63-5.22-3.52-3.79-2.78-1.62-2.19,4.78,1.21,8.05,3.01,1.69.91,2.82,2.32,4.79,3.96,1.95,1.6,4.82,3.5,9.86,4.43-.99-.21-1.1,0-2.09-.26,3.66,1.48,7.47.45,12.03,1.64,2.6-1.46,6.04,0,6.65-2.04-2.99.38-6.02.56-9.07.51,5.28-.27,9.8-2.52,18.02-3.04-.54.53-2.88,1.52-4.55,2.02,2.54.24,4.6-1.14,7.19-1.17-.11,1.04-2.79,1.82-6.14,2.38-3.35.57-7.33.84-10.16,1.58,1.38.44,4.06-.05,6-.41,1.94-.4,3.21-.58,1.92.64,1.88-1.59,4.3-1.85,7.09-2.31,2.77-.45,5.9-1.02,8.75-3.08l-.05,1.26c.96-.51,2.85-1.76,4.66-2.45-.91.9-1.83,1.79-2.8,2.67,4.69-3.04,10.24-2.86,14.63-5.97-4.88,2.55-5.63,2.38-5.66,1.91-.04-.5.58-1.41-1.67-.86,5.68-3.48,7.61-3.83,9.94-4.1,2.25-.35,5-.52,11.03-5.46-1.52,1.48-6.79,4.01-4.41,1.71,2.54-1.45,5.82-3.5,7.63-4.28,7.47-7.28-1.96.22.79-3.32,3.51-1.4,3.19-3.96,5.62-7.63l.96.72c3.89-4.43,3.62-5.59,3.48-6.39-.22-.88-.33-1.47,2.4-5.88-.12,1.56-.34,3.13-.61,4.7.81-1.67,1.52-3.38,2.17-5.11l.73,1.62c.88-2.99,1.39-4.93,2.02-6.81.61-1.89,1.32-3.69,2.16-6.59-1.18,1.16-1.78-1.2-1.26-6.23.99-3.41,1.1,2.08,1.29-5.24.73,1.64,1.58,3.62.1,6.71.34.37.51,1.75.83,2.15,1.5-3.77,1.12-9.82.92-12.51-.02,1.05-.05,2.31-.23,2.95-.52-3.63-1.37-7.16-2.5-10.55.14-1.72.75-.49,1.3.78-.47-2.14-1.26-3.52-2.15-6.55,1.12.56,2.16.07,3.49,4.56-.97-3.39-2.2-6.67-3.68-9.82.25-.81-.87-5.42-.03-4.3-.88-2.82-2.94-5.97-5.55-9.04-2.65-3.07-5.56-6.02-9.25-9.09-.53-.12-1.41-.58-3.5-1.4-1.15-.53-2.28-.98-3.82-1.29-1.52-.28-2.82-.33-4.28-.2-1.43.14-2.95.49-4.59,1.33-1.61.83-3.44,2.3-4.55,4.51-1.13,2.36-1.23,4.1-1.17,5.91.12,1.77.59,3.33,1.21,4.68,1.25,2.68,3.04,4.65,5.17,6.23,1.03,1.78,2.3,3.44,3.72,4.95,3.68,1.77,2.12.3,1.31-.78-.41-.56-.65-1.06-.09-1.04.56,0,1.88.59,4.75,1.52,4.08,1.13,4.77,1.42,4.77,1.99,0,.51-.72,1.02.75,1.54,2.23-.04,5.17-.43,8.33-.91,3.19-.48,6.61-1.04,10.28-1.21-2.26.87-4.18.97-6.44,1.36ZM349.85,223.24c.37,1.48,1.24,4.52.53,5.66-1.39-1.73-.76-3.05-.53-5.66ZM336.07,255.08c.2-1.05,1.13-2.22,2.29-3.6-.46,1.18-1.18,2.44-2.29,3.6ZM173.46,332.2c.05.06.08.09.12.13,1.13,3.43.73,2.21-.12-.13ZM171.4,324.96c-.36-.69-.5-.61-.58-.25.43.44.88,2.08,1.46,3.91.12-.62-.03-1.57-.88-3.67ZM221.47,354.33l1.1.53c-2.7-.17-1.88-.37-1.1-.53Z"/>
    <path class="st0" d="M339.17,243.76c.29-.3.53-.35.77-.38-.08-.56-.29-.61-.77.38Z"/>
    <path class="st0" d="M292.44,253.81l.26.19c.19.04.3.03.39,0l-.64-.2Z"/>
    <path class="st0" d="M258.75,352.77c1.26-.33,2.02-.42,2.55-.41-.05-.3-.69-.27-2.55.41Z"/>
    <path class="st0" d="M199.65,303.72c-1.29-1.65-3.24-3.45-5.37-4.62,3.01,1.91,3.6,3.26,4.42,4.53.13-.27-.32-1.53.95.09Z"/>
    <path class="st0" d="M194.95,343.69c-.05.63-.36,1.26-.43,1.88l.58.02c.79-2.55.86-4.45-.15-1.9Z"/>
    <path class="st0" d="M198.71,310.12c-.75.75.69,3.36,1.41,6.51l-.11-.56c1.54.72.59-2.76-1.3-5.96Z"/>
    <path class="st0" d="M200.28,317.36c.21.95.36,1.96.4,2.92.59.33.03-1.22-.4-2.92Z"/>
    <path class="st0" d="M169.51,315.05c.38-1.83-1.2-1.29-.67-2.36-.49-1.22-.61,2.26-.01,4.25.26,1.02.58,1.71.72,1.6.16-.12.05-.99-.04-3.5Z"/>
    <path class="st0" d="M196.49,313.69c.29-.46.57-.94.83-1.43-.51-.44-1.03-.85-1.57-1.22.3.87.55,1.76.74,2.65Z"/>
    <path class="st0" d="M178.17,305.95c.56-.49,1.17-.9,1.81-1.25.87-.47,1.78-.81,2.72-1.02-.14-.17.45-.5,1.23-.73-1.51.23-3.06.81-4.13,1.47-1.19.72-1.8,1.45-1.63,1.53Z"/>
    <path class="st0" d="M183.93,302.95c1.67-.3,3.26-.2,4.23-.17-.9-.25-2.93-.28-4.23.17Z"/>
    <path class="st0" d="M193.36,308.1c-.2-.42-.43-.83-.68-1.22-.74-.82-1.6-1.55-2.57-2.1,1.35.86,2.43,2.01,3.25,3.32Z"/>
    <path class="st0" d="M194.19,351.33c1.44,1.02,2.92,1.97,4.45,2.84.69-.07-.38-1.03-2.02-2.06-1.2-.48-2.79-1.62-2.43-.78Z"/>
    <path class="st0" d="M185.98,337.79c.58,1.24.44,1.47.58,2.33l1.3-.83c-.62-.5-1.27-.98-1.88-1.5Z"/>
    <path class="st0" d="M196.13,348.07c.65.04,6.38,3.33,1.41-.31-.66.07-4.63-2.91-1.41.31Z"/>
    <polygon class="st0" points="267.59 353.39 266.43 353.98 267.7 356.17 267.59 353.39"/>
    <path class="st0" d="M299.94,300.89c-1.05,5.33,1.54,1.46.1,6.27.41,1.4,1.23-3.95,1.53-2.57-.24-3.44.07-5.14-1.63-3.7Z"/>
    <path class="st0" d="M301.57,304.59c.03.55.07,1.14.15,1.77-.03-1-.08-1.48-.15-1.77Z"/>
    <path class="st0" d="M84.59,369.06c-1.11-.6-2.2-1.22-3.27-1.85l1.92,1.68,1.35.17Z"/>
    <path class="st0" d="M77.21,368.04l-.14-1.83-2.66.34c.8.31,2.35.9,2.79,1.48Z"/>
    <path class="st0" d="M351.58,211.21l-.44-.25c-.31.72-.14,1.69.08,3.66l.36-3.41Z"/>
    <path class="st0" d="M337.09,268.3l.83-.74c-.84.13-1.67.24-2.49.31l1.66.43Z"/>
    <path class="st0" d="M287.49,282.9c2.36.81,5.21,1,7.54,1.3-5.23-.3-7.66-3.28-7.54-1.3Z"/>
  </g>
</svg>